<svg width="65" height="65" viewBox="0 0 65 65" fill="none" xmlns="http://www.w3.org/2000/svg">
<g filter="url(#filter0_ii_4856_20849)">
<path d="M64.5 3.5C64.5 5.15685 63.1569 6.5 61.5 6.5C59.8431 6.5 58.5 5.15685 58.5 3.5C58.5 1.84315 59.8431 0.5 61.5 0.5C63.1569 0.5 64.5 1.84315 64.5 3.5Z" fill="#222530"/>
</g>
<path d="M64.5 3.5C64.5 1.84315 63.1569 0.5 61.5 0.5C59.8431 0.5 58.5 1.84315 58.5 3.5C58.5 5.15685 59.8431 6.5 61.5 6.5C63.1569 6.5 64.5 5.15685 64.5 3.5ZM65 3.5C65 5.433 63.433 7 61.5 7C59.567 7 58 5.433 58 3.5C58 1.567 59.567 0 61.5 0C63.433 0 65 1.567 65 3.5Z" fill="#0E121B"/>
<g filter="url(#filter1_ii_4856_20849)">
<path d="M64.5 61.5C64.5 63.1569 63.1569 64.5 61.5 64.5C59.8431 64.5 58.5 63.1569 58.5 61.5C58.5 59.8431 59.8431 58.5 61.5 58.5C63.1569 58.5 64.5 59.8431 64.5 61.5Z" fill="#222530"/>
</g>
<path d="M64.5 61.5C64.5 59.8431 63.1569 58.5 61.5 58.5C59.8431 58.5 58.5 59.8431 58.5 61.5C58.5 63.1569 59.8431 64.5 61.5 64.5C63.1569 64.5 64.5 63.1569 64.5 61.5ZM65 61.5C65 63.433 63.433 65 61.5 65C59.567 65 58 63.433 58 61.5C58 59.567 59.567 58 61.5 58C63.433 58 65 59.567 65 61.5Z" fill="#0E121B"/>
<path d="M6.5 3.5C6.5 1.84315 5.15685 0.5 3.5 0.5C1.84315 0.5 0.5 1.84315 0.5 3.5C0.5 5.15685 1.84315 6.5 3.5 6.5C5.15685 6.5 6.5 5.15685 6.5 3.5ZM7 3.5C7 5.433 5.433 7 3.5 7C1.567 7 0 5.433 0 3.5C0 1.567 1.567 0 3.5 0C5.433 0 7 1.567 7 3.5Z" fill="#0E121B"/>
<g filter="url(#filter2_ii_4856_20849)">
<path d="M6.5 3.5C6.5 5.15685 5.15685 6.5 3.5 6.5C1.84315 6.5 0.5 5.15685 0.5 3.5C0.5 1.84315 1.84315 0.5 3.5 0.5C5.15685 0.5 6.5 1.84315 6.5 3.5Z" fill="#222530"/>
</g>
<g filter="url(#filter3_ii_4856_20849)">
<path d="M6.5 61.5C6.5 63.1569 5.15685 64.5 3.5 64.5C1.84315 64.5 0.5 63.1569 0.5 61.5C0.5 59.8431 1.84315 58.5 3.5 58.5C5.15685 58.5 6.5 59.8431 6.5 61.5Z" fill="#222530"/>
</g>
<path d="M6.5 61.5C6.5 59.8431 5.15685 58.5 3.5 58.5C1.84315 58.5 0.5 59.8431 0.5 61.5C0.5 63.1569 1.84315 64.5 3.5 64.5C5.15685 64.5 6.5 63.1569 6.5 61.5ZM7 61.5C7 63.433 5.433 65 3.5 65C1.567 65 0 63.433 0 61.5C0 59.567 1.567 58 3.5 58C5.433 58 7 59.567 7 61.5Z" fill="#0E121B"/>
<defs>
<filter id="filter0_ii_4856_20849" x="58.5" y="-0.5" width="6" height="8" filterUnits="userSpaceOnUse" color-interpolation-filters="sRGB">
<feFlood flood-opacity="0" result="BackgroundImageFix"/>
<feBlend mode="normal" in="SourceGraphic" in2="BackgroundImageFix" result="shape"/>
<feColorMatrix in="SourceAlpha" type="matrix" values="0 0 0 0 0 0 0 0 0 0 0 0 0 0 0 0 0 0 127 0" result="hardAlpha"/>
<feOffset dy="1"/>
<feGaussianBlur stdDeviation="0.5"/>
<feComposite in2="hardAlpha" operator="arithmetic" k2="-1" k3="1"/>
<feColorMatrix type="matrix" values="0 0 0 0 0.168627 0 0 0 0 0.188235 0 0 0 0 0.231373 0 0 0 1 0"/>
<feBlend mode="normal" in2="shape" result="effect1_innerShadow_4856_20849"/>
<feColorMatrix in="SourceAlpha" type="matrix" values="0 0 0 0 0 0 0 0 0 0 0 0 0 0 0 0 0 0 127 0" result="hardAlpha"/>
<feOffset dy="-1"/>
<feGaussianBlur stdDeviation="0.5"/>
<feComposite in2="hardAlpha" operator="arithmetic" k2="-1" k3="1"/>
<feColorMatrix type="matrix" values="0 0 0 0 0.0941176 0 0 0 0 0.105882 0 0 0 0 0.145098 0 0 0 1 0"/>
<feBlend mode="normal" in2="effect1_innerShadow_4856_20849" result="effect2_innerShadow_4856_20849"/>
</filter>
<filter id="filter1_ii_4856_20849" x="58.5" y="57.5" width="6" height="8" filterUnits="userSpaceOnUse" color-interpolation-filters="sRGB">
<feFlood flood-opacity="0" result="BackgroundImageFix"/>
<feBlend mode="normal" in="SourceGraphic" in2="BackgroundImageFix" result="shape"/>
<feColorMatrix in="SourceAlpha" type="matrix" values="0 0 0 0 0 0 0 0 0 0 0 0 0 0 0 0 0 0 127 0" result="hardAlpha"/>
<feOffset dy="1"/>
<feGaussianBlur stdDeviation="0.5"/>
<feComposite in2="hardAlpha" operator="arithmetic" k2="-1" k3="1"/>
<feColorMatrix type="matrix" values="0 0 0 0 0.168627 0 0 0 0 0.188235 0 0 0 0 0.231373 0 0 0 1 0"/>
<feBlend mode="normal" in2="shape" result="effect1_innerShadow_4856_20849"/>
<feColorMatrix in="SourceAlpha" type="matrix" values="0 0 0 0 0 0 0 0 0 0 0 0 0 0 0 0 0 0 127 0" result="hardAlpha"/>
<feOffset dy="-1"/>
<feGaussianBlur stdDeviation="0.5"/>
<feComposite in2="hardAlpha" operator="arithmetic" k2="-1" k3="1"/>
<feColorMatrix type="matrix" values="0 0 0 0 0.0941176 0 0 0 0 0.105882 0 0 0 0 0.145098 0 0 0 1 0"/>
<feBlend mode="normal" in2="effect1_innerShadow_4856_20849" result="effect2_innerShadow_4856_20849"/>
</filter>
<filter id="filter2_ii_4856_20849" x="0.5" y="-0.5" width="6" height="8" filterUnits="userSpaceOnUse" color-interpolation-filters="sRGB">
<feFlood flood-opacity="0" result="BackgroundImageFix"/>
<feBlend mode="normal" in="SourceGraphic" in2="BackgroundImageFix" result="shape"/>
<feColorMatrix in="SourceAlpha" type="matrix" values="0 0 0 0 0 0 0 0 0 0 0 0 0 0 0 0 0 0 127 0" result="hardAlpha"/>
<feOffset dy="1"/>
<feGaussianBlur stdDeviation="0.5"/>
<feComposite in2="hardAlpha" operator="arithmetic" k2="-1" k3="1"/>
<feColorMatrix type="matrix" values="0 0 0 0 0.168627 0 0 0 0 0.188235 0 0 0 0 0.231373 0 0 0 1 0"/>
<feBlend mode="normal" in2="shape" result="effect1_innerShadow_4856_20849"/>
<feColorMatrix in="SourceAlpha" type="matrix" values="0 0 0 0 0 0 0 0 0 0 0 0 0 0 0 0 0 0 127 0" result="hardAlpha"/>
<feOffset dy="-1"/>
<feGaussianBlur stdDeviation="0.5"/>
<feComposite in2="hardAlpha" operator="arithmetic" k2="-1" k3="1"/>
<feColorMatrix type="matrix" values="0 0 0 0 0.0941176 0 0 0 0 0.105882 0 0 0 0 0.145098 0 0 0 1 0"/>
<feBlend mode="normal" in2="effect1_innerShadow_4856_20849" result="effect2_innerShadow_4856_20849"/>
</filter>
<filter id="filter3_ii_4856_20849" x="0.5" y="57.5" width="6" height="8" filterUnits="userSpaceOnUse" color-interpolation-filters="sRGB">
<feFlood flood-opacity="0" result="BackgroundImageFix"/>
<feBlend mode="normal" in="SourceGraphic" in2="BackgroundImageFix" result="shape"/>
<feColorMatrix in="SourceAlpha" type="matrix" values="0 0 0 0 0 0 0 0 0 0 0 0 0 0 0 0 0 0 127 0" result="hardAlpha"/>
<feOffset dy="1"/>
<feGaussianBlur stdDeviation="0.5"/>
<feComposite in2="hardAlpha" operator="arithmetic" k2="-1" k3="1"/>
<feColorMatrix type="matrix" values="0 0 0 0 0.168627 0 0 0 0 0.188235 0 0 0 0 0.231373 0 0 0 1 0"/>
<feBlend mode="normal" in2="shape" result="effect1_innerShadow_4856_20849"/>
<feColorMatrix in="SourceAlpha" type="matrix" values="0 0 0 0 0 0 0 0 0 0 0 0 0 0 0 0 0 0 127 0" result="hardAlpha"/>
<feOffset dy="-1"/>
<feGaussianBlur stdDeviation="0.5"/>
<feComposite in2="hardAlpha" operator="arithmetic" k2="-1" k3="1"/>
<feColorMatrix type="matrix" values="0 0 0 0 0.0941176 0 0 0 0 0.105882 0 0 0 0 0.145098 0 0 0 1 0"/>
<feBlend mode="normal" in2="effect1_innerShadow_4856_20849" result="effect2_innerShadow_4856_20849"/>
</filter>
</defs>
</svg>
