<svg width="337" height="141" viewBox="0 0 337 141" fill="none" xmlns="http://www.w3.org/2000/svg">
<g filter="url(#filter0_ii_4884_25381)">
<path d="M231.683 112.596V93.3098L288.496 3.54636H304.579V31.005H294.772L256.526 91.61V92.6561H335.829V112.596H231.683ZM295.557 137.44V106.712L295.818 98.0824V3.54636H318.701V137.44H295.557Z" fill="url(#paint0_linear_4884_25381)"/>
<path d="M168.162 139.989C157.396 139.989 148.156 137.265 140.442 131.817C132.771 126.326 126.865 118.415 122.724 108.085C118.627 97.712 116.579 85.2248 116.579 70.6238C116.622 56.0228 118.693 43.6011 122.79 33.3586C126.93 23.0725 132.836 15.2272 140.507 9.82265C148.221 4.4181 157.44 1.71582 168.162 1.71582C178.884 1.71582 188.102 4.4181 195.816 9.82265C203.531 15.2272 209.437 23.0725 213.534 33.3586C217.674 43.6447 219.745 56.0664 219.745 70.6238C219.745 85.2684 217.674 97.7773 213.534 108.151C209.437 118.48 203.531 126.369 195.816 131.817C188.145 137.265 178.927 139.989 168.162 139.989ZM168.162 119.526C176.53 119.526 183.133 115.407 187.971 107.17C192.853 98.8887 195.293 86.7067 195.293 70.6238C195.293 59.9891 194.182 51.0541 191.959 43.819C189.736 36.5839 186.598 31.1357 182.545 27.4746C178.491 23.7699 173.697 21.9175 168.162 21.9175C159.837 21.9175 153.256 26.0581 148.418 34.3392C143.58 42.5768 141.139 54.6717 141.095 70.6238C141.052 81.3022 142.12 90.2807 144.299 97.5594C146.522 104.838 149.66 110.33 153.713 114.035C157.767 117.696 162.583 119.526 168.162 119.526Z" fill="url(#paint1_linear_4884_25381)"/>
<path d="M1 112.596V93.3098L57.8132 3.54636H73.896V31.005H64.0894L25.8435 91.61V92.6561H105.147V112.596H1ZM64.8739 137.44V106.712L65.1354 98.0824V3.54636H88.0176V137.44H64.8739Z" fill="url(#paint2_linear_4884_25381)"/>
</g>
<path d="M168.162 1.21582C178.972 1.2159 188.294 3.9418 196.104 9.41309C203.911 14.8826 209.871 22.813 213.997 33.1729C218.168 43.5335 220.244 56.0219 220.244 70.624C220.244 85.3133 218.168 97.8886 213.998 108.336C209.872 118.739 203.911 126.712 196.104 132.226C188.337 137.742 179.015 140.489 168.162 140.489C157.308 140.489 147.964 137.741 140.153 132.226L140.15 132.224C132.389 126.667 126.429 118.673 122.26 108.271L122.259 108.269C118.133 97.8219 116.079 85.2692 116.079 70.624V70.6221C116.123 55.9774 118.199 43.4895 122.325 33.1729L122.326 33.1719C126.496 22.8131 132.456 14.8835 140.219 9.41406L140.22 9.41309C148.03 3.94172 157.352 1.21582 168.162 1.21582ZM88.5176 3.0459V92.1562H105.646V113.097H88.5176V137.939H64.374V113.097H0.5V93.165L0.577148 93.042L57.3906 3.2793L57.5381 3.0459H88.5176ZM319.2 3.0459V92.1562H336.329V113.097H319.2V137.939H295.057V113.097H231.183V93.165L231.261 93.042L288.073 3.2793L288.221 3.0459H319.2ZM168.162 22.418C160.045 22.418 153.614 26.4362 148.85 34.5918L148.849 34.5928C144.076 42.7187 141.639 54.7091 141.596 70.625V70.626C141.552 81.2718 142.616 90.1969 144.776 97.4131C146.983 104.638 150.084 110.04 154.051 113.665H154.05C158.009 117.24 162.705 119.026 168.162 119.026C176.325 119.026 182.777 115.027 187.54 106.917V106.916C192.355 98.7475 194.793 86.6708 194.793 70.624C194.793 60.0206 193.685 51.1384 191.481 43.9658C189.275 36.7853 186.175 31.4274 182.21 27.8457L182.207 27.8438C178.247 24.2242 173.573 22.4181 168.162 22.418ZM257.026 91.7539V92.1562H295.318V31.5049H295.048L257.026 91.7539ZM26.3438 91.7539V92.1562H64.6357V31.5049H64.3652L26.3438 91.7539Z" stroke="url(#paint3_linear_4884_25381)"/>
<defs>
<filter id="filter0_ii_4884_25381" x="0" y="-8.28418" width="336.828" height="152.273" filterUnits="userSpaceOnUse" color-interpolation-filters="sRGB">
<feFlood flood-opacity="0" result="BackgroundImageFix"/>
<feBlend mode="normal" in="SourceGraphic" in2="BackgroundImageFix" result="shape"/>
<feColorMatrix in="SourceAlpha" type="matrix" values="0 0 0 0 0 0 0 0 0 0 0 0 0 0 0 0 0 0 127 0" result="hardAlpha"/>
<feOffset dy="3"/>
<feGaussianBlur stdDeviation="12"/>
<feComposite in2="hardAlpha" operator="arithmetic" k2="-1" k3="1"/>
<feColorMatrix type="matrix" values="0 0 0 0 0.168627 0 0 0 0 0.188235 0 0 0 0 0.231373 0 0 0 1 0"/>
<feBlend mode="normal" in2="shape" result="effect1_innerShadow_4884_25381"/>
<feColorMatrix in="SourceAlpha" type="matrix" values="0 0 0 0 0 0 0 0 0 0 0 0 0 0 0 0 0 0 127 0" result="hardAlpha"/>
<feOffset dy="-9"/>
<feGaussianBlur stdDeviation="4.5"/>
<feComposite in2="hardAlpha" operator="arithmetic" k2="-1" k3="1"/>
<feColorMatrix type="matrix" values="0 0 0 0 0.0941176 0 0 0 0 0.105882 0 0 0 0 0.145098 0 0 0 1 0"/>
<feBlend mode="normal" in2="effect1_innerShadow_4884_25381" result="effect2_innerShadow_4884_25381"/>
</filter>
<linearGradient id="paint0_linear_4884_25381" x1="168.415" y1="1.71582" x2="168.415" y2="139.989" gradientUnits="userSpaceOnUse">
<stop stop-color="#222530"/>
<stop offset="1" stop-color="#181B25"/>
</linearGradient>
<linearGradient id="paint1_linear_4884_25381" x1="53.0733" y1="3.54639" x2="53.0733" y2="137.44" gradientUnits="userSpaceOnUse">
<stop stop-color="#222530"/>
<stop offset="1" stop-color="#181B25"/>
</linearGradient>
<linearGradient id="paint2_linear_4884_25381" x1="53.0733" y1="3.54639" x2="53.0733" y2="137.44" gradientUnits="userSpaceOnUse">
<stop stop-color="#222530"/>
<stop offset="1" stop-color="#181B25"/>
</linearGradient>
<linearGradient id="paint3_linear_4884_25381" x1="168.415" y1="1.71582" x2="168.415" y2="139.989" gradientUnits="userSpaceOnUse">
<stop stop-color="#4C1EE3"/>
<stop offset="1" stop-color="#2B303B"/>
</linearGradient>
</defs>
</svg>
