<svg width="36" height="36" viewBox="0 0 36 36" fill="none" xmlns="http://www.w3.org/2000/svg">
<path d="M0.5 12.9444C0.5 8.58848 0.5 6.4105 1.34773 4.74674C2.09341 3.28326 3.28326 2.09341 4.74674 1.34773C6.4105 0.5 8.58848 0.5 12.9444 0.5H23.0556C27.4115 0.5 29.5895 0.5 31.2533 1.34773C32.7167 2.09341 33.9066 3.28326 34.6523 4.74674C35.5 6.4105 35.5 8.58848 35.5 12.9444V23.0556C35.5 27.4115 35.5 29.5895 34.6523 31.2533C33.9066 32.7167 32.7167 33.9066 31.2533 34.6523C29.5895 35.5 27.4115 35.5 23.0556 35.5H12.9444C8.58848 35.5 6.4105 35.5 4.74674 34.6523C3.28326 33.9066 2.09341 32.7167 1.34773 31.2533C0.5 29.5895 0.5 27.4115 0.5 23.0556V12.9444Z" fill="white"/>
<path d="M13.8091 27.4514C13.8091 29.0787 12.4889 30.399 10.8616 30.399C9.23431 30.399 7.91406 29.0787 7.91406 27.4514C7.91406 25.8241 9.23431 24.5039 10.8616 24.5039C12.4889 24.5039 13.8091 25.8241 13.8091 27.4514Z" fill="#E37300"/>
<path d="M15.6328 18.0471V27.1704C15.6328 29.2451 17.0627 30.3987 18.5803 30.3987C19.9839 30.3987 21.5279 29.4162 21.5279 27.1704V18.1875C21.5279 16.2883 20.1243 15.0996 18.5803 15.0996C17.0364 15.0996 15.6328 16.4111 15.6328 18.0471Z" fill="#E37300"/>
<path d="M23.3555 8.64479V27.1721C23.3555 29.2468 24.7854 30.4004 26.303 30.4004C27.7066 30.4004 29.2505 29.4178 29.2505 27.1721V8.78515C29.2505 6.88592 27.8469 5.69727 26.303 5.69727C24.7591 5.69727 23.3555 7.00874 23.3555 8.64479Z" fill="#F8AB00"/>
</svg>
