<svg width="33" height="32" viewBox="0 0 33 32" fill="none" xmlns="http://www.w3.org/2000/svg">
<path fill-rule="evenodd" clip-rule="evenodd" d="M16.5158 0.75C7.52233 0.75 0.251953 7.91163 0.251953 16.7715C0.251953 23.8537 4.91034 29.8487 11.3727 31.9705C12.1807 32.13 12.4767 31.6257 12.4767 31.2016C12.4767 30.8301 12.45 29.557 12.45 28.2305C7.92582 29.1856 6.98369 26.3206 6.98369 26.3206C6.25662 24.4638 5.17933 23.9865 5.17933 23.9865C3.69855 23.0051 5.28719 23.0051 5.28719 23.0051C6.92976 23.1112 7.79166 24.6496 7.79166 24.6496C9.24547 27.0898 11.5881 26.4003 12.5306 25.9758C12.6651 24.9413 13.0962 24.2252 13.554 23.8274C9.94557 23.4559 6.14909 22.0767 6.14909 15.9226C6.14909 14.1719 6.79493 12.7395 7.81829 11.6256C7.65683 11.2278 7.09122 9.58289 7.98008 7.38134C7.98008 7.38134 9.35333 6.95685 12.4497 9.02591C13.7754 8.67521 15.1425 8.4968 16.5158 8.4953C17.8891 8.4953 19.289 8.68118 20.5817 9.02591C23.6784 6.95685 25.0516 7.38134 25.0516 7.38134C25.9405 9.58289 25.3745 11.2278 25.2131 11.6256C26.2634 12.7395 26.8826 14.1719 26.8826 15.9226C26.8826 22.0767 23.0861 23.4292 19.4508 23.8274C20.0433 24.3313 20.5547 25.2861 20.5547 26.7981C20.5547 28.9466 20.5281 30.6709 20.5281 31.2012C20.5281 31.6257 20.8243 32.13 21.632 31.9708C28.0944 29.8483 32.7528 23.8537 32.7528 16.7715C32.7794 7.91163 25.4824 0.75 16.5158 0.75Z" fill="white"/>
</svg>
