<svg width="34" height="25" viewBox="0 0 34 25" fill="none" xmlns="http://www.w3.org/2000/svg">
<path d="M28.2731 2.4688C26.2016 1.55753 23.9803 0.886143 21.6577 0.501613C21.6154 0.494192 21.5732 0.512738 21.5514 0.549831C21.2657 1.03698 20.9492 1.67251 20.7276 2.17203C18.2295 1.81348 15.7443 1.81348 13.2974 2.17203C13.0758 1.66141 12.7478 1.03698 12.4609 0.549831C12.4391 0.513976 12.3968 0.495429 12.3545 0.501613C10.0332 0.884914 7.81186 1.5563 5.73909 2.4688C5.72114 2.47622 5.70576 2.48859 5.69555 2.50466C1.48209 8.53974 0.327842 14.4265 0.894076 20.2403C0.896638 20.2687 0.913292 20.2959 0.936351 20.3132C3.71628 22.2705 6.40911 23.4587 9.05193 24.2463C9.09423 24.2587 9.13905 24.2439 9.16596 24.2105C9.79112 23.392 10.3484 22.5289 10.8262 21.6213C10.8544 21.5682 10.8275 21.5051 10.7699 21.4841C9.88592 21.1626 9.04424 20.7707 8.23461 20.3256C8.17056 20.2897 8.16544 20.2019 8.22435 20.1599C8.39473 20.0375 8.56515 19.9101 8.72784 19.7815C8.75727 19.758 8.79829 19.7531 8.8329 19.7679C14.1519 22.0962 19.9103 22.0962 25.1665 19.7679C25.2011 19.7518 25.2421 19.7568 25.2729 19.7803C25.4356 19.9089 25.606 20.0375 25.7776 20.1599C25.8365 20.2019 25.8327 20.2897 25.7687 20.3256C24.959 20.7793 24.1173 21.1626 23.2321 21.4829C23.1745 21.5039 23.1489 21.5682 23.1771 21.6213C23.6651 22.5277 24.2224 23.3907 24.836 24.2092C24.8617 24.2439 24.9077 24.2587 24.95 24.2463C27.6057 23.4587 30.2985 22.2705 33.0784 20.3132C33.1028 20.2959 33.1182 20.2699 33.1207 20.2415C33.7984 13.5201 31.9857 7.68166 28.3154 2.50588C28.3064 2.48859 28.2911 2.47622 28.2731 2.4688ZM11.6205 16.7003C10.0191 16.7003 8.69964 15.2908 8.69964 13.5597C8.69964 11.8287 9.99354 10.4192 11.6205 10.4192C13.2603 10.4192 14.567 11.8411 14.5413 13.5597C14.5413 15.2908 13.2474 16.7003 11.6205 16.7003ZM22.4199 16.7003C20.8186 16.7003 19.4991 15.2908 19.4991 13.5597C19.4991 11.8287 20.7929 10.4192 22.4199 10.4192C24.0597 10.4192 25.3664 11.8411 25.3408 13.5597C25.3408 15.2908 24.0597 16.7003 22.4199 16.7003Z" fill="white"/>
</svg>
