<svg width="30" height="30" viewBox="0 0 30 30" fill="none" xmlns="http://www.w3.org/2000/svg">
<path d="M25.5 0C26.6935 0 27.8377 0.474446 28.6816 1.31836C29.5256 2.16227 30 3.30653 30 4.5V25.5C30 26.6935 29.5256 27.8377 28.6816 28.6816C27.8377 29.5256 26.6935 30 25.5 30H19.5C18.6716 30 18 29.3284 18 28.5C18 27.6716 18.6716 27 19.5 27H25.5C25.8978 27 26.2792 26.8419 26.5605 26.5605C26.8419 26.2792 27 25.8978 27 25.5V4.5C27 4.10218 26.8419 3.72076 26.5605 3.43945C26.3145 3.19337 25.9917 3.04195 25.6484 3.00781L25.5 3H19.5C18.6716 3 18 2.32843 18 1.5C18 0.671573 18.6716 0 19.5 0H25.5Z" fill="url(#paint0_linear_4880_20573)"/>
<path d="M10.9395 6.43945C11.5252 5.85367 12.4748 5.85367 13.0605 6.43945L20.5605 13.9395C21.1463 14.5252 21.1463 15.4748 20.5605 16.0605L13.0605 23.5605C12.4748 24.1463 11.5252 24.1463 10.9395 23.5605C10.3537 22.9748 10.3537 22.0252 10.9395 21.4395L15.8789 16.5H1.5C0.671611 16.5 6.13297e-05 15.8284 0 15C0 14.1716 0.671573 13.5 1.5 13.5H15.8789L10.9395 8.56055L10.8359 8.44629C10.3558 7.85716 10.3905 6.98848 10.9395 6.43945Z" fill="url(#paint1_linear_4880_20573)"/>
<defs>
<linearGradient id="paint0_linear_4880_20573" x1="24.1667" y1="1.49726" x2="24.1667" y2="28.5" gradientUnits="userSpaceOnUse">
<stop stop-color="white"/>
<stop offset="1" stop-color="#525866"/>
</linearGradient>
<linearGradient id="paint1_linear_4880_20573" x1="24.1667" y1="1.49726" x2="24.1667" y2="28.5" gradientUnits="userSpaceOnUse">
<stop stop-color="white"/>
<stop offset="1" stop-color="#525866"/>
</linearGradient>
</defs>
</svg>
