<svg width="31" height="30" viewBox="0 0 31 30" fill="none" xmlns="http://www.w3.org/2000/svg">
<path fill-rule="evenodd" clip-rule="evenodd" d="M26.7667 0H4.25238C2.18 0 0.5 1.67893 0.5 3.75V26.25C0.5 28.3211 2.18 30 4.25238 30H26.7667C28.8316 29.9895 30.5 28.3137 30.5 26.25V3.75C30.5 1.68634 28.8316 0.0104754 26.7667 0ZM6.75 3.75H11.75C13.1307 3.75 14.25 4.86929 14.25 6.25V23.75C14.25 25.1307 13.1307 26.25 11.75 26.25H6.75C5.36929 26.25 4.25 25.1307 4.25 23.75V6.25C4.25 4.86929 5.36929 3.75 6.75 3.75ZM24.25 3.75H19.25C17.8693 3.75 16.75 4.86929 16.75 6.25V15C16.75 16.3807 17.8693 17.5 19.25 17.5H24.25C25.6307 17.5 26.75 16.3807 26.75 15V6.25C26.75 4.86929 25.6307 3.75 24.25 3.75Z" fill="url(#paint0_linear_4867_28168)"/>
<defs>
<linearGradient id="paint0_linear_4867_28168" x1="15.5095" y1="30" x2="15.5095" y2="0" gradientUnits="userSpaceOnUse">
<stop stop-color="#0052CC"/>
<stop offset="0.51698" stop-color="#217EF8"/>
<stop offset="1" stop-color="#2684FF"/>
</linearGradient>
</defs>
</svg>
