<svg width="19" height="16" viewBox="0 0 19 16" fill="none" xmlns="http://www.w3.org/2000/svg">
<path fill-rule="evenodd" clip-rule="evenodd" d="M10.488 9.6048C11.4665 9.65387 12.3949 10.0683 13.091 10.7712C13.8331 11.5216 14.25 12.5392 14.25 13.6V15.2C14.25 15.6416 13.8953 16 13.4583 16C13.0213 16 12.6667 15.6416 12.6667 15.2V13.6C12.6667 12.9632 12.4165 12.3531 11.9711 11.9029C11.5531 11.4811 10.9963 11.2325 10.4094 11.2032L10.2917 11.2H3.95833C3.32869 11.2 2.72439 11.4528 2.27894 11.9029C1.8335 12.3531 1.58333 12.9632 1.58333 13.6V15.2C1.58333 15.6416 1.22867 16 0.791667 16C0.354667 16 0 15.6416 0 15.2V13.6C0 12.5392 0.416945 11.5216 1.159 10.7712C1.90158 10.0213 2.90858 9.6 3.95833 9.6H10.2917L10.488 9.6048ZM15.067 10.304C15.1694 9.90293 15.5552 9.65173 15.9521 9.71307L16.0313 9.7296L16.1896 9.7744C16.9739 10.0144 17.6663 10.4955 18.1703 11.152C18.7076 11.8523 18.9995 12.7131 19 13.5995V15.2C19 15.6416 18.6453 16 18.2083 16C17.7713 16 17.4167 15.6416 17.4167 15.2V13.6005L17.4146 13.5013C17.394 13.0048 17.2209 12.5264 16.919 12.1323C16.6166 11.7381 16.2007 11.4496 15.7304 11.3056L15.6354 11.2784L15.5584 11.2544C15.1815 11.1136 14.9646 10.7051 15.067 10.304ZM7.125 0C9.31106 0 11.0833 1.79093 11.0833 4C11.0833 6.20907 9.31106 8 7.125 8C4.93894 8 3.16667 6.20907 3.16667 4C3.16667 1.79093 4.93894 0 7.125 0ZM7.125 1.6C5.81347 1.6 4.75 2.67467 4.75 4C4.75 5.32533 5.81347 6.4 7.125 6.4C8.43653 6.4 9.5 5.32533 9.5 4C9.5 2.67467 8.43653 1.6 7.125 1.6ZM11.8998 0.7056C12.008 0.277867 12.4397 0.0197333 12.863 0.129067C13.7143 0.349333 14.469 0.850133 15.0084 1.55147C15.5473 2.25333 15.8397 3.11627 15.8397 4.00427L15.836 4.17013C15.8017 4.99947 15.5135 5.79893 15.0084 6.45653C14.469 7.1584 13.7143 7.65867 12.863 7.87893C12.4397 7.9888 12.008 7.73067 11.8998 7.3024C11.7911 6.87467 12.0471 6.43893 12.4703 6.32907C12.9812 6.1968 13.4341 5.89653 13.7571 5.47573C14.0605 5.08107 14.2336 4.60107 14.2542 4.10347L14.2563 4.00427C14.2563 3.47147 14.0806 2.9536 13.7571 2.5328C13.4541 2.13813 13.0372 1.84907 12.5659 1.7056L12.4703 1.67893L12.3928 1.65493C12.0164 1.51467 11.7979 1.10667 11.8998 0.7056Z" fill="url(#gradientUsers)"/>
<defs>
<linearGradient id="gradientUsers" x1="7.24228" y1="0.799351" x2="7.24228" y2="7.2" gradientUnits="userSpaceOnUse">
<stop stop-color="white"/>
<stop offset="1" stop-color="#525866"/>
</linearGradient>
</defs>
</svg>
