<svg width="17" height="17" viewBox="0 0 17 17" fill="none" xmlns="http://www.w3.org/2000/svg">
<path fill-rule="evenodd" clip-rule="evenodd" d="M8.33898 0.875671C3.84222 0.875671 0.207031 4.45648 0.207031 8.88644C0.207031 12.4275 2.53622 15.425 5.76743 16.4859C6.17141 16.5657 6.31939 16.3135 6.31939 16.1014C6.31939 15.9157 6.30607 15.2792 6.30607 14.6159C4.04396 15.0935 3.5729 13.661 3.5729 13.661C3.20936 12.7326 2.67072 12.4939 2.67072 12.4939C1.93033 12.0032 2.72465 12.0032 2.72465 12.0032C3.54593 12.0563 3.97688 12.8255 3.97688 12.8255C4.70379 14.0456 5.87512 13.7008 6.34636 13.4886C6.4136 12.9713 6.62916 12.6132 6.85804 12.4144C5.05384 12.2286 3.1556 11.539 3.1556 8.46195C3.1556 7.5866 3.47852 6.87044 3.9902 6.31346C3.90947 6.11456 3.62666 5.29212 4.0711 4.19134C4.0711 4.19134 4.75772 3.9791 6.30591 5.01363C6.96874 4.83827 7.65231 4.74907 8.33898 4.74832C9.0256 4.74832 9.72554 4.84126 10.3719 5.01363C11.9202 3.9791 12.6069 4.19134 12.6069 4.19134C13.0513 5.29212 12.7683 6.11456 12.6876 6.31346C13.2128 6.87044 13.5224 7.5866 13.5224 8.46195C13.5224 11.539 11.6241 12.2153 9.80644 12.4144C10.1027 12.6663 10.3584 13.1437 10.3584 13.8997C10.3584 14.974 10.3451 15.8361 10.3451 16.1013C10.3451 16.3135 10.4932 16.5657 10.897 16.4861C14.1282 15.4248 16.4574 12.4275 16.4574 8.88644C16.4708 4.45648 12.8223 0.875671 8.33898 0.875671Z" fill="#0E121B"/>
</svg>
