<svg width="33" height="34" viewBox="0 0 33 34" fill="none" xmlns="http://www.w3.org/2000/svg">
<path d="M3.37473 18.2505C1.64899 18.2505 0.250001 19.6495 0.250001 21.3753V21.3753C0.250001 23.101 1.64912 24.5 3.37487 24.5V24.5C5.10076 24.5 6.5 23.1009 6.5 21.375V18.2505H3.37473ZM12.125 18.2505C10.3991 18.2505 9 19.6496 9 21.3755V30.125C9 31.8509 10.3991 33.25 12.125 33.25V33.25C13.8509 33.25 15.25 31.8509 15.25 30.125V21.3755C15.25 19.6496 13.8509 18.2505 12.125 18.2505V18.2505Z" fill="#E01E5A"/>
<path d="M17.7505 30.1253C17.7505 31.851 19.1495 33.25 20.8753 33.25V33.25C22.601 33.25 24 31.8509 24 30.1251V30.1251C24 28.3992 22.6009 27 20.875 27L17.7505 27L17.7505 30.1253ZM17.7505 21.375C17.7505 23.1009 19.1496 24.5 20.8755 24.5L29.625 24.5C31.3509 24.5 32.75 23.1009 32.75 21.375V21.375C32.75 19.6491 31.3509 18.25 29.625 18.25L20.8755 18.25C19.1496 18.25 17.7505 19.6491 17.7505 21.375V21.375Z" fill="#ECB22E"/>
<path d="M29.6253 15.7495C31.351 15.7495 32.75 14.3505 32.75 12.6247V12.6247C32.75 10.899 31.3509 9.5 29.6251 9.5V9.5C27.8992 9.5 26.5 10.8991 26.5 12.625V15.7495H29.6253ZM20.875 15.7495C22.6009 15.7495 24 14.3504 24 12.6245V3.875C24 2.14911 22.6009 0.75 20.875 0.75V0.75C19.1491 0.75 17.75 2.14911 17.75 3.875V12.6245C17.75 14.3504 19.1491 15.7495 20.875 15.7495V15.7495Z" fill="#2EB67D"/>
<path d="M15.2495 3.87473C15.2495 2.14899 13.8505 0.750002 12.1247 0.750002V0.750002C10.399 0.750002 9 2.14913 9 3.87487V3.87487C9 5.60076 10.3991 7 12.125 7L15.2495 7L15.2495 3.87473ZM15.2495 12.625C15.2495 10.8991 13.8504 9.5 12.1245 9.5L3.375 9.5C1.64911 9.5 0.25 10.8991 0.25 12.625V12.625C0.25 14.3509 1.64911 15.75 3.375 15.75L12.1245 15.75C13.8504 15.75 15.2495 14.3509 15.2495 12.625V12.625Z" fill="#36C5F0"/>
</svg>
