<svg width="33" height="38" viewBox="0 0 33 38" fill="none" xmlns="http://www.w3.org/2000/svg">
<g clip-path="url(#clip0_4864_17890)">
<path d="M12.3901 10.251C13.6633 9.36823 15.3036 9.71524 15.0291 9.98127C14.5058 10.4886 15.2021 10.3386 15.2772 11.2747C15.3324 11.9642 15.1111 12.3438 14.9207 12.5598C14.5232 12.6127 14.0401 12.7115 13.4583 12.904C13.114 13.018 12.8148 13.1444 12.5525 13.2716C12.4835 13.2258 12.4084 13.1696 12.3195 13.0915C11.4214 12.2992 11.4515 10.9021 12.3901 10.251ZM19.9953 15.7085C20.2263 15.5263 21.2762 15.183 22.2481 15.0661C22.7585 15.005 23.486 14.9695 23.6411 15.0579C23.9493 15.231 23.9493 15.7667 23.7381 16.2616C23.4308 16.9804 22.9964 17.7748 22.5043 17.8401C21.7017 17.9479 20.9429 17.5059 20.0765 16.8474C19.7671 16.6107 19.5771 16.0373 19.9953 15.7085ZM21.4597 8.70851C22.6448 9.2695 22.4897 10.337 22.5226 10.964C22.5315 11.1442 22.5287 11.2656 22.5137 11.349C22.3496 11.2586 22.0902 11.1921 21.6789 11.2107C21.5588 11.2156 21.4418 11.2301 21.3286 11.2483C20.8913 11.0099 20.6298 10.5435 20.3907 10.0478C20.3688 10.0019 20.3517 9.96103 20.3355 9.92137C20.3286 9.9032 20.3213 9.88378 20.3144 9.86726C20.3115 9.85817 20.3095 9.85115 20.3063 9.84288C20.1751 9.41946 20.2632 9.33477 20.3184 9.20423C20.3757 9.0708 20.5896 8.96092 20.2734 8.84979C20.2462 8.83946 20.2125 8.83368 20.1743 8.82624C20.3838 8.56186 21.0111 8.49783 21.4597 8.70851ZM14.9991 21.4712C13.7222 20.6372 12.4011 19.4409 11.8234 18.7787C11.7263 18.7043 11.7422 18.3742 11.7422 18.3742C12.2635 18.7865 14.4262 20.3588 16.7132 21.0767C17.5199 21.3304 18.7578 21.4262 19.8316 20.807C20.6522 20.3336 21.64 19.5086 22.2295 18.6584L22.3375 18.8489C22.3334 18.9753 22.0622 19.5912 21.9241 19.8387C22.1734 19.9845 22.3594 20.0242 22.6367 20.1014L24.5302 19.8011C25.2099 18.6841 25.6971 16.8825 25.1778 15.1677C24.8814 14.1842 23.3362 12.2256 23.2254 12.1178C22.8372 11.7382 23.2903 10.2717 22.521 8.67175C21.7078 6.97927 19.5889 5.21451 18.6685 4.44656C18.9397 4.64815 20.6099 5.33348 21.3886 6.28981C21.4617 6.19108 21.4918 5.6776 21.5588 5.54747C20.8901 4.65641 20.8381 3.07093 20.8381 2.64709C20.8381 1.87005 20.45 0.989321 20.45 0.989321C20.45 0.989321 21.1187 1.528 21.2916 2.45583C21.4958 3.55467 21.931 4.42012 22.5068 5.15255C23.5964 6.53354 24.5806 7.24201 25.0779 6.73183C25.6731 6.11879 24.4742 3.37663 22.9428 1.84609C21.1552 0.0598458 20.6879 0.289943 19.6392 0.670821C18.8024 0.97445 18.3502 3.39191 16.1692 3.34399C15.7997 3.3002 14.848 3.27666 14.3775 3.28079C14.6227 2.93254 14.833 2.66362 14.833 2.66362C14.833 2.66362 14.1014 2.96311 13.4778 3.34275L13.4299 3.26963C13.6402 2.81853 13.8663 2.53349 13.8663 2.53349C13.8663 2.53349 13.2817 2.89082 12.7482 3.31879C12.8453 2.78094 13.2127 2.44013 13.2127 2.44013C13.2127 2.44013 12.4742 2.57563 11.5335 3.62862C10.4645 3.92605 10.2075 4.12145 9.35572 4.50522C7.97046 4.19787 7.31721 3.70174 6.69442 2.78837C6.22021 2.09065 5.37615 1.98489 4.51381 2.34553C3.25644 2.8743 1.66615 3.59846 1.66615 3.59846C1.66615 3.59846 2.18461 3.57698 2.72499 3.60053C1.98527 3.88557 1.27477 4.2776 1.27477 4.2776C1.27477 4.2776 1.62109 4.26521 2.0486 4.27264C1.75344 4.52215 1.59023 4.64113 1.30888 4.83074C0.632485 5.33059 0.0839844 5.90811 0.0839844 5.90811C0.0839844 5.90811 0.543166 5.69536 0.955658 5.57597C0.667401 6.24809 0.0957583 6.74298 0.200911 7.56588C0.302004 8.31731 1.20859 9.86519 2.37868 10.8153C2.47977 10.8979 4.07818 12.4029 5.28398 11.7849C6.48898 11.1677 6.9644 10.6179 7.16253 9.77472C7.39557 8.80642 7.26281 8.07399 6.76506 5.97214C6.60104 5.27854 6.17352 3.85004 5.96728 3.16677L6.01315 3.13331C6.40738 3.97975 7.41628 6.21091 7.82268 7.70964C8.45725 10.0465 8.25913 11.2321 7.96884 11.6667C7.0931 12.9775 4.84916 13.1506 3.82849 12.4243C3.67218 14.9405 4.22474 16.0485 4.4119 16.6066C4.31893 17.2481 4.72736 18.4395 4.72736 18.4395C4.72736 18.4395 4.77324 17.8979 4.96041 17.6125C5.01034 18.2491 5.3258 19.0054 5.3258 19.0054C5.3258 19.0054 5.30672 18.5382 5.45004 18.1346C5.65222 18.4829 5.80041 18.5655 5.99164 18.827C6.18286 19.5074 6.56612 20.0043 6.56612 20.0043C6.56612 20.0043 6.504 19.6396 6.53811 19.2599C7.47393 20.1745 7.63511 21.5092 7.72808 22.535C7.99036 25.3548 3.35834 27.5971 2.46069 29.361C1.78024 30.4058 1.37262 32.0586 2.52483 33.0331C5.30997 35.3865 4.24017 36.0343 5.63436 37.0687C7.54701 38.4873 9.93995 37.8519 10.7544 36.6981C11.8883 35.0903 11.5972 33.5738 11.1758 32.1553C10.8465 31.0461 9.95172 29.2032 8.84498 28.4902C7.71387 27.7611 6.61403 27.6248 5.68227 27.7223L5.76834 27.6215C7.10853 27.3505 8.50963 27.4992 9.5234 28.1643C10.6744 28.917 11.7271 30.2079 12.2777 32.1866C12.9021 32.0962 12.9902 32.0553 13.5618 31.9727L12.2748 21.779L14.9991 21.4712ZM15.7429 34.2484L15.5947 32.8348L18.489 28.3428L21.7747 29.3193L24.6001 24.5179L27.9869 26.7911L30.5601 21.3002L31.4748 31.3001L15.7429 34.2484ZM31.5089 19.2525L21.1674 21.1598C20.9112 21.4956 20.2778 22.0855 19.9733 22.2392C18.6672 22.9084 17.7846 22.7147 17.0217 22.5131C16.5313 22.3867 16.2471 22.3156 15.8399 22.1293L13.3158 22.4817L14.848 35.489L32.5637 32.2395L31.5089 19.2525Z" fill="white"/>
</g>
<defs>
<clipPath id="clip0_4864_17890">
<rect width="32.5" height="37.5" fill="white" transform="translate(0.0742188 0.393555)"/>
</clipPath>
</defs>
</svg>
