<svg width="40" height="40" viewBox="0 0 40 40" fill="none" xmlns="http://www.w3.org/2000/svg">
<path d="M39.3971 24.8381C36.726 35.5525 25.8741 42.0731 15.1584 39.4012C4.44722 36.7301 -2.07335 25.8775 0.598971 15.1639C3.26894 4.44838 14.1209 -2.07268 24.8332 0.598468C35.5481 3.26961 42.0683 14.1234 39.3969 24.8383L39.397 24.8381H39.3971Z" fill="#F3BA2F"/>
<path fill-rule="evenodd" clip-rule="evenodd" d="M19.9996 12.6937L14.8207 17.8725L14.8208 17.8723L11.8076 14.859L19.9996 6.66699L28.1943 14.8614L25.181 17.8748L19.9996 12.6937ZM9.67946 16.9868L6.66602 20.0007L9.67924 23.0135L12.6927 20L9.67946 16.9868ZM14.8201 22.1284L19.999 27.307L25.1802 22.126L28.1952 25.1377L28.1937 25.1393L19.999 33.3337L11.807 25.1417L11.8027 25.1374L14.8201 22.1284ZM30.3191 16.9884L27.3057 20.0019L30.319 23.0151L33.3323 20.0017L30.3191 16.9884Z" fill="white"/>
<path d="M23.055 19.9991H23.0563L19.9988 16.9414L17.7388 19.2007V19.2007L17.4792 19.4604L16.9437 19.996L16.9395 20.0002L16.9437 20.0046L19.9988 23.06L23.0565 20.0023L23.058 20.0006L23.0552 19.9991" fill="white"/>
</svg>
