<svg width="36" height="30" viewBox="0 0 36 30" fill="none" xmlns="http://www.w3.org/2000/svg">
<path d="M22.5 28.5V25.5C22.5 24.3065 22.0256 23.1623 21.1816 22.3184C20.3904 21.5271 19.3351 21.0609 18.2227 21.0059L18 21H7.5C6.30653 21 5.16227 21.4744 4.31836 22.3184C3.47445 23.1623 3 24.3065 3 25.5V28.5C3 29.3284 2.32843 30 1.5 30C0.671573 30 0 29.3284 0 28.5V25.5C0 23.5109 0.789766 21.6028 2.19629 20.1963C3.60281 18.7898 5.51088 18 7.5 18H18C19.9891 18 21.8972 18.7898 23.3037 20.1963C24.7102 21.6028 25.5 23.5109 25.5 25.5V28.5C25.5 29.3284 24.8284 30 24 30C23.1716 30 22.5 29.3284 22.5 28.5ZM28.5 18V15H25.5C24.6716 15 24 14.3284 24 13.5C24 12.6716 24.6716 12 25.5 12H28.5V9C28.5 8.17157 29.1716 7.5 30 7.5C30.8284 7.5 31.5 8.17157 31.5 9V12H34.5C35.3284 12 36 12.6716 36 13.5C36 14.3284 35.3284 15 34.5 15H31.5V18C31.5 18.8284 30.8284 19.5 30 19.5C29.1716 19.5 28.5 18.8284 28.5 18ZM17.25 7.5C17.25 5.01472 15.2353 3 12.75 3C10.2647 3 8.25 5.01472 8.25 7.5C8.25 9.98528 10.2647 12 12.75 12C15.2353 12 17.25 9.98528 17.25 7.5ZM20.25 7.5C20.25 11.6421 16.8921 15 12.75 15C8.60786 15 5.25 11.6421 5.25 7.5C5.25 3.35786 8.60786 0 12.75 0C16.8921 0 20.25 3.35786 20.25 7.5Z" fill="url(#paint0_linear_4880_20561)"/>
<defs>
<linearGradient id="paint0_linear_4880_20561" x1="18.6111" y1="1.49726" x2="18.6111" y2="28.5" gradientUnits="userSpaceOnUse">
<stop stop-color="white"/>
<stop offset="1" stop-color="#525866"/>
</linearGradient>
</defs>
</svg>
