<svg width="30" height="34" viewBox="0 0 30 34" fill="none" xmlns="http://www.w3.org/2000/svg">
<path fill-rule="evenodd" clip-rule="evenodd" d="M15 0.5C17.3869 0.5 19.6764 1.44791 21.3643 3.13574C23.0521 4.82357 24 7.11305 24 9.5V14H25.5C27.9853 14 30 16.0147 30 18.5V29C30 31.4853 27.9853 33.5 25.5 33.5H4.5C2.01472 33.5 0 31.4853 0 29V18.5C0 16.0147 2.01472 14 4.5 14H6V9.5C6 7.11305 6.94791 4.82357 8.63574 3.13574C10.3236 1.44791 12.6131 0.5 15 0.5ZM4.5 17C3.67157 17 3 17.6716 3 18.5V29C3 29.8284 3.67157 30.5 4.5 30.5H25.5C26.3284 30.5 27 29.8284 27 29V18.5C27 17.6716 26.3284 17 25.5 17H4.5ZM15 3.5C13.4087 3.5 11.883 4.13259 10.7578 5.25781C9.63259 6.38303 9 7.9087 9 9.5V14H21V9.5C21 7.9087 20.3674 6.38303 19.2422 5.25781C18.117 4.13259 16.5913 3.5 15 3.5Z" fill="url(#paint0_linear_4880_20586)"/>
<defs>
<linearGradient id="paint0_linear_4880_20586" x1="15.5" y1="15.4983" x2="15.5" y2="32" gradientUnits="userSpaceOnUse">
<stop stop-color="white"/>
<stop offset="1" stop-color="#525866"/>
</linearGradient>
</defs>
</svg>
