<svg width="37" height="36" viewBox="0 0 37 36" fill="none" xmlns="http://www.w3.org/2000/svg">
<path d="M27.5811 29.2695C28.2513 28.7826 29.1899 28.9314 29.6768 29.6016C30.1635 30.2717 30.0147 31.2093 29.3448 31.6963C26.2412 33.9512 22.5033 35.1659 18.667 35.166C14.8306 35.166 11.0921 33.9513 7.98833 31.6963C7.31844 31.2093 7.16958 30.2717 7.6563 29.6016C8.14323 28.9314 9.08179 28.7826 9.752 29.2695C12.3432 31.1521 15.4642 32.166 18.667 32.166C21.8697 32.1659 24.9901 31.152 27.5811 29.2695ZM18.1231 5.9092C18.4804 5.82362 18.8527 5.82362 19.21 5.9092L19.3877 5.959L19.5176 6.00588C19.8101 6.12302 20.0296 6.28832 20.1846 6.41994C20.3485 6.55903 20.5225 6.73435 20.67 6.88185L28.7842 14.9961L29.0186 15.2324C29.0982 15.3147 29.1766 15.3995 29.2461 15.4815C29.3778 15.6365 29.543 15.856 29.6602 16.1485L29.7071 16.2783L29.7569 16.4561C29.8425 16.8133 29.8425 17.1857 29.7569 17.543L29.7071 17.7207C29.5906 18.0791 29.3966 18.3413 29.2461 18.5186C29.1071 18.6823 28.9316 18.8555 28.7842 19.0029L20.67 27.1172C20.5225 27.2647 20.3485 27.44 20.1846 27.5791C20.0296 27.7107 19.8101 27.876 19.5176 27.9932L19.3877 28.0401C18.9777 28.1733 18.54 28.1897 18.1231 28.0899L17.9454 28.0401C17.5871 27.9236 17.3257 27.7295 17.1485 27.5791C17.0666 27.5096 16.9818 27.4312 16.8995 27.3516L16.6631 27.1172L8.54887 19.0029C8.40146 18.8555 8.22601 18.6823 8.08696 18.5186C7.9553 18.3635 7.79011 18.1433 7.6729 17.8506L7.62602 17.7207C7.47375 17.2521 7.47375 16.747 7.62602 16.2783L7.6729 16.1485C7.79007 15.856 7.95535 15.6365 8.08696 15.4815C8.22605 15.3176 8.40137 15.1436 8.54887 14.9961L16.6631 6.88185L16.8995 6.64748C16.9817 6.56788 17.0666 6.48945 17.1485 6.41994C17.3257 6.26952 17.5871 6.07542 17.9454 5.959L18.1231 5.9092ZM10.7872 16.999L18.6661 24.8779L26.545 16.999L18.6661 9.12013L10.7872 16.999ZM10.7032 0.670915C11.4477 0.308001 12.3459 0.617842 12.709 1.36232C13.0719 2.10683 12.7621 3.00508 12.0176 3.36818C9.13921 4.77222 6.77901 7.05122 5.27544 9.87892C3.86579 12.5301 3.27709 15.536 3.57622 18.5147L3.64751 19.1104L3.66118 19.2627C3.69063 20.0226 3.14036 20.6966 2.37114 20.8047C1.60212 20.9128 0.88752 20.4169 0.7061 19.6787L0.676803 19.5274L0.590866 18.8145C0.232563 15.2466 0.938518 11.6463 2.627 8.47072C4.4281 5.08345 7.25508 2.35266 10.7032 0.670915ZM24.625 1.36232C24.9656 0.664233 25.7758 0.348659 26.4893 0.611344L26.6299 0.671891L27.2696 0.99904C30.4279 2.69714 33.0186 5.2951 34.7071 8.47072L35.0313 9.11134C36.5884 12.3416 37.1569 15.9666 36.6563 19.5283C36.5408 20.3485 35.7822 20.92 34.962 20.8047C34.1418 20.6893 33.5703 19.9306 33.6856 19.1104C34.1035 16.1369 33.6291 13.1109 32.3291 10.4141L32.0577 9.87892C30.648 7.22788 28.4854 5.05922 25.8487 3.64162L25.3155 3.36818L25.1807 3.29396C24.5345 2.89336 24.2846 2.0604 24.625 1.36232Z" fill="url(#gradient-crypto)"/>
<defs>
<linearGradient id="gradient-crypto" x1="19.2839" y1="2.01634" x2="19.2839" y2="33.6663" gradientUnits="userSpaceOnUse">
<stop stop-color="white"/>
<stop offset="1" stop-color="#525866"/>
</linearGradient>
</defs>
</svg>
