<svg width="40" height="40" viewBox="0 0 40 40" fill="none" xmlns="http://www.w3.org/2000/svg">
<circle cx="20" cy="20" r="20" fill="#EDF0F4"/>
<path d="M26.0035 15.9825C25.577 15.7372 25.0287 15.7372 24.5413 15.9825L21.1297 18.0063L18.8146 19.2941L15.4639 21.3178C15.0374 21.5631 14.4891 21.5631 14.0017 21.3178L11.3821 19.7234C10.9556 19.4781 10.651 18.9875 10.651 18.4356V15.3693C10.651 14.8787 10.8947 14.3881 11.3821 14.0814L14.0017 12.5483C14.4282 12.303 14.9765 12.303 15.4639 12.5483L18.0835 14.1428C18.51 14.3881 18.8146 14.8787 18.8146 15.4306V17.4543L21.1297 16.1052V14.0201C21.1297 13.5295 20.886 13.0389 20.3986 12.7323L15.5248 9.84999C15.0983 9.60469 14.55 9.60469 14.0627 9.84999L9.06701 12.7936C8.57963 13.0389 8.33594 13.5295 8.33594 14.0201V19.7847C8.33594 20.2753 8.57963 20.7659 9.06701 21.0725L14.0017 23.9548C14.4282 24.2001 14.9765 24.2001 15.4639 23.9548L18.8146 21.9924L21.1297 20.6433L24.4804 18.6809C24.9069 18.4356 25.4552 18.4356 25.9426 18.6809L28.5622 20.214C28.9887 20.4593 29.2933 20.9499 29.2933 21.5018V24.5681C29.2933 25.0587 29.0496 25.5493 28.5622 25.8559L26.0035 27.3891C25.577 27.6344 25.0287 27.6344 24.5413 27.3891L21.9217 25.8559C21.4952 25.6106 21.1906 25.12 21.1906 24.5681V22.6057L18.8755 23.9548V25.9786C18.8755 26.4692 19.1192 26.9598 19.6066 27.2664L24.5413 30.1487C24.9678 30.394 25.5161 30.394 26.0035 30.1487L30.9382 27.2664C31.3647 27.0211 31.6693 26.5305 31.6693 25.9786V20.1527C31.6693 19.6621 31.4256 19.1715 30.9382 18.8648L26.0035 15.9825Z" fill="#8247E5"/>
</svg>
