<svg width="17" height="18" viewBox="0 0 17 18" fill="none" xmlns="http://www.w3.org/2000/svg">
<path d="M16.7989 9.03105C16.7989 4.52716 13.1612 0.875977 8.67389 0.875977C4.18658 0.875977 0.548828 4.52716 0.548828 9.03105C0.548828 12.8554 3.17225 16.0646 6.7112 16.946V11.5232H5.03581V9.03105H6.7112V7.95719C6.7112 5.18153 7.96278 3.89498 10.6779 3.89498C11.1927 3.89498 12.0809 3.99643 12.4442 4.09756V6.35651C12.2525 6.33629 11.9194 6.32617 11.5056 6.32617C10.1734 6.32617 9.65865 6.83277 9.65865 8.14965V9.03105H12.3126L11.8566 11.5232H9.65865V17.1264C13.6819 16.6387 16.7993 13.2006 16.7993 9.03105H16.7989Z" fill="#0866FF"/>
<path d="M11.8311 11.5341L12.2927 9.07298H9.60588V8.20257C9.60588 6.90212 10.1271 6.40184 11.4758 6.40184C11.8946 6.40184 12.2319 6.41183 12.426 6.4318V4.20102C12.0581 4.10084 11.1589 4.00098 10.6377 4.00098C7.88901 4.00098 6.62192 5.27147 6.62192 8.01251V9.07298H4.92578V11.5341H6.62192V16.8892C7.25826 17.0439 7.92389 17.1263 8.60893 17.1263C8.94618 17.1263 9.27883 17.106 9.60555 17.0674V11.5341H11.8308H11.8311Z" fill="white"/>
</svg>
