<svg width="40" height="40" viewBox="0 0 40 40" fill="none" xmlns="http://www.w3.org/2000/svg">
<circle cx="20" cy="20" r="20" fill="black"/>
<path d="M12.3996 24.738C12.5382 24.5994 12.7288 24.5186 12.9309 24.5186H31.2601C31.595 24.5186 31.7625 24.9228 31.5257 25.1596L27.9049 28.7803C27.7663 28.9189 27.5758 28.9998 27.3737 28.9998H9.04449C8.70956 28.9998 8.54209 28.5956 8.77885 28.3588L12.3996 24.738Z" fill="url(#paint0_linear_4867_28156)"/>
<path d="M27.9049 17.9353C27.7663 17.7967 27.5758 17.7158 27.3737 17.7158H9.04449C8.70956 17.7158 8.54209 18.1201 8.77885 18.3568L12.3996 21.9776C12.5382 22.1162 12.7288 22.1971 12.9309 22.1971H31.2601C31.595 22.1971 31.7625 21.7928 31.5257 21.5561L27.9049 17.9353Z" fill="url(#paint1_linear_4867_28156)"/>
<path d="M12.3996 11.2194C12.544 11.0808 12.7346 11 12.9309 11H31.2601C31.595 11 31.7625 11.4042 31.5257 11.641L27.9049 15.2618C27.7663 15.4004 27.5758 15.4812 27.3737 15.4812H9.04449C8.70956 15.4812 8.54209 15.077 8.77885 14.8402L12.3996 11.2194Z" fill="url(#paint2_linear_4867_28156)"/>
<defs>
<linearGradient id="paint0_linear_4867_28156" x1="-32.7591" y1="7.59937" x2="-33.2468" y2="32.1391" gradientUnits="userSpaceOnUse">
<stop stop-color="#00FFA3"/>
<stop offset="1" stop-color="#DC1FFF"/>
</linearGradient>
<linearGradient id="paint1_linear_4867_28156" x1="-35.5501" y1="6.14219" x2="-36.0378" y2="30.6819" gradientUnits="userSpaceOnUse">
<stop stop-color="#00FFA3"/>
<stop offset="1" stop-color="#DC1FFF"/>
</linearGradient>
<linearGradient id="paint2_linear_4867_28156" x1="-38.3058" y1="4.70375" x2="-38.7935" y2="29.2435" gradientUnits="userSpaceOnUse">
<stop stop-color="#00FFA3"/>
<stop offset="1" stop-color="#DC1FFF"/>
</linearGradient>
</defs>
</svg>
