<svg width="17" height="18" viewBox="0 0 17 18" fill="none" xmlns="http://www.w3.org/2000/svg">
<path d="M8.96484 7.52271V10.6694H13.3377C13.1457 11.6814 12.5694 12.5382 11.7052 13.1144L14.3422 15.1605C15.8786 13.7423 16.765 11.6593 16.765 9.18477C16.765 8.60863 16.7133 8.05458 16.6173 7.52279L8.96484 7.52271Z" fill="#4285F4"/>
<path d="M4.41089 10.5467L3.81615 11.002L1.71094 12.6418C3.04791 15.2935 5.78813 17.1254 8.96434 17.1254C11.1581 17.1254 12.9973 16.4015 14.3417 15.1606L11.7047 13.1145C10.9808 13.602 10.0575 13.8975 8.96434 13.8975C6.85179 13.8975 5.0569 12.4719 4.41422 10.5514L4.41089 10.5467Z" fill="#34A853"/>
<path d="M1.7114 5.35849C1.15743 6.45166 0.839844 7.68524 0.839844 9.00003C0.839844 10.3148 1.15743 11.5484 1.7114 12.6416C1.7114 12.6489 4.41494 10.5438 4.41494 10.5438C4.25243 10.0563 4.15638 9.53924 4.15638 8.99995C4.15638 8.46065 4.25243 7.94362 4.41494 7.45611L1.7114 5.35849Z" fill="#FBBC05"/>
<path d="M8.96451 4.11008C10.1612 4.11008 11.2248 4.52372 12.0743 5.32148L14.401 2.99474C12.9902 1.67994 11.1584 0.874756 8.96451 0.874756C5.7883 0.874756 3.04791 2.69924 1.71094 5.35842L4.41439 7.45622C5.05699 5.53568 6.85195 4.11008 8.96451 4.11008Z" fill="#EA4335"/>
</svg>
