<svg width="25" height="36" viewBox="0 0 25 36" fill="none" xmlns="http://www.w3.org/2000/svg">
<g clip-path="url(#clip0_4867_28261)">
<path fill-rule="evenodd" clip-rule="evenodd" d="M24.5729 17.3843C24.5729 24.2191 19.156 29.7598 12.4739 29.7598C5.7919 29.7598 0.375 24.2191 0.375 17.3843C0.375 10.5494 5.7919 5.00863 12.4739 5.00863C19.156 5.00863 24.5729 10.5494 24.5729 17.3843Z" fill="#D33833"/>
<path d="M0.868009 20.4492C0.868009 20.4492 -0.00787237 7.54366 11.8838 7.17488L11.0542 5.79214L4.60142 7.95848L2.75772 10.0786L1.14456 13.1669L0.222656 16.762L0.499205 19.1587" fill="#EF3D3A"/>
<path d="M4.18809 8.94202C2.06531 11.114 0.751705 14.1129 0.751705 17.4305C0.751705 20.7475 2.06531 23.7468 4.18809 25.9184C6.31191 28.09 9.23883 29.43 12.4747 29.43C15.7106 29.43 18.6377 28.09 20.7613 25.9184C22.884 23.7468 24.1979 20.7475 24.1979 17.4305C24.1979 14.1129 22.884 11.114 20.7613 8.94202C18.6377 6.77084 15.7106 5.43082 12.4747 5.43054C9.23883 5.43082 6.31191 6.77084 4.18809 8.94202ZM3.65076 26.4437C1.39473 24.1365 0 20.9478 0 17.4305C0 13.9127 1.39473 10.7244 3.65076 8.41699C5.90626 6.10919 9.02846 4.67875 12.4747 4.67916C15.9209 4.67875 19.0434 6.10919 21.2985 8.41699C23.5548 10.7244 24.9497 13.913 24.9494 17.4305C24.9497 20.9478 23.5548 24.1365 21.2985 26.4437C19.0434 28.7514 15.9209 30.1816 12.4747 30.1816C9.02846 30.1816 5.90626 28.7514 3.65076 26.4437Z" fill="#231F20"/>
<path fill-rule="evenodd" clip-rule="evenodd" d="M17.5683 17.4516L15.7245 17.7282L13.2356 18.0047L11.6223 18.0508L10.0553 18.0047L8.85682 17.636L7.7967 16.4837L6.96705 14.1331L6.7827 13.626L5.67651 13.2574L5.03121 12.1972L4.57031 10.6762L5.07739 9.3395L6.27568 8.92467L7.2436 9.38568L7.7046 10.3996L8.2577 10.3074L8.44199 10.0771L8.2577 9.0169L8.21152 7.68021L8.48807 5.83659L8.47727 4.7835L9.31771 3.43988L10.7927 2.37973L13.3739 1.27354L16.2315 1.68836L18.7204 3.48593L19.8728 5.32954L20.6102 6.66624L20.7945 9.98482L20.2414 12.8425L19.2274 15.3775L18.2595 16.7142" fill="#F0D6B7"/>
<path fill-rule="evenodd" clip-rule="evenodd" d="M16.0017 25.4267L9.41054 25.7033V26.8095L9.96364 30.6812L9.68709 31.0039L5.07802 29.4367L4.75529 28.8836L4.29439 23.6754L3.23444 20.5411L3.00391 19.8037L6.69113 17.2687L7.84351 16.8077L8.85745 18.0522L9.73317 18.8358L10.7473 19.1584L11.2081 19.2966L11.7612 21.6933L12.176 22.2004L13.2362 21.8316L12.4987 23.2605L16.5086 25.1502L16.0017 25.4267Z" fill="#335061"/>
<path fill-rule="evenodd" clip-rule="evenodd" d="M5.07899 9.34024L6.27727 8.92542L7.2452 9.38643L7.7062 10.4004L8.2593 10.3082L8.39757 9.75507L8.12102 8.69505L8.39757 6.15993L8.16704 4.77719L8.99669 3.80927L10.7943 2.38048L10.2872 1.68911L7.75222 2.93358L6.6921 3.76322L6.09293 5.05374L5.17108 6.29821L4.89453 7.77318L5.07899 9.34024Z" fill="#6D6B6D"/>
<path fill-rule="evenodd" clip-rule="evenodd" d="M6.96626 5.00738C6.96626 5.00738 7.65763 3.30204 10.4231 2.4724C13.1886 1.64275 10.5614 1.87312 10.5614 1.87312L7.56554 3.02549L6.41316 4.17773L5.90625 5.09961L6.96626 5.00738Z" fill="#DCD9D8"/>
<path fill-rule="evenodd" clip-rule="evenodd" d="M5.5859 9.01725C5.5859 9.01725 4.61798 5.79076 8.30532 5.32989L8.16704 4.77679L5.63209 5.37607L4.89453 7.77278L5.07899 9.33984L5.5859 9.01725Z" fill="#DCD9D8"/>
<path fill-rule="evenodd" clip-rule="evenodd" d="M7.05859 13.3046L7.66209 12.7198C7.66209 12.7198 7.93448 12.7515 7.9805 13.0741C8.02651 13.3968 8.16479 16.3006 10.1467 17.8678C10.3275 18.0108 8.67187 17.6371 8.67187 17.6371L7.19687 15.3327" fill="#F7E4CD"/>
<path fill-rule="evenodd" clip-rule="evenodd" d="M15.5413 12.4277C15.5413 12.4277 15.6488 11.0306 16.025 11.138C16.4013 11.2455 16.4013 11.6217 16.4013 11.6217C16.4013 11.6217 15.4876 12.2129 15.5413 12.4277Z" fill="#F7E4CD"/>
<path d="M19.3648 7.31333C19.3648 7.31333 18.6051 7.47373 18.5351 8.14298C18.4652 8.81237 19.3648 8.28125 19.503 8.23521" fill="#F7E4CD"/>
<path d="M13.7875 7.35773C13.7875 7.35773 12.7734 7.496 12.7734 8.14119C12.7734 8.78652 13.9258 8.74047 14.2484 8.46392" fill="#F7E4CD"/>
<path fill-rule="evenodd" clip-rule="evenodd" d="M7.51929 10.3537C7.51929 10.3537 5.76774 9.2935 5.58345 10.3076C5.3991 11.3216 4.98417 12.0591 5.86 13.1191L5.26083 12.9348L4.70773 11.506L4.52344 10.1233L5.58345 9.01695L6.78184 9.10918L7.47322 9.66228L7.51929 10.3537Z" fill="#F7E4CD"/>
<path fill-rule="evenodd" clip-rule="evenodd" d="M8.34762 7.45117C8.34762 7.45117 9.13119 3.39517 13.0951 2.61157C16.3586 1.96652 18.0729 2.74984 18.7182 3.48726C18.7182 3.48726 15.8145 0.0305411 13.0489 1.09055C10.2835 2.1507 8.25553 4.08654 8.30155 5.33087C8.38003 7.45034 8.34762 7.45117 8.34762 7.45117Z" fill="#F7E4CD"/>
<path fill-rule="evenodd" clip-rule="evenodd" d="M19.0429 3.94773C19.0429 3.94773 17.7063 3.90169 17.6602 5.10011C17.6602 5.10011 17.66 5.28443 17.7522 5.46875C17.7522 5.46875 18.8125 4.27033 19.4577 4.91565" fill="#F7E4CD"/>
<path fill-rule="evenodd" clip-rule="evenodd" d="M13.1911 5.59371C13.1911 5.59371 12.961 3.75424 11.3927 4.82366C10.3787 5.51503 10.471 6.48295 10.6553 6.66727C10.8396 6.85173 10.7895 7.22299 10.9299 6.96815C11.0701 6.71331 11.0239 5.88367 11.531 5.6533C12.038 5.4228 12.8692 5.16533 13.1911 5.59371Z" fill="#F7E4CD"/>
<path fill-rule="evenodd" clip-rule="evenodd" d="M8.85745 18.0513L4.52492 19.9871C4.52492 19.9871 6.32249 27.1314 5.40059 29.3438L4.75529 29.1134L4.70922 26.3939L3.51099 21.2317L3.00391 19.8028L7.52078 16.7609L8.85745 18.0513Z" fill="#49728B"/>
<path fill-rule="evenodd" clip-rule="evenodd" d="M9.30091 22.0041L9.91558 22.754V25.5195H9.17803C9.17803 25.5195 9.08594 23.5837 9.08594 23.3532C9.08594 23.1227 9.17803 22.293 9.17803 22.293" fill="#49728B"/>
<path fill-rule="evenodd" clip-rule="evenodd" d="M9.3163 25.9325L7.24219 26.0246L7.84147 26.4394L9.3163 26.6699" fill="#49728B"/>
<path fill-rule="evenodd" clip-rule="evenodd" d="M16.4141 25.4717L18.1194 25.4256L18.5342 29.6661L16.7827 29.8965L16.4141 25.4717Z" fill="#335061"/>
<path fill-rule="evenodd" clip-rule="evenodd" d="M16.875 25.4727L19.4562 25.3344C19.4562 25.3344 20.5162 22.6611 20.5162 22.5228C20.5162 22.3845 21.4381 18.6512 21.4381 18.6512L19.3639 16.485L18.9491 16.1162L17.8429 17.2224V21.5089L16.875 25.4727Z" fill="#335061"/>
<path fill-rule="evenodd" clip-rule="evenodd" d="M18.0272 25.1489L16.4141 25.4715L16.6444 26.7622C17.2436 27.0387 18.2577 26.3012 18.2577 26.3012" fill="#49728B"/>
<path fill-rule="evenodd" clip-rule="evenodd" d="M18.0742 17.0838L21.3006 19.4805L21.3928 18.3743L18.9499 16.1158L18.0742 17.0838Z" fill="#49728B"/>
<path fill-rule="evenodd" clip-rule="evenodd" d="M10.9175 34.5528L9.96325 30.6805L9.48864 27.8234L9.41016 25.7027L13.7291 25.4727L16.4162 25.4723L16.1718 30.3123L16.5866 34.0458L16.5406 34.7371L13.0378 35.0137L10.9175 34.5528Z" fill="white"/>
<path fill-rule="evenodd" clip-rule="evenodd" d="M15.817 25.4259C15.817 25.4259 15.5867 30.2195 16.2781 33.6301C16.2781 33.6301 14.8953 34.506 12.8672 34.7363L16.7389 34.5981L17.1998 34.3215L16.6467 26.7626L16.5084 25.1492" fill="#DCD9D8"/>
<path fill-rule="evenodd" clip-rule="evenodd" d="M18.6145 29.2988L20.412 28.7918L23.8227 28.6075L24.3298 27.0404L23.4079 24.321L22.3479 24.1827L20.8729 24.6436L19.4578 25.3345L18.7065 25.1967L18.1211 25.4267" fill="white"/>
<path fill-rule="evenodd" clip-rule="evenodd" d="M18.582 28.3758C18.582 28.3758 19.7803 27.8228 19.9648 27.8689L19.4579 25.3338L20.057 25.1034C20.057 25.1034 20.4718 27.5001 20.4718 27.7767C20.4718 27.7767 23.0529 27.9149 23.2834 27.9149C23.2834 27.9149 23.8365 26.8548 23.6982 25.7486L24.2052 27.2236L24.2513 28.0532L23.5139 29.1594L22.6842 29.3438L21.3015 29.2977L20.8406 28.6986L19.2274 28.9289L18.7203 29.1134" fill="#DCD9D8"/>
<path d="M16.7694 25.1035L15.7555 22.5223L14.6953 21.0013C14.6953 21.0013 14.9257 20.356 15.2484 20.356C15.5711 20.356 16.3086 20.356 16.3086 20.356L17.3225 20.7248L17.2304 22.4301L16.7694 25.1035Z" fill="white"/>
<path fill-rule="evenodd" clip-rule="evenodd" d="M16.9679 24.2284C16.9679 24.2284 15.6772 21.7396 15.6772 21.3709C15.6772 21.3709 15.9076 20.8178 16.2303 20.956C16.553 21.0943 17.2444 21.463 17.2444 21.463V20.5873L15.6772 20.2645L14.6172 20.4028L16.4148 24.6433L16.7834 24.6895" fill="#DCD9D8"/>
<path d="M11.3308 18.1447L10.0539 18.0059L8.85547 17.6371V18.052L9.44103 18.6977L11.2847 19.5273" fill="white"/>
<path fill-rule="evenodd" clip-rule="evenodd" d="M9.27109 18.2833C9.27109 18.2833 10.7 18.8826 11.1609 18.7443L11.2068 19.2969L9.91644 19.0209L9.13281 18.4678L9.27109 18.2833Z" fill="#DCD9D8"/>
<path fill-rule="evenodd" clip-rule="evenodd" d="M18.6101 20.5137C17.828 20.4907 17.1214 20.3978 16.5028 20.2233C16.5448 19.9697 16.4662 19.7208 16.5293 19.5381C16.7018 19.414 16.9908 19.4159 17.2514 19.3867C17.026 19.276 16.7094 19.2321 16.4493 19.2962C16.4432 19.1201 16.3642 19.011 16.3164 18.8733C16.7561 18.7164 17.7941 17.6875 18.3781 18.0282C18.6563 18.1902 18.7745 19.1159 18.7961 19.5659C18.8141 19.9393 18.7622 20.3159 18.6101 20.5137Z" fill="#D33833"/>
<path d="M18.6101 20.5137C17.828 20.4907 17.1214 20.3978 16.5028 20.2233C16.5448 19.9697 16.4662 19.7208 16.5293 19.5381C16.7018 19.414 16.9908 19.4159 17.2514 19.3867C17.026 19.276 16.7094 19.2321 16.4493 19.2962C16.4432 19.1201 16.3642 19.011 16.3164 18.8733C16.7561 18.7164 17.7941 17.6875 18.3781 18.0282C18.6563 18.1902 18.7745 19.1159 18.7961 19.5659C18.8141 19.9393 18.7622 20.3159 18.6101 20.5137Z" stroke="#D33833" stroke-width="0.442478"/>
<path fill-rule="evenodd" clip-rule="evenodd" d="M14.8701 19.2344C14.868 19.2936 14.8655 19.3532 14.8631 19.4129C14.6189 19.5733 14.2247 19.5714 13.9568 19.7062C14.3518 19.7235 14.6628 19.8186 14.9319 19.9527C14.9259 20.1018 14.9202 20.2507 14.9144 20.3998C14.4668 20.7062 14.058 21.1625 13.531 21.4498C13.2818 21.5857 12.4073 21.9354 12.1422 21.8736C11.9922 21.8388 11.9787 21.6526 11.9188 21.4772C11.791 21.1015 11.4969 20.5035 11.4713 19.9379C11.4386 19.2236 11.3665 18.0264 12.1363 18.1735C12.7573 18.292 13.4797 18.5781 13.9605 18.8409C14.2543 19.0015 14.4243 19.2001 14.8701 19.2344Z" fill="#D33833"/>
<path d="M14.8701 19.2344C14.868 19.2936 14.8655 19.3532 14.8631 19.4129C14.6189 19.5733 14.2247 19.5714 13.9568 19.7062C14.3518 19.7235 14.6628 19.8186 14.9319 19.9527C14.9259 20.1018 14.9202 20.2507 14.9144 20.3998C14.4668 20.7062 14.058 21.1625 13.531 21.4498C13.2818 21.5857 12.4073 21.9354 12.1422 21.8736C11.9922 21.8388 11.9787 21.6526 11.9188 21.4772C11.791 21.1015 11.4969 20.5035 11.4713 19.9379C11.4386 19.2236 11.3665 18.0264 12.1363 18.1735C12.7573 18.292 13.4797 18.5781 13.9605 18.8409C14.2543 19.0015 14.4243 19.2001 14.8701 19.2344Z" stroke="#D33833" stroke-width="0.442478"/>
<path fill-rule="evenodd" clip-rule="evenodd" d="M15.3149 20.0873C15.2466 19.6982 15.1676 19.5871 15.1982 19.2477C16.2359 18.5557 16.4308 20.4361 15.3149 20.0873Z" fill="#D33833"/>
<path d="M15.3149 20.0873C15.2466 19.6982 15.1676 19.5871 15.1982 19.2477C16.2359 18.5557 16.4308 20.4361 15.3149 20.0873Z" stroke="#D33833" stroke-width="0.442478"/>
<path fill-rule="evenodd" clip-rule="evenodd" d="M16.8172 20.4023C16.8172 20.4023 16.4945 19.9413 16.725 19.8031C16.9555 19.6648 17.186 19.8032 17.3243 19.5727C17.4625 19.3422 17.3243 19.2039 17.3703 18.9274C17.4163 18.6508 17.647 18.6046 17.8774 18.5586C18.1077 18.5125 18.7532 18.4203 18.8453 18.6508L18.5687 17.8212L18.0156 17.6369L16.2641 18.6508L16.1719 19.1579V20.1718" fill="#EF3D3A"/>
<path fill-rule="evenodd" clip-rule="evenodd" d="M11.9776 21.9238C11.9222 21.2045 11.8636 20.4862 11.7984 19.7676C11.7009 18.6946 12.0562 18.8818 12.9863 18.8818C13.1284 18.8818 13.861 19.0512 13.9134 19.1583C14.1648 19.6717 13.4931 19.5577 14.203 19.9448C14.8022 20.2716 15.8609 19.7464 15.6187 19.0201C15.4832 18.8585 14.9127 18.9697 14.7082 18.8637C14.3481 18.677 13.9881 18.4903 13.628 18.3037C13.1698 18.066 12.111 17.7194 11.6226 18.0516C10.3849 18.8933 11.7007 20.9963 12.1422 21.8743" fill="#EF3D3A"/>
<path fill-rule="evenodd" clip-rule="evenodd" d="M13.1914 5.5943C11.9351 5.30171 11.3109 6.12002 10.9301 6.96875C10.5901 6.88634 10.7254 6.42395 10.8113 6.18833C11.0362 5.56997 11.9423 4.74682 12.6828 4.85841C13.0014 4.90639 13.4326 5.19773 13.1914 5.5943Z" fill="#231F20"/>
<path fill-rule="evenodd" clip-rule="evenodd" d="M19.3101 7.02358C19.3299 7.02441 19.3499 7.0251 19.3697 7.02593C19.6536 7.61567 19.8993 8.24039 20.2574 8.76099C20.0175 9.31976 18.4408 9.81423 18.4651 8.81091C18.8061 8.66185 19.3947 8.78049 19.697 8.59009C19.5222 8.11041 19.27 7.70209 19.3101 7.02358Z" fill="#231F20"/>
<path fill-rule="evenodd" clip-rule="evenodd" d="M13.8346 7.03971C14.104 7.53349 14.1916 8.05229 14.5745 8.42549C14.7469 8.5935 15.0822 8.79828 14.916 9.26551C14.8772 9.37571 14.5933 9.62143 14.4295 9.66969C13.8309 9.8464 12.4361 9.70619 12.9084 8.95992C13.4034 8.98301 14.0688 9.28141 14.4389 8.92204C14.1547 8.4678 13.6481 7.56916 13.8346 7.03971Z" fill="#231F20"/>
<path fill-rule="evenodd" clip-rule="evenodd" d="M19.0846 12.0587C18.1834 12.6377 17.1784 13.2672 15.7016 13.1212C15.3861 12.8469 15.2658 12.2364 15.5723 11.8332C15.7319 12.1075 15.6317 12.6121 16.0764 12.688C16.9143 12.8314 17.8895 12.1754 18.4923 11.9462C18.866 11.316 18.4601 11.0843 18.1234 10.6787C17.4341 9.84784 16.5094 8.81798 16.543 7.57406C16.8216 7.37204 16.8457 7.88241 16.8857 7.97533C17.2456 8.8177 18.1514 9.895 18.8125 10.616C18.9749 10.7935 19.2421 10.9639 19.2719 11.0813C19.3576 11.4227 19.0488 11.8317 19.0846 12.0587Z" fill="#231F20"/>
<path fill-rule="evenodd" clip-rule="evenodd" d="M7.20292 11.4479C6.92042 11.2867 6.85318 10.5765 6.52153 10.5563C6.04757 10.5275 6.13399 11.4776 6.13588 12.0332C5.80964 11.737 5.75227 10.8251 5.99194 10.3568C5.71879 10.2226 5.59682 10.5047 5.44531 10.6041C5.64003 9.18959 7.51457 9.94803 7.20292 11.4479Z" fill="#231F20"/>
<path fill-rule="evenodd" clip-rule="evenodd" d="M19.6609 12.648C19.2414 13.4466 18.6479 14.326 17.4168 14.3516C17.3918 14.0937 17.3726 13.7013 17.4182 13.546C18.3593 13.4555 18.9403 12.9766 19.6609 12.648Z" fill="#231F20"/>
<path fill-rule="evenodd" clip-rule="evenodd" d="M13.7617 13.1639C14.5469 13.5768 15.9899 13.6212 17.0571 13.59C17.1144 13.8238 17.113 14.1126 17.1152 14.3978C15.7434 14.4662 14.1214 14.1267 13.7617 13.1639Z" fill="#231F20"/>
<path fill-rule="evenodd" clip-rule="evenodd" d="M13.6107 13.9347C14.1537 15.2979 16.0199 15.141 17.5936 15.1034C17.5243 15.2804 17.3741 15.4894 17.1874 15.5651C16.6832 15.7703 15.2923 15.926 14.5922 15.5542C14.1482 15.3181 13.8629 14.7848 13.6197 14.4722C13.5022 14.3212 12.9172 13.9355 13.6107 13.9347Z" fill="#231F20"/>
<path fill-rule="evenodd" clip-rule="evenodd" d="M19.0184 21.4542C18.3812 22.5455 17.7716 23.6663 17.0156 24.6289C17.3325 23.6971 17.4682 22.1374 17.516 20.9484C18.1791 20.6381 18.7468 21.0183 19.0184 21.4542Z" fill="#81B0C4"/>
<path fill-rule="evenodd" clip-rule="evenodd" d="M22.4496 25.3763C21.7362 25.5191 21.235 26.2124 20.5391 26.1679C20.9215 25.6287 21.5917 25.4014 22.4496 25.3763Z" fill="#231F20"/>
<path fill-rule="evenodd" clip-rule="evenodd" d="M22.7643 26.4928C22.1828 26.5542 21.4999 26.6484 20.9102 26.5999C21.1893 26.1734 22.265 26.3206 22.7643 26.4928Z" fill="#231F20"/>
<path fill-rule="evenodd" clip-rule="evenodd" d="M22.9657 27.4556C22.3123 27.4698 21.5 27.4567 20.8789 27.4046C21.2463 27.01 22.5419 27.2582 22.9657 27.4556Z" fill="#231F20"/>
<path fill-rule="evenodd" clip-rule="evenodd" d="M17.79 30.0904C17.8837 30.911 18.2091 31.7426 18.1683 32.6414C17.807 32.7632 17.5994 32.8698 17.1153 32.8691C17.0812 32.1053 16.979 30.9376 17.0095 30.2094C17.2476 30.2252 17.5987 30.0393 17.79 30.0904Z" fill="#DCD9D8"/>
<path fill-rule="evenodd" clip-rule="evenodd" d="M16.739 17.9935C16.4108 18.2077 16.1314 18.4751 15.8163 18.7039C15.1174 18.7384 14.7361 18.6555 14.2227 18.2542C14.2311 18.222 14.2827 18.2363 14.2846 18.1968C15.0327 18.5302 15.9836 18.061 16.739 17.9935Z" fill="#F0D6B7"/>
<path fill-rule="evenodd" clip-rule="evenodd" d="M12.8086 23.0943C13.0141 22.2037 13.8195 21.7424 14.5508 21.252C15.3056 22.21 15.7647 23.442 16.2702 24.6309C15.0758 24.2708 13.8554 23.6866 12.8086 23.0943Z" fill="#81B0C4"/>
<path fill-rule="evenodd" clip-rule="evenodd" d="M17.0115 30.2086C16.9809 30.9367 17.0831 32.1044 17.1173 32.8683C17.6014 32.8689 17.8089 32.7624 18.1702 32.6405C18.211 31.7417 17.8857 30.9102 17.7919 30.0895C17.6007 30.0385 17.2496 30.2243 17.0115 30.2086ZM9.47358 26.0674C9.7928 29.002 10.2551 31.4689 11.1032 34.0675C12.9853 34.639 15.2542 34.6888 16.9177 34.1731C16.6123 32.7065 16.7457 30.9208 16.5672 29.3557C16.4327 28.1793 16.5013 26.9956 16.3168 25.7954C14.301 25.376 11.4518 25.6974 9.47358 26.0674ZM16.7934 25.8138C16.7764 27.0742 16.8498 28.3174 16.9461 29.5793C17.43 29.5067 17.7584 29.4581 18.2081 29.3596C18.0621 28.1447 18.0801 26.7777 17.7826 25.703C17.4389 25.7063 17.1362 25.699 16.7934 25.8138ZM19.2485 25.6107C19.0188 25.558 18.7514 25.6086 18.5319 25.6129C18.6351 26.6403 18.8854 27.774 18.9735 28.8524C19.3187 28.8631 19.5032 28.7003 19.7872 28.6455C19.8024 27.6989 19.7045 26.3947 19.2485 25.6107ZM22.9659 29.0071C23.6856 28.8323 24.1381 27.9508 23.9368 27.0455C23.8017 26.4371 23.5611 25.2915 23.3037 24.9023C23.1134 24.6144 22.5975 24.2375 22.1856 24.5013C21.5155 24.9304 20.335 25.0549 19.8464 25.5743C20.0914 26.3901 20.1675 27.5107 20.2685 28.5444C21.1056 28.5966 22.1357 28.314 22.8319 28.6139C22.3458 28.7713 21.7152 28.7726 21.2952 29.002C21.6384 29.1678 22.4419 29.1343 22.9659 29.0071ZM16.273 24.6302C15.7674 23.4413 15.3084 22.2093 14.5535 21.2513C13.8222 21.7417 13.0169 22.203 12.8113 23.0936C13.8581 23.6859 15.0785 24.2701 16.273 24.6302ZM17.5191 20.9486C17.4712 22.1376 17.3356 23.6972 17.0187 24.6291C17.7746 23.6665 18.3843 22.5457 19.0214 21.4544C18.7499 21.0184 18.1821 20.6383 17.5191 20.9486ZM16.1065 20.4467C15.8201 20.4158 15.577 20.7759 15.2047 20.6202C15.1193 20.7145 15.0418 20.8167 14.9548 20.9088C15.7772 21.8999 16.151 23.3062 16.7862 24.471C17.1271 23.3521 17.0878 22.1263 17.1629 20.9051C16.6946 20.9348 16.4347 20.4815 16.1065 20.4467ZM15.1982 19.2478C15.1676 19.5873 15.2465 19.6983 15.3149 20.0874C16.4307 20.4363 16.2359 18.5559 15.1982 19.2478ZM13.9607 18.8416C13.4799 18.5789 12.7576 18.2928 12.1366 18.1743C11.3668 18.027 11.4389 19.2243 11.4715 19.9387C11.4972 20.5042 11.7913 21.1022 11.919 21.4779C11.979 21.6534 11.9925 21.8395 12.1425 21.8743C12.4076 21.9361 13.2821 21.5865 13.5312 21.4506C14.0582 21.1632 14.4671 20.7069 14.9147 20.4005C14.9205 20.2514 14.9262 20.1025 14.9321 19.9534C14.663 19.8193 14.3521 19.7242 13.957 19.7069C14.225 19.5721 14.6192 19.574 14.8634 19.4136C14.8657 19.3539 14.8682 19.2943 14.8703 19.2351C14.4245 19.2008 14.2546 19.0023 13.9607 18.8416ZM9.36815 18.0074C8.96909 18.4125 10.4874 18.9648 10.9708 18.9945C10.9681 18.7382 11.1169 18.4965 11.087 18.3125C10.5128 18.2117 9.75823 18.2783 9.36815 18.0074ZM14.284 18.1976C14.2821 18.2372 14.2305 18.2228 14.2221 18.255C14.7355 18.6563 15.1168 18.7393 15.8157 18.7047C16.1308 18.476 16.4103 18.2086 16.7384 17.9944C15.983 18.0619 15.0321 18.531 14.284 18.1976ZM18.7962 19.5659C18.7746 19.1158 18.6564 18.1902 18.3782 18.0281C17.7943 17.6873 16.7562 18.7163 16.3165 18.8732C16.3644 19.011 16.4433 19.1201 16.4494 19.2961C16.7095 19.2321 17.0261 19.2759 17.2515 19.3867C16.9909 19.4158 16.7019 19.4139 16.5295 19.5381C16.4663 19.7207 16.5449 19.9696 16.5029 20.2232C17.1215 20.3977 17.8281 20.4906 18.6102 20.5136C18.7623 20.3159 18.8142 19.9392 18.7962 19.5659ZM8.69633 18.3992C8.57101 18.3099 7.72328 17.2069 7.60714 17.2527C6.07317 17.8576 4.63883 18.9037 3.3571 19.893C4.57915 22.5153 5.07246 25.7279 5.15963 28.8244C6.55955 29.4792 7.78916 30.4231 9.68882 30.5216C9.46899 28.9663 9.26833 27.5787 9.14355 26.1144C8.66624 25.9132 7.98145 26.1235 7.53477 26.052C7.53098 25.5137 8.21696 25.8163 8.27409 25.4543C8.31715 25.1805 7.89666 25.1598 8.03358 24.7286C8.38278 24.8556 8.56616 25.1359 8.93857 25.2412C9.27886 24.4968 8.93381 23.1795 8.98286 22.5573C8.99215 22.4405 9.0412 21.91 9.30289 22.0031C9.5345 22.0855 9.28966 23.4138 9.31505 24.0027C9.33817 24.5453 9.24952 25.0703 9.46925 25.4109C11.3049 25.161 13.1702 24.9995 15.1564 24.945C14.7194 24.7575 14.2004 24.5801 13.6313 24.2593C13.3227 24.0854 12.3502 23.7235 12.2612 23.4305C12.1192 22.9635 12.6339 22.7148 12.7219 22.3145C11.7953 22.8198 11.6146 21.8301 11.3954 21.1289C11.1968 20.4938 11.0837 20.0194 11.035 19.6531C10.2368 19.2726 9.38337 18.8872 8.69633 18.3992ZM17.9855 17.3861C19.2636 16.7664 19.4939 19.7023 18.993 20.6481C19.0704 20.9302 19.3367 21.0382 19.4454 21.2918C18.7322 22.5694 17.94 23.7621 17.2123 25.0247C17.7536 24.6877 18.5268 24.9644 19.1639 24.7122C19.3967 24.6201 19.5653 24.087 19.7416 23.6606C20.2265 22.4873 20.7356 21.0082 20.9621 19.8886C21.0133 19.6335 21.1527 19.0776 21.1214 18.8506C21.0657 18.444 20.5141 18.1426 20.2336 17.8912C19.7167 17.4269 19.3912 17.0183 18.8521 16.5841C18.6334 16.9068 18.1643 17.1237 17.9855 17.3861ZM5.77339 6.05204C5.16439 6.72211 5.29186 7.97764 5.36559 8.8709C6.46638 8.17842 7.92744 8.92565 7.91367 10.1035C8.43922 10.0895 8.11 9.44709 8.01494 9.03323C7.70426 7.68146 8.53833 6.21285 8.05276 4.97668C7.10995 5.04816 6.33539 5.43326 5.77339 6.05204ZM10.1309 2.16293C8.75223 2.5537 6.98528 3.55549 6.41874 4.79402C6.85743 4.73027 7.16197 4.50903 7.59472 4.48165C7.75827 4.47101 7.97254 4.55024 8.16051 4.5035C8.5351 4.41058 8.85124 3.5707 9.13383 3.2582C9.4093 2.95303 9.7404 2.82264 9.96699 2.54443C10.1126 2.47419 10.3278 2.47903 10.3361 2.26042C10.273 2.19294 10.2065 2.1415 10.1309 2.16293ZM17.3078 2.53046C15.8768 1.72308 13.4546 1.11578 11.9324 1.87463C10.7042 2.48705 9.04389 3.50032 8.47784 4.78434C9.00663 6.02341 8.3212 7.15878 8.27745 8.4168C8.25422 9.08619 8.59262 9.67054 8.61855 10.3992C8.4376 10.6978 7.88477 10.7346 7.50208 10.7141C7.37326 10.0695 7.14775 9.3449 6.48394 9.27217C5.54464 9.16943 4.85786 9.94681 4.81519 10.7592C4.76469 11.7145 5.54895 13.2979 6.66056 13.188C7.08997 13.1455 7.19546 12.7151 7.66332 12.7195C7.9169 13.2254 7.27216 13.3843 7.20583 13.7462C7.18854 13.8396 7.2593 14.205 7.30045 14.3763C7.50236 15.2105 7.95245 16.2901 8.39547 16.9252C8.95775 17.7308 10.0624 17.8522 11.2509 17.9312C11.4632 17.4739 12.2451 17.5115 12.7546 17.6311C12.144 17.3893 11.5763 16.803 11.1059 16.2841C10.5655 15.6887 10.018 15.05 9.99038 14.2718C11.0116 15.6885 11.8553 16.9258 13.7123 17.549C15.1174 18.0202 16.7584 17.333 17.8381 16.5749C18.2861 16.2597 18.5535 15.7597 18.872 15.302C20.0635 13.5881 20.6195 11.1418 20.4972 8.77065C20.4469 7.79277 20.4491 6.81821 20.121 6.1603C19.7781 5.47239 18.6182 4.85693 17.9393 5.47917C17.8135 4.81019 18.5039 4.39648 19.3149 4.63721C18.7366 3.89095 18.1297 2.99424 17.3078 2.53046ZM19.9739 24.5945C21.0921 24.0386 23.1814 23.0982 23.8825 24.5966C24.1412 25.1489 24.4447 26.0825 24.5787 26.6526C24.768 27.4569 24.3735 29.1475 23.5467 29.4174C22.8165 29.6557 21.9645 29.6412 21.0849 29.4645C20.9813 29.3784 20.866 29.2282 20.7854 29.0717C20.1574 29.0473 19.5693 29.1054 19.0732 29.3636C19.1202 29.828 18.806 29.9026 18.5115 29.9982C18.2931 30.864 18.9483 31.9945 18.7915 32.7839C18.6796 33.3463 17.9877 33.4333 17.4791 33.5385C17.4625 33.851 17.5014 34.1119 17.5361 34.3763C17.4198 34.8048 16.8982 35.0487 16.404 35.1084C14.7781 35.304 12.3093 35.3918 10.7453 34.8294C10.3089 33.7589 9.96509 32.4569 9.60158 31.2345C8.07625 31.3974 6.84258 30.5764 5.67957 30.0385C5.2769 29.8518 4.71986 29.749 4.56943 29.4284C4.42359 29.1181 4.48327 28.5234 4.44709 27.9616C4.355 26.5267 4.27614 25.1427 3.89723 23.6736C3.72709 23.0143 3.43055 22.4326 3.22368 21.7973C3.03247 21.2086 2.6984 20.481 2.61127 19.8939C2.48208 19.0237 3.30146 18.9753 3.82539 18.5982C4.63532 18.0151 5.27106 17.6927 6.14824 17.1664C6.40804 17.0106 7.19151 16.6161 7.28063 16.4344C7.45779 16.0742 6.97654 15.5663 6.84788 15.2839C6.64435 14.8374 6.53821 14.4581 6.50905 14.0176C5.77322 13.9013 5.21542 13.4634 4.87849 12.9696C4.32113 12.1524 3.9346 10.6405 4.41683 9.4905C4.45465 9.39993 4.64326 9.22184 4.67108 9.08273C4.72596 8.80881 4.5678 8.4446 4.55797 8.15325C4.50731 6.65851 4.81087 5.37062 5.81714 4.91984C6.22564 3.29249 7.68773 2.75143 9.06523 1.94266C9.58015 1.64039 10.1478 1.44722 10.734 1.23152C12.8369 0.457594 16.0633 0.603336 17.8086 1.9233C18.5487 2.48304 19.7316 3.66487 20.1547 4.52051C21.2723 6.7795 21.1929 10.5548 20.4112 13.3027C20.3061 13.6716 20.1538 14.214 19.941 14.6571C19.7926 14.9666 19.3314 15.5858 19.3875 15.859C19.4451 16.1415 20.4389 16.8961 20.652 17.1015C21.0357 17.4717 21.7647 17.963 21.8237 18.4301C21.8872 18.9272 21.6047 19.6072 21.4616 20.0869C20.9831 21.6877 20.5163 23.1674 19.9739 24.5945Z" fill="#231F20"/>
<path fill-rule="evenodd" clip-rule="evenodd" d="M12.5118 13.5132C12.5724 13.4324 12.906 13.3098 13.3726 13.5344C13.3726 13.5344 12.8196 13.6267 12.8656 14.5488L12.6351 14.5026C12.6351 14.5026 12.3969 13.6665 12.5118 13.5132Z" fill="#F7E4CD"/>
<path fill-rule="evenodd" clip-rule="evenodd" d="M16.5539 21.4399C16.5539 21.5799 16.4404 21.6934 16.3003 21.6934C16.1604 21.6934 16.0469 21.5799 16.0469 21.4399C16.0469 21.3 16.1604 21.1863 16.3003 21.1863C16.4404 21.1863 16.5539 21.3 16.5539 21.4399Z" fill="#1D1919"/>
<path fill-rule="evenodd" clip-rule="evenodd" d="M16.8078 22.6157C16.8078 22.7557 16.6943 22.8691 16.5542 22.8691C16.4143 22.8691 16.3008 22.7557 16.3008 22.6157C16.3008 22.4758 16.4143 22.3621 16.5542 22.3621C16.6943 22.3621 16.8078 22.4758 16.8078 22.6157Z" fill="#1D1919"/>
</g>
<defs>
<clipPath id="clip0_4867_28261">
<rect width="25" height="34.5133" fill="white" transform="translate(0 0.744141)"/>
</clipPath>
</defs>
</svg>
