<svg width="34" height="34" viewBox="0 0 34 34" fill="none" xmlns="http://www.w3.org/2000/svg">
<path d="M17 0.5C26.1127 0.5 33.5 7.8873 33.5 17C33.5 26.1127 26.1127 33.5 17 33.5C7.8873 33.5 0.5 26.1127 0.5 17C0.5 7.8873 7.8873 0.5 17 0.5ZM3.58301 18.5C4.2027 24.1055 8.2539 28.6766 13.5898 30.0654C11.2997 26.6234 9.9135 22.645 9.57715 18.5H3.58301ZM24.4229 18.5C24.0865 22.6452 22.6995 26.6233 20.4092 30.0654C25.7456 28.6769 29.7973 24.1059 30.417 18.5H24.4229ZM12.5869 18.5C12.9636 22.569 14.4963 26.4446 17 29.6709C19.5037 26.4446 21.0364 22.569 21.4131 18.5H12.5869ZM20.4092 3.93359C22.6998 7.37586 24.0865 11.3545 24.4229 15.5H30.417C29.7973 9.89405 25.7457 5.32206 20.4092 3.93359ZM17 4.32812C14.496 7.55458 12.9637 11.4308 12.5869 15.5H21.4131C21.0363 11.4308 19.504 7.55458 17 4.32812ZM13.5898 3.93359C8.25378 5.32234 4.20271 9.89437 3.58301 15.5H9.57715C9.91352 11.3547 11.2994 7.37576 13.5898 3.93359Z" fill="url(#gradient-globe)"/>
<defs>
<linearGradient id="gradient-globe" x1="17.5556" y1="1.99696" x2="17.5556" y2="32" gradientUnits="userSpaceOnUse">
<stop stop-color="white"/>
<stop offset="1" stop-color="#525866"/>
</linearGradient>
</defs>
</svg>
