<svg width="113" height="38" viewBox="0 0 113 38" fill="none" xmlns="http://www.w3.org/2000/svg">
<path d="M0.621277 0.742432H24.8461V12.8549H12.7337L0.621277 0.742432ZM0.621277 12.8549H12.7337L24.8461 24.9673H0.621277V12.8549ZM0.621277 24.9673H12.7337V37.0797L0.621277 24.9673Z" fill="#99A0AE"/>
<path d="M38.5146 10.298H48.3067V13.4096H42.2209V17.7338H48.3067V20.7767H42.2209V26.3134H38.5146V10.298ZM50.32 15.2855H53.8207V17.5963C54.0035 16.8022 54.3776 16.1926 54.9418 15.7659C55.5203 15.3231 56.1626 15.1026 56.8636 15.1026C57.2299 15.1026 57.5353 15.1336 57.7785 15.194V18.4431C57.4294 18.401 57.0781 18.3783 56.7262 18.3744C55.7652 18.3744 55.0415 18.6864 54.5527 19.312C54.0656 19.9222 53.8207 20.8371 53.8207 22.0579V26.3134H50.3217V15.2855H50.32ZM63.3047 26.611C62.2374 26.611 61.3064 26.3588 60.5133 25.8556C59.7353 25.3524 59.1168 24.6381 58.7289 23.7963C58.3172 22.9125 58.1099 21.9122 58.1099 20.7994C58.1099 19.7011 58.3249 18.7091 58.7516 17.8252C59.1518 16.9712 59.7868 16.2491 60.5821 15.7432C61.3895 15.24 62.3127 14.9879 63.3507 14.9879C64.1282 14.9879 64.8231 15.1563 65.4327 15.4916C66.0423 15.828 66.5 16.2857 66.8054 16.8643V15.2855H70.2827V26.3134H66.8054V24.7573C66.5 25.3064 66.0273 25.7559 65.3867 26.1072C64.7461 26.4469 64.0301 26.6198 63.3047 26.611ZM64.3116 23.7049C65.1501 23.7049 65.7984 23.4306 66.2562 22.8814C66.7139 22.3322 66.9428 21.6379 66.9428 20.7994C66.9428 19.9759 66.7139 19.2893 66.2562 18.7401C65.7984 18.1909 65.1501 17.9166 64.3116 17.9166C63.5175 17.9166 62.878 18.1832 62.3897 18.7174C61.917 19.2516 61.6804 19.9449 61.6804 20.7994C61.6804 21.6539 61.917 22.355 62.3897 22.9041C62.878 23.4384 63.5186 23.7049 64.3116 23.7049ZM72.7311 15.2855H76.2317V16.887C76.4767 16.3217 76.8723 15.864 77.421 15.5143C77.9862 15.1646 78.6418 14.9879 79.3888 14.9879C81.1278 14.9879 82.2799 15.6662 82.8435 17.0244C83.1538 16.4087 83.6393 15.8995 84.2394 15.5603C84.8811 15.1741 85.6182 14.9762 86.3669 14.9879C88.9753 14.9879 90.2793 16.4819 90.2793 19.4722V26.3134H86.7559V20.1128C86.7559 19.3663 86.6185 18.8172 86.3442 18.4658C86.0693 18.1156 85.6575 17.9394 85.1084 17.9394C84.5137 17.9394 84.056 18.1455 83.7357 18.5573C83.4154 18.954 83.2552 19.6473 83.2552 20.6393V26.3134H79.7318V20.0901C79.7318 19.3431 79.595 18.8011 79.3201 18.4658C79.0619 18.1156 78.6568 17.9394 78.1087 17.9394C77.498 17.9394 77.0325 18.1455 76.7122 18.5573C76.3919 18.954 76.2317 19.6473 76.2317 20.6393V26.3134H72.7322V15.2855H72.7311ZM103.43 20.2275C103.43 20.6997 103.399 21.2112 103.337 21.7603H95.1931C95.2241 22.4774 95.4674 23.0255 95.9251 23.4079C96.3829 23.7886 97.0019 23.9798 97.7783 23.9798C98.8617 23.9798 99.5483 23.6512 99.8376 22.9956H103.27C103.101 24.079 102.506 24.9551 101.485 25.6268C100.478 26.2823 99.2424 26.611 97.7783 26.611C95.8875 26.611 94.4001 26.0995 93.3167 25.0776C92.2494 24.0551 91.7151 22.6298 91.7151 20.7994C91.7151 19.6096 91.959 18.58 92.4472 17.7105C92.9188 16.8421 93.6459 16.1394 94.5292 15.6972C95.4297 15.225 96.4743 14.9879 97.6652 14.9879C98.793 14.9879 99.7916 15.209 100.661 15.6518C101.545 16.0945 102.225 16.7119 102.697 17.5049C103.186 18.299 103.43 19.2062 103.43 20.2275ZM99.9733 19.5869C99.9584 18.8548 99.7528 18.2973 99.3554 17.9166C98.9598 17.5359 98.3867 17.3447 97.6397 17.3447C96.8927 17.3447 96.2981 17.5503 95.8553 17.9626C95.4286 18.3594 95.2075 18.9003 95.1914 19.5869H99.9733ZM104.973 15.2855H108.474V17.5963C108.657 16.8022 109.031 16.1926 109.595 15.7659C110.142 15.3348 110.819 15.1009 111.517 15.1026C111.882 15.1026 112.188 15.1336 112.432 15.194V18.4431C112.082 18.401 111.731 18.3783 111.379 18.3744C110.418 18.3744 109.695 18.6864 109.206 19.312C108.717 19.9222 108.474 20.8371 108.474 22.0579V26.3134H104.973V15.2855Z" fill="#99A0AE"/>
</svg>
