<svg width="101" height="26" viewBox="0 0 101 26" fill="none" xmlns="http://www.w3.org/2000/svg">
<path fill-rule="evenodd" clip-rule="evenodd" d="M9.56496 0.314941C8.19043 0.314941 7.0763 1.43157 7.0763 2.8086C7.07597 3.13574 7.14008 3.45975 7.26497 3.76212C7.38986 4.06448 7.57308 4.33929 7.80417 4.57085C8.03527 4.80241 8.30971 4.98618 8.61182 5.11168C8.91394 5.23717 9.23781 5.30193 9.56496 5.30226H12.054V2.8086C12.0546 2.14787 11.7927 1.51397 11.3259 1.04633C10.8591 0.578687 10.2257 0.315604 9.56496 0.314941ZM9.56496 6.9647H2.92811C1.55358 6.9647 0.439454 8.08133 0.439454 9.45878C0.439454 10.8358 1.55358 11.9524 2.92811 11.9524H9.56538C10.9395 11.9524 12.054 10.8358 12.054 9.45878C12.054 8.08133 10.9395 6.9647 9.56496 6.9647ZM31.9649 20.0344L33.1852 17.1821C34.5214 18.1716 36.2643 18.6953 38.0076 18.6953C39.2859 18.6953 40.0992 18.2008 40.0992 17.4441C40.0879 16.6337 38.9342 16.3804 37.52 16.0699C35.2768 15.5774 32.3781 14.9409 32.3424 11.7093C32.3132 9.03151 34.6956 6.96492 38.0659 6.96492C40.07 6.96492 42.0749 7.4599 43.4982 8.59528L42.3578 11.5085C41.0483 10.6665 39.4308 10.0794 37.8913 10.0794C36.8455 10.0794 36.148 10.574 36.148 11.2148C36.1594 12.0219 37.3452 12.3406 38.7915 12.7293C41.0483 13.3359 43.9393 14.1129 43.9923 17.1821C43.9923 19.9182 41.6678 21.8394 38.3559 21.8394C35.916 21.8394 33.679 21.2573 31.9644 20.0344H31.9649ZM80.5581 16.1492C80.2501 16.6965 79.802 17.152 79.2598 17.4691C78.7176 17.7861 78.1009 17.9532 77.4728 17.9533C75.5154 17.9533 73.9288 16.3633 73.9288 14.4022C73.9288 12.441 75.5154 10.851 77.4728 10.851C78.1009 10.8511 78.7176 11.0182 79.2598 11.3352C79.802 11.6523 80.2501 12.1078 80.5581 12.6551L83.9509 10.7719C82.6801 8.5007 80.256 6.96492 77.4728 6.96492C73.3734 6.96492 70.0502 10.2944 70.0502 14.4022C70.0502 18.5095 73.3734 21.8394 77.4728 21.8394C80.256 21.8394 82.6801 20.3036 83.9509 18.0324L80.5581 16.1492ZM46.1939 21.5481H50.4354V0.773894H46.1944L46.1939 21.5481ZM86.0929 0.773894V21.5481H90.3344V15.3242L95.3605 21.5481H100.782L94.3905 14.1542L100.317 7.25491H95.128L90.3344 12.991V0.773894H86.0929ZM63.5029 7.25574V8.94443C62.8058 7.77989 61.0917 6.96492 59.2905 6.96492C55.5719 6.96492 52.6379 10.2544 52.6379 14.3876C52.6379 18.5208 55.5719 21.8394 59.2905 21.8394C61.0917 21.8394 62.8058 21.0244 63.5029 19.8599V21.5481H67.7444V7.25574H63.5029ZM63.5029 16.1779C62.8929 17.1966 61.6146 17.9529 60.1913 17.9529C58.2335 17.9529 56.6469 16.3633 56.6469 14.4022C56.6469 12.441 58.2335 10.851 60.1913 10.851C61.6146 10.851 62.8929 11.6368 63.5029 12.6843V16.1779ZM22.839 6.9647C24.2135 6.9647 25.3281 8.08133 25.3281 9.45878C25.3286 10.1195 25.0667 10.7534 24.5999 11.2211C24.1331 11.6887 23.4997 11.9518 22.839 11.9524H20.3503V9.45878C20.3503 8.08133 21.4644 6.9647 22.839 6.9647ZM18.6912 2.8086V9.45878V9.45919C18.6918 10.1199 18.4299 10.7538 17.9631 11.2215C17.4963 11.6891 16.8629 11.9522 16.2021 11.9529C14.8276 11.9529 13.7135 10.8362 13.7135 9.45836V2.8086C13.7135 1.43157 14.8276 0.314941 16.2021 0.314941C16.8629 0.315604 17.4963 0.578687 17.9631 1.04633C18.4299 1.51397 18.6918 2.14787 18.6912 2.8086ZM16.2021 25.2524C16.8629 25.2518 17.4963 24.9887 17.9631 24.521C18.4299 24.0534 18.6918 23.4195 18.6912 22.7588C18.6918 22.098 18.4299 21.4641 17.9631 20.9965C17.4963 20.5289 16.8629 20.2658 16.2021 20.2651H13.7135V22.7588C13.7135 24.1358 14.8276 25.2524 16.2021 25.2524ZM16.2021 18.6027H22.8394C24.2135 18.6027 25.3281 17.4861 25.3281 16.1086C25.3286 15.4479 25.0667 14.814 24.5999 14.3463C24.1331 13.8787 23.4997 13.6156 22.839 13.6149H16.2021C14.8276 13.6149 13.7135 14.7316 13.7135 16.1086C13.7132 16.4357 13.7773 16.7597 13.9022 17.0621C14.027 17.3645 14.2103 17.6393 14.4414 17.8708C14.6724 18.1024 14.9469 18.2862 15.249 18.4117C15.5511 18.5372 15.875 18.6019 16.2021 18.6023V18.6027ZM0.628127 17.0621C0.503238 16.7597 0.439127 16.4357 0.439454 16.1086C0.439454 14.7316 1.55358 13.6149 2.92812 13.6149H5.41719V16.1086C5.41775 16.7693 5.15583 17.4032 4.68905 17.8709C4.22227 18.3385 3.58885 18.6016 2.92812 18.6023C2.60097 18.6019 2.2771 18.5372 1.97498 18.4117C1.67286 18.2862 1.39842 18.1024 1.16733 17.8708C0.936238 17.6393 0.753016 17.3645 0.628127 17.0621ZM7.0763 22.7584V16.1086C7.0763 14.7316 8.19043 13.6149 9.56496 13.6149C9.89214 13.6152 10.2161 13.6799 10.5182 13.8054C10.8204 13.9309 11.0949 14.1146 11.326 14.3462C11.5572 14.5778 11.7404 14.8526 11.8653 15.155C11.9902 15.4574 12.0544 15.7814 12.054 16.1086V22.7588C12.0546 23.4195 11.7927 24.0534 11.3259 24.521C10.8591 24.9887 10.2257 25.2518 9.56496 25.2524C8.19043 25.2524 7.0763 24.1358 7.0763 22.7584Z" fill="#99A0AE"/>
</svg>
