<svg width="114" height="38" viewBox="0 0 114 38" fill="none" xmlns="http://www.w3.org/2000/svg">
<path fill-rule="evenodd" clip-rule="evenodd" d="M2.91474 14.818H13.1358L8.72956 1.26767C8.51286 0.561168 7.51965 0.561168 7.30295 1.26767L2.91474 14.818ZM80.2233 10.7602H82.4445V25.325H89.2345V27.3902H80.2233V10.7602ZM95.0493 25.633C96.3134 25.633 97.2524 25.0533 97.8122 24.4736V21.3759C97.433 21.3034 96.6926 21.249 96.2412 21.249C93.8033 21.249 92.6656 22.0461 92.6656 23.6946C92.6656 24.7997 93.3518 25.633 95.0493 25.633ZM90.7875 16.1043C92.0697 15.0355 93.713 14.4014 95.5188 14.4014C98.8235 14.4014 99.9973 16.1948 100.015 18.894V27.4083H98.4443L98.047 25.7779C97.5233 26.9735 95.9883 27.7162 94.3811 27.7162C91.9974 27.7162 90.4263 26.4301 90.4263 23.8577C90.4263 20.9954 92.3947 19.6187 96.2953 19.6187C96.7649 19.6187 97.4872 19.673 97.8484 19.7455V18.9303C97.8484 17.3542 97.0357 16.4122 95.2118 16.4122C93.6046 16.4122 92.485 16.9557 91.5821 17.481L90.7875 16.1043ZM105.054 25.3612C105.613 25.6149 106.354 25.7236 107.185 25.7236C109.586 25.7236 110.941 24.0751 110.923 20.5788C110.923 18.1151 110.092 16.5934 107.943 16.5934C106.751 16.5934 105.812 17.0463 105.054 17.6803V25.3612ZM105.054 15.7601C105.054 15.7601 106.137 14.4014 108.124 14.4014C111.392 14.4014 113.234 16.8108 113.234 20.4339C113.234 25.0352 111.23 27.6981 107.076 27.6981C105.451 27.6981 103.952 27.4445 102.869 26.9916V10.7602H105.054V13.6043V15.7601ZM62.2913 13.8942C61.4606 13.2239 60.1784 12.5718 58.2101 12.5718C54.8692 12.5718 52.5939 14.7275 52.5939 19.1658C52.5939 23.5316 54.797 25.6149 58.0836 25.6149C59.2755 25.6149 60.1604 25.4156 60.666 25.162L60.6118 20.1984H56.7293V18.1332H62.815V20.2165L62.8691 26.7561C61.7315 27.2271 59.9978 27.7162 57.9392 27.7162C53.8399 27.7162 50.2643 25.325 50.2643 19.202C50.2643 13.3688 53.5871 10.4704 58.3184 10.4704C60.1784 10.4704 61.9482 11.0863 63.2484 12.2276L62.2913 13.8942ZM71.6997 10.7602H73.8848L73.8667 14.7094H77.5145V16.5209H73.8667V23.1693C73.8667 24.7453 74.6794 25.6873 76.5033 25.6873C76.8644 25.6873 77.2076 25.6692 77.5145 25.6149V27.5713C77.0811 27.6619 76.6297 27.6981 76.1782 27.6981C72.8735 27.6981 71.6997 25.9047 71.6997 23.2055V13.55V10.7602ZM68.3589 27.3902H66.1738V14.7094H68.3589V27.3902ZM68.3589 12.9522H66.1738V10.7602H68.3589V12.9522ZM27.7091 14.8181L20.4135 37.3173L13.1179 14.818H27.6911L32.0793 1.26778C32.3141 0.579395 33.2892 0.579395 33.5059 1.26778L37.9122 14.8181H37.9124L37.9125 14.818L37.9125 14.8181H37.9303L37.9177 14.8342L40.1336 21.6475C40.3323 22.2634 40.1156 22.9518 39.5919 23.3322L20.4319 37.2992L23.7419 33.0423L20.4136 37.3174L27.7092 14.8181H27.7091ZM20.4134 37.3173L13.1178 14.818H2.91509H2.91474L2.91499 14.8183L0.693902 21.6475C0.495259 22.2634 0.71196 22.9518 1.23566 23.3322L20.3957 37.2992L4.44323 16.7833L20.4134 37.3173Z" fill="#99A0AE"/>
</svg>
