<svg width="112" height="21" viewBox="0 0 112 21" fill="none" xmlns="http://www.w3.org/2000/svg">
<path d="M22.6614 5.96212C18.6043 5.96212 15.4342 9.04197 15.4342 13.1649C15.4342 17.288 18.5242 20.3414 22.6614 20.3414C26.7986 20.3414 29.9423 17.2352 29.9423 13.1386C29.9423 9.06831 26.8523 5.96212 22.6614 5.96212ZM22.6888 17.3701C20.3784 17.3701 18.6854 15.5757 18.6854 13.166C18.6854 10.7289 20.351 8.93551 22.6614 8.93551C24.9991 8.93551 26.6911 10.7562 26.6911 13.166C26.6911 15.5757 24.9991 17.3701 22.6888 17.3701ZM30.8283 9.09567H32.8436V20.0748H36.0674V6.22976H30.8283V9.09567ZM7.32101 8.93449C9.01402 8.93449 10.3572 9.97868 10.8672 11.5318H14.2795C13.6612 8.21167 10.9209 5.96212 7.34838 5.96212C3.29127 5.96212 0.121216 9.04197 0.121216 13.166C0.121216 17.29 3.21119 20.3425 7.34838 20.3425C10.8408 20.3425 13.6348 18.0929 14.2532 14.7454H10.8672C10.3836 16.2985 9.04036 17.3701 7.34738 17.3701C5.00962 17.3701 3.37135 15.5757 3.37135 13.166C3.37238 10.7289 4.98428 8.93449 7.32101 8.93449ZM92.0823 11.8268L89.7182 11.479C88.5901 11.3189 87.784 10.9438 87.784 10.0598C87.784 9.09568 88.8323 8.61413 90.2556 8.61413C91.8139 8.61413 92.8083 9.28324 93.023 10.3811H96.1396C95.7898 7.59631 93.6405 5.96312 90.3366 5.96312C86.9243 5.96312 84.6677 7.70379 84.6677 10.1672C84.6677 12.5232 86.1456 13.8898 89.1272 14.3176L91.4912 14.6653C92.6471 14.8255 93.2917 15.2817 93.2917 16.1383C93.2917 17.2363 92.1636 17.6914 90.6053 17.6914C88.6973 17.6914 87.6228 16.9149 87.4617 15.7369H84.2915C84.5876 18.4416 86.7095 20.3425 90.5779 20.3425C94.0978 20.3425 96.4345 18.7356 96.4345 15.9771C96.4345 13.5137 94.7425 12.2282 92.0823 11.8268ZM34.4555 0.526274C33.2734 0.526274 32.3866 1.38291 32.3866 2.56091C32.3866 3.73891 33.2725 4.59555 34.4555 4.59555C35.6375 4.59555 36.5247 3.73891 36.5247 2.56091C36.5247 1.38291 35.6375 0.526274 34.4555 0.526274ZM81.7663 10.9701C81.7663 7.9714 79.9396 5.96312 76.0708 5.96312C72.4172 5.96312 70.3754 7.81124 69.9721 10.6498H73.1694C73.3305 9.55188 74.1902 8.6415 76.0172 8.6415C77.6566 8.6415 78.4623 9.36432 78.4623 10.2483C78.4623 11.4 76.9842 11.694 75.1575 11.8815C72.6859 12.1491 69.6233 13.0058 69.6233 16.2194C69.6233 18.7103 71.4774 20.3161 74.4328 20.3161C76.7429 20.3161 78.1936 19.352 78.9196 17.8253C79.0272 19.1908 80.0481 20.0748 81.4723 20.0748H83.3529V17.2099H81.7672V10.9701H81.7663ZM78.5961 14.4514C78.5961 16.2995 76.9842 17.6651 75.0225 17.6651C73.8134 17.6651 72.7925 17.1562 72.7925 16.0856C72.7925 14.7201 74.4315 14.345 75.9362 14.1848C77.3869 14.051 78.1927 13.7296 78.5961 13.1133V14.4514ZM61.4827 5.96212C59.6822 5.96212 58.1779 6.7123 57.1034 7.9704V0.392456H53.8796V20.0748H57.0495V18.2541C58.124 19.5659 59.656 20.3425 61.4827 20.3425C65.3512 20.3425 68.2801 17.29 68.2801 13.166C68.2801 9.04197 65.2975 5.96212 61.4827 5.96212ZM60.9992 17.3701C58.6888 17.3701 56.9958 15.5757 56.9958 13.166C56.9958 10.7562 58.7153 8.93551 61.0254 8.93551C63.3633 8.93551 65.0014 10.7299 65.0014 13.166C65.0014 15.5757 63.3094 17.3701 60.9992 17.3701ZM46.1686 5.96212C44.0732 5.96212 42.7026 6.81876 41.8968 8.02411V6.22976H38.6992V20.0738H41.923V12.5496C41.923 10.4339 43.2662 8.93449 45.2543 8.93449C47.1084 8.93449 48.263 10.2463 48.263 12.1482V20.0748H51.4868V11.9079C51.4881 8.42557 49.6885 5.96212 46.1686 5.96212ZM111.802 12.7108C111.802 8.74795 108.901 5.96312 105.005 5.96312C100.868 5.96312 97.8316 9.06933 97.8316 13.166C97.8316 17.4775 101.083 20.3425 105.059 20.3425C108.417 20.3425 111.05 18.3605 111.721 15.5493H108.362C107.879 16.7811 106.697 17.4775 105.111 17.4775C103.042 17.4775 101.484 16.1921 101.135 13.9425H111.801V12.7108H111.802ZM101.324 11.6392C101.835 9.71104 103.285 8.77432 104.951 8.77432C106.778 8.77432 108.175 9.81849 108.497 11.6392H101.324Z" fill="#99A0AE"/>
</svg>
