<svg width="110" height="29" viewBox="0 0 110 29" fill="none" xmlns="http://www.w3.org/2000/svg">
<path d="M23.3144 0.898682H5.07095C2.54189 0.898682 0.492188 2.94838 0.492188 5.47744V23.7209C0.492188 26.2499 2.54189 28.2996 5.07095 28.2996H23.3144C25.8434 28.2996 27.8931 26.2499 27.8931 23.7209V5.47744C27.8931 2.94838 25.8434 0.898682 23.3144 0.898682ZM22.9121 21.8723C22.9121 22.6712 22.2647 23.3186 21.4658 23.3186H6.91954C6.12059 23.3186 5.47318 22.6712 5.47318 21.8723V7.32603C5.47318 6.52709 6.12059 5.87967 6.91954 5.87967H21.4658C22.2647 5.87967 22.9121 6.52709 22.9121 7.32603V21.8723ZM11.2862 18.3184C10.8261 18.3184 10.4569 17.9464 10.4569 17.4864V11.6789C10.4569 11.2188 10.8261 10.8441 11.2862 10.8441H17.1019C17.5592 10.8441 17.9312 11.216 17.9312 11.6789V17.4836C17.9312 17.9437 17.5592 18.3156 17.1019 18.3156H11.2862V18.3184ZM35.158 17.9216H38.1499C38.2987 19.616 39.4475 20.9383 41.7644 20.9383C43.8334 20.9383 45.1062 19.9162 45.1062 18.3707C45.1062 16.9243 44.1089 16.2769 42.3126 15.8527L39.993 15.354C37.4749 14.8058 35.5795 13.1859 35.5795 10.5411C35.5795 7.62357 38.1719 5.62897 41.5385 5.62897C45.1034 5.62897 47.3983 7.49959 47.5967 10.2656H44.704C44.3596 8.97075 43.2852 8.19935 41.5413 8.19935C39.6954 8.19935 38.4254 9.19665 38.4254 10.4695C38.4254 11.7422 39.5219 12.5136 41.4173 12.9379L43.7122 13.4366C46.2302 13.9848 47.9493 15.5055 47.9493 18.1723C47.9493 21.5637 45.4065 23.5831 41.7672 23.5831C37.676 23.5804 35.4087 21.3626 35.158 17.9216ZM58.6524 28.2996V23.3379L58.848 21.1615H58.6524C57.9664 22.7263 56.5255 23.5831 54.5695 23.5831C51.4151 23.5831 49.0678 21.0155 49.0678 17.0786C49.0678 13.1418 51.4151 10.5741 54.5695 10.5741C56.5008 10.5741 57.87 11.4778 58.6524 12.8966H58.848V10.8166H61.4404V28.2996H58.6524ZM58.7488 17.0759C58.7488 14.5578 57.2088 13.0894 55.3244 13.0894C53.44 13.0894 51.9 14.5578 51.9 17.0759C51.9 19.5939 53.44 21.0623 55.3244 21.0623C57.2088 21.0623 58.7488 19.5967 58.7488 17.0759ZM63.5094 18.3735V10.8166H66.2974V18.1283C66.2974 20.1091 67.2506 21.0623 68.8403 21.0623C70.7963 21.0623 72.0691 19.6683 72.0691 17.4919V10.8166H74.8571V23.3352H72.2647V20.7427H72.0691C71.4575 22.4067 70.1131 23.5804 68.0358 23.5804C65.0494 23.5804 63.5094 21.6739 63.5094 18.3735ZM76.5542 19.8391C76.5542 17.4919 78.1934 16.1227 81.1026 15.9518L84.5491 15.7314V14.7534C84.5491 13.5798 83.6923 12.8718 82.1771 12.8718C80.7831 12.8718 79.9511 13.5798 79.7307 14.5826H76.9426C77.2374 12.0398 79.3395 10.5714 82.1743 10.5714C85.3784 10.5714 87.3344 11.9406 87.3344 14.5826V23.3352H84.742V21.0127H84.5464C83.9595 22.5528 82.7363 23.5804 80.3891 23.5804C78.1438 23.5804 76.5542 22.0651 76.5542 19.8391ZM84.5519 18.2991V17.6379L81.739 17.8335C80.2238 17.9299 79.5378 18.4947 79.5378 19.6187C79.5378 20.5719 80.3202 21.2579 81.4195 21.2579C83.403 21.2579 84.5519 19.9879 84.5519 18.2991ZM89.4144 23.3379V10.8166H92.0068V13.2134H92.2024C92.5688 11.5742 93.8168 10.8166 95.6737 10.8166H96.9465V13.3346H95.3569C93.5468 13.3346 92.2024 14.5082 92.2024 16.7343V23.3352H89.4144V23.3379ZM109.702 17.5911H100.189C100.335 19.8887 101.95 21.1863 103.735 21.1863C105.25 21.1863 106.203 20.5747 106.743 19.5471H109.506C108.749 22.0899 106.523 23.5804 103.71 23.5804C100.018 23.5804 97.4258 20.8171 97.4258 17.0759C97.4258 13.3346 100.09 10.5714 103.735 10.5714C107.402 10.5714 109.798 13.0894 109.798 16.2191C109.801 16.8334 109.752 17.1503 109.702 17.5911ZM107.038 15.6598C106.942 13.9242 105.498 12.7506 103.737 12.7506C102.073 12.7506 100.682 13.803 100.338 15.6598H107.038Z" fill="#99A0AE"/>
</svg>
