<svg width="143" height="29" viewBox="0 0 143 29" fill="none" xmlns="http://www.w3.org/2000/svg">
<path d="M30.6762 3.07593C28.3824 2.00268 25.9297 1.2227 23.3654 0.778564C23.0505 1.34793 22.6826 2.11373 22.4289 2.72292C19.7031 2.31299 17.0023 2.31299 14.3266 2.72292C14.0729 2.11373 13.6967 1.34793 13.3789 0.778564C10.8119 1.2227 8.35641 2.00555 6.06254 3.08161C1.4358 10.0732 0.181567 16.8912 0.808685 23.6123C3.87738 25.904 6.85132 27.2961 9.77507 28.207C10.497 27.2135 11.1408 26.1573 11.6954 25.0443C10.6391 24.6429 9.62735 24.1475 8.67137 23.5725C8.92499 23.3846 9.17307 23.1882 9.41274 22.986C15.2435 25.7132 21.5788 25.7132 27.34 22.986C27.5825 23.1882 27.8305 23.3846 28.0813 23.5725C27.1225 24.1504 26.108 24.6457 25.0517 25.0471C25.6063 26.1573 26.2474 27.2163 26.9721 28.2098C29.8986 27.2989 32.8753 25.9068 35.944 23.6123C36.6799 15.8208 34.687 9.06546 30.6762 3.07593ZM12.4898 19.4789C10.7395 19.4789 9.30403 17.8448 9.30403 15.855C9.30403 13.8651 10.7088 12.2282 12.4898 12.2282C14.2708 12.2282 15.7062 13.8622 15.6756 15.855C15.6783 17.8448 14.2708 19.4789 12.4898 19.4789ZM24.2629 19.4789C22.5126 19.4789 21.0771 17.8448 21.0771 15.855C21.0771 13.8651 22.4819 12.2282 24.2629 12.2282C26.0439 12.2282 27.4793 13.8622 27.4487 15.855C27.4487 17.8448 26.0439 19.4789 24.2629 19.4789Z" fill="#99A0AE"/>
<path d="M48.277 7.77649H55.8858C57.72 7.77649 59.2696 8.0697 60.5408 8.65329C61.8087 9.23684 62.7593 10.051 63.3894 11.0929C64.0189 12.1348 64.3366 13.3276 64.3366 14.6713C64.3366 15.9865 64.0077 17.1793 63.35 18.2468C62.6923 19.3172 61.6916 20.1627 60.3456 20.7861C58.9995 21.4095 57.3324 21.7227 55.3398 21.7227H48.277V7.77649ZM55.2616 18.1785C56.4964 18.1785 57.447 17.8625 58.1101 17.2333C58.7737 16.6014 59.1054 15.7417 59.1054 14.6514C59.1054 13.6408 58.8096 12.8351 58.2189 12.2316C57.6282 11.6281 56.7334 11.3235 55.5375 11.3235H53.1573V18.1785H55.2616Z" fill="#99A0AE"/>
<path d="M75.728 21.7057C74.6744 21.4267 73.7238 21.0224 72.8795 20.4901V17.1822C73.5178 17.686 74.3733 18.1017 75.4463 18.4291C76.5193 18.7536 77.5564 18.9158 78.5595 18.9158C79.0278 18.9158 79.3819 18.8532 79.6214 18.728C79.8614 18.6027 79.9814 18.4518 79.9814 18.2782C79.9814 18.0789 79.9173 17.9138 79.7861 17.78C79.6549 17.6462 79.4014 17.5352 79.0254 17.4412L76.684 16.9032C75.3433 16.5844 74.3927 16.1431 73.8273 15.5766C73.2614 15.0129 72.9796 14.2728 72.9796 13.3562C72.9796 12.5847 73.2249 11.9157 73.7214 11.3435C74.2144 10.7713 74.9168 10.3301 75.8281 10.0198C76.7399 9.70663 77.8042 9.55007 79.0278 9.55007C80.1203 9.55007 81.121 9.66961 82.0327 9.90875C82.944 10.1479 83.6965 10.4525 84.2959 10.8254V13.954C83.6824 13.5811 82.98 13.2879 82.1775 13.0658C81.3775 12.8466 80.5555 12.7384 79.7079 12.7384C78.4843 12.7384 77.8741 12.9519 77.8741 13.3761C77.8741 13.5754 77.9689 13.7234 78.1583 13.823C78.3478 13.9227 78.6961 14.0251 79.2008 14.1333L81.1516 14.492C82.4257 14.7169 83.3759 15.1126 84.0001 15.6763C84.6248 16.2399 84.9366 17.074 84.9366 18.1786C84.9366 19.3884 84.4212 20.3478 83.387 21.0595C82.3529 21.7712 80.8868 22.127 78.9861 22.127C77.8683 22.1242 76.7817 21.9846 75.728 21.7057Z" fill="#99A0AE"/>
<path d="M89.542 21.2871C88.4247 20.7291 87.58 19.9719 87.017 19.0153C86.454 18.0588 86.1698 16.9828 86.1698 15.7871C86.1698 14.5915 86.4622 13.5211 87.0476 12.5789C87.6329 11.6366 88.4913 10.8964 89.6231 10.3584C90.7544 9.82036 92.1063 9.55276 93.6811 9.55276C95.6319 9.55276 97.2515 9.97124 98.5392 10.8082V14.4549C98.085 14.136 97.5551 13.877 96.9503 13.6777C96.3455 13.4784 95.699 13.3788 95.0077 13.3788C93.7982 13.3788 92.8534 13.6037 92.1704 14.0563C91.4874 14.5089 91.145 15.0982 91.145 15.8298C91.145 16.5472 91.4763 17.1336 92.1398 17.5948C92.8034 18.0531 93.7647 18.2837 95.0272 18.2837C95.6766 18.2837 96.3178 18.1869 96.9503 17.9962C97.5803 17.8026 98.1239 17.5664 98.5781 17.2873V20.8145C97.1485 21.6913 95.4901 22.1297 93.6029 22.1297C92.0145 22.124 90.6597 21.845 89.542 21.2871Z" fill="#99A0AE"/>
<path d="M103.405 21.2873C102.279 20.7293 101.421 19.9664 100.83 18.9956C100.239 18.0249 99.941 16.9431 99.941 15.7475C99.941 14.5519 100.236 13.4843 100.83 12.5478C101.424 11.6112 102.277 10.8767 103.397 10.3444C104.514 9.81202 105.85 9.54728 107.396 9.54728C108.944 9.54728 110.279 9.81202 111.396 10.3444C112.514 10.8767 113.367 11.6055 113.952 12.5364C114.538 13.4673 114.83 14.5348 114.83 15.7447C114.83 16.9403 114.538 18.0221 113.952 18.9928C113.367 19.9635 112.511 20.7264 111.385 21.2844C110.259 21.8424 108.93 22.1214 107.394 22.1214C105.858 22.1214 104.529 21.8452 103.405 21.2873ZM109.334 17.7516C109.808 17.2677 110.047 16.6272 110.047 15.8301C110.047 15.033 109.81 14.3981 109.334 13.9284C108.86 13.4559 108.213 13.2196 107.394 13.2196C106.561 13.2196 105.908 13.4559 105.432 13.9284C104.958 14.401 104.721 15.033 104.721 15.8301C104.721 16.6272 104.958 17.2677 105.432 17.7516C105.906 18.2356 106.561 18.4804 107.394 18.4804C108.213 18.4775 108.86 18.2356 109.334 17.7516Z" fill="#99A0AE"/>
<path d="M126.553 10.2874V14.5917C126.057 14.2586 125.416 14.0935 124.621 14.0935C123.581 14.0935 122.779 14.4152 122.221 15.0586C121.661 15.7019 121.382 16.704 121.382 18.059V21.7256H116.603V10.0682H121.285V13.7747C121.544 12.4196 121.965 11.4204 122.545 10.7742C123.122 10.1308 123.869 9.80917 124.777 9.80917C125.466 9.80917 126.057 9.9686 126.553 10.2874Z" fill="#99A0AE"/>
<path d="M142.435 7.37791V21.7255H137.654V19.1151C137.25 20.0972 136.637 20.8459 135.812 21.3583C134.987 21.8679 133.967 22.1241 132.757 22.1241C131.676 22.1241 130.734 21.8565 129.928 21.3184C129.123 20.7804 128.502 20.0431 128.064 19.1065C127.629 18.1699 127.409 17.111 127.409 15.9267C127.395 14.7055 127.626 13.6095 128.103 12.6387C128.577 11.668 129.248 10.9108 130.112 10.367C130.977 9.82329 131.963 9.55 133.07 9.55C135.347 9.55 136.874 10.5606 137.654 12.5789V7.37791H142.435ZM136.941 17.6718C137.429 17.1878 137.671 16.5587 137.671 15.7901C137.671 15.0471 137.434 14.4407 136.961 13.9767C136.486 13.5127 135.837 13.2792 135.02 13.2792C134.215 13.2792 133.571 13.5155 133.089 13.9881C132.607 14.4607 132.367 15.0727 132.367 15.8299C132.367 16.5872 132.607 17.2049 133.089 17.6832C133.571 18.1614 134.207 18.4005 135.001 18.4005C135.806 18.3977 136.453 18.1557 136.941 17.6718Z" fill="#99A0AE"/>
<path d="M68.3647 11.3091C69.6806 11.3091 70.7478 10.3303 70.7478 9.1228C70.7478 7.91534 69.6806 6.93653 68.3647 6.93653C67.0483 6.93653 65.9815 7.91534 65.9815 9.1228C65.9815 10.3303 67.0483 11.3091 68.3647 11.3091Z" fill="#99A0AE"/>
<path d="M65.9794 12.8152C67.4397 13.4586 69.2515 13.487 70.7453 12.8152V21.7881H65.9794V12.8152Z" fill="#99A0AE"/>
</svg>
