<svg width="94" height="31" viewBox="0 0 94 31" fill="none" xmlns="http://www.w3.org/2000/svg">
<path fill-rule="evenodd" clip-rule="evenodd" d="M12.4825 11.1415V14.4022L20.2755 14.3987C20.0364 16.1971 19.4301 17.5139 18.5083 18.4356C17.3718 19.5721 15.5976 20.823 12.4825 20.823C7.67988 20.823 3.92371 16.9525 3.92371 12.1499C3.92371 7.34725 7.67988 3.47673 12.4825 3.47673C15.0744 3.47673 16.9664 4.49547 18.3628 5.80528L20.6636 3.50445C18.7162 1.64369 16.1243 0.216064 12.486 0.216064C5.90921 0.216064 0.378906 5.57312 0.378906 12.1499C0.378906 18.7267 5.90921 24.0837 12.486 24.0837C16.0343 24.0837 18.7128 22.9194 20.8092 20.7364C22.9645 18.5811 23.6332 15.5561 23.6332 13.1097C23.6332 12.382 23.5778 11.7098 23.4704 11.1415H12.4825ZM78.219 23.6162V1.09298H74.9272V23.6162H78.219ZM32.6529 24.0873C36.9011 24.0873 40.3627 20.8266 40.3627 16.4017C40.3627 11.9456 36.9011 8.71608 32.6529 8.71608C28.4046 8.71608 24.943 11.9456 24.943 16.4017C24.943 20.8266 28.4046 24.0873 32.6529 24.0873ZM32.6529 11.7446C34.9814 11.7446 36.9877 13.6365 36.9877 16.4017C36.9877 19.1357 34.9814 21.0588 32.6529 21.0588C30.3243 21.0588 28.318 19.1391 28.318 16.4017C28.318 13.6365 30.3243 11.7446 32.6529 11.7446ZM49.2856 24.0873C53.5338 24.0873 56.9954 20.8266 56.9954 16.4017C56.9954 11.9456 53.5338 8.71608 49.2856 8.71608C45.0373 8.71608 41.5757 11.949 41.5757 16.4017C41.5757 20.8266 45.0373 24.0873 49.2856 24.0873ZM49.2856 11.7446C51.6141 11.7446 53.6204 13.6365 53.6204 16.4017C53.6204 19.1357 51.6141 21.0588 49.2856 21.0588C46.957 21.0588 44.9507 19.1391 44.9507 16.4017C44.9507 13.6365 46.957 11.7446 49.2856 11.7446ZM72.9352 9.18387V22.9785C72.9352 28.6543 69.5879 30.9725 65.6307 30.9725C61.9057 30.9725 59.6638 28.481 58.8183 26.4436L61.7567 25.2204C62.28 26.4713 63.562 27.9474 65.6272 27.9474C68.1602 27.9474 69.7299 26.3847 69.7299 23.4428V22.3374H69.6121C68.8567 23.2695 67.4014 24.0838 65.5649 24.0838C61.7221 24.0838 58.2015 20.7365 58.2015 16.4294C58.2015 12.0911 61.7221 8.71608 65.5649 8.71608C67.3979 8.71608 68.8533 9.53038 69.6121 10.4348H69.7299V9.18387H72.9352ZM69.969 16.4294C69.969 13.7232 68.1637 11.7446 65.8663 11.7446C63.5378 11.7446 61.5869 13.7232 61.5869 16.4294C61.5869 19.1079 63.5378 21.0588 65.8663 21.0588C68.1637 21.0588 69.969 19.1079 69.969 16.4294ZM91.0472 18.9312L93.6668 20.6776C92.8214 21.9285 90.7839 24.0838 87.2633 24.0838C82.8973 24.0838 79.6367 20.7088 79.6367 16.3982C79.6367 11.8278 82.925 8.71263 86.8856 8.71263C90.874 8.71263 92.8248 11.8867 93.4624 13.6019L93.8124 14.4751L83.5384 18.7303C84.3249 20.2722 85.5481 21.0588 87.2633 21.0588C88.982 21.0588 90.174 20.2133 91.0472 18.9312ZM82.9839 16.1661L89.8518 13.3143C89.4741 12.3545 88.3375 11.6857 87 11.6857C85.2848 11.6857 82.8973 13.1999 82.9839 16.1661Z" fill="#99A0AE"/>
</svg>
