<svg width="67" height="28" viewBox="0 0 67 28" fill="none" xmlns="http://www.w3.org/2000/svg">
<path fill-rule="evenodd" clip-rule="evenodd" d="M66.3192 14.5403C66.3192 9.85243 64.0485 6.15343 59.7086 6.15343C55.3503 6.15343 52.7134 9.85243 52.7134 14.5037C52.7134 20.0155 55.8264 22.7989 60.2945 22.7989C62.4737 22.7989 64.1217 22.3045 65.3669 21.6087V17.9463C64.1217 18.5689 62.6934 18.9534 60.8805 18.9534C59.1043 18.9534 57.5294 18.3308 57.328 16.17H66.2825C66.2825 15.932 66.3192 14.9798 66.3192 14.5403ZM57.2731 12.8006C57.2731 10.7314 58.5366 9.87074 59.6902 9.87074C60.8073 9.87074 61.9975 10.7314 61.9975 12.8006H57.2731Z" fill="#99A0AE"/>
<path fill-rule="evenodd" clip-rule="evenodd" d="M45.6449 6.15342C43.8503 6.15342 42.6967 6.99577 42.0558 7.58175L41.8177 6.44641H37.7891V27.7981L42.3671 26.8275L42.3854 21.6453C43.0446 22.1214 44.0151 22.7989 45.6266 22.7989C48.9044 22.7989 51.8892 20.162 51.8892 14.3571C51.8709 9.0467 48.8495 6.15342 45.6449 6.15342ZM44.5462 18.7703C43.4658 18.7703 42.8249 18.3858 42.3854 17.9097L42.3671 11.1159C42.8432 10.5849 43.5024 10.2187 44.5462 10.2187C46.2126 10.2187 47.3662 12.0865 47.3662 14.4853C47.3662 16.9391 46.2309 18.7703 44.5462 18.7703Z" fill="#99A0AE"/>
<path fill-rule="evenodd" clip-rule="evenodd" d="M31.4897 5.07298L36.086 4.08414V0.366821L31.4897 1.33735V5.07298Z" fill="#99A0AE"/>
<path d="M36.086 6.4647H31.4897V22.4876H36.086V6.4647Z" fill="#99A0AE"/>
<path fill-rule="evenodd" clip-rule="evenodd" d="M26.5636 7.81977L26.2706 6.46469H22.3153V22.4876H26.8932V11.6286C27.9736 10.2186 29.8048 10.475 30.3725 10.6764V6.46469C29.7865 6.24495 27.644 5.84208 26.5636 7.81977Z" fill="#99A0AE"/>
<path fill-rule="evenodd" clip-rule="evenodd" d="M17.4078 2.49098L12.9397 3.4432L12.9214 18.111C12.9214 20.8212 14.954 22.8172 17.6642 22.8172C19.1658 22.8172 20.2645 22.5425 20.8688 22.2129V18.4956C20.2828 18.7336 17.3895 19.576 17.3895 16.8658V10.3651H20.8688V6.46466H17.3895L17.4078 2.49098Z" fill="#99A0AE"/>
<path fill-rule="evenodd" clip-rule="evenodd" d="M5.02915 11.116C5.02915 10.4018 5.61513 10.1271 6.58566 10.1271C7.97736 10.1271 9.73531 10.5483 11.127 11.2991V6.99578C9.60712 6.39148 8.10555 6.15343 6.58566 6.15343C2.86835 6.15343 0.39624 8.09449 0.39624 11.3357C0.39624 16.3898 7.35476 15.5841 7.35476 17.7632C7.35476 18.6055 6.62228 18.8802 5.59682 18.8802C4.07693 18.8802 2.13587 18.2576 0.597671 17.4152V21.7735C2.30068 22.5059 4.022 22.8173 5.59682 22.8173C9.40569 22.8173 12.0243 20.9311 12.0243 17.6533C12.006 12.1964 5.02915 13.1669 5.02915 11.116Z" fill="#99A0AE"/>
</svg>
