<svg width="113" height="29" viewBox="0 0 113 29" fill="none" xmlns="http://www.w3.org/2000/svg">
<path fill-rule="evenodd" clip-rule="evenodd" d="M15.1099 0.236206C7.10493 0.236206 0.621246 6.71989 0.621246 14.7249C0.621246 21.1361 4.76863 26.5513 10.5279 28.471C11.2523 28.5978 11.524 28.1631 11.524 27.7828C11.524 27.4387 11.5059 26.2977 11.5059 25.0843C7.86559 25.7544 6.92382 24.1969 6.63405 23.3819C6.47105 22.9653 5.76473 21.6795 5.14896 21.3354C4.64186 21.0637 3.91742 20.3936 5.13085 20.3755C6.27183 20.3574 7.08682 21.4259 7.35848 21.8606C8.66247 24.052 10.7452 23.4362 11.5783 23.0559C11.7051 22.1141 12.0854 21.4802 12.502 21.118C9.27824 20.7558 5.90962 19.5062 5.90962 13.9642C5.90962 12.3886 6.47105 11.0846 7.39471 10.0704C7.24982 9.70818 6.74272 8.22309 7.53959 6.2309C7.53959 6.2309 8.75302 5.85057 11.524 7.71599C12.6831 7.38999 13.9146 7.227 15.1462 7.227C16.3777 7.227 17.6092 7.38999 18.7683 7.71599C21.5393 5.83246 22.7527 6.2309 22.7527 6.2309C23.5496 8.22309 23.0425 9.70818 22.8976 10.0704C23.8213 11.0846 24.3827 12.3705 24.3827 13.9642C24.3827 19.5243 20.996 20.7558 17.7722 21.118C18.2974 21.5708 18.7502 22.4401 18.7502 23.7984C18.7502 25.7363 18.7321 27.2938 18.7321 27.7828C18.7321 28.1631 19.0038 28.6159 19.7282 28.471C22.6045 27.5 25.1038 25.6515 26.8745 23.1856C28.6451 20.7197 29.5978 17.7606 29.5986 14.7249C29.5986 6.71989 23.1149 0.236206 15.1099 0.236206Z" fill="#99A0AE"/>
<path d="M68.1651 21.7182H68.1313C68.1465 21.7182 68.1566 21.7351 68.1718 21.7368H68.182L68.1651 21.7199V21.7182ZM68.1718 21.7368C68.0146 21.7385 67.6191 21.8213 67.2016 21.8213C65.8831 21.8213 65.4267 21.2128 65.4267 20.4183V15.1259H68.1144C68.2665 15.1259 68.3848 14.9906 68.3848 14.8047V11.9311C68.3848 11.779 68.2496 11.6437 68.1144 11.6437H65.4267V8.07712C65.4267 7.94189 65.3422 7.85737 65.1901 7.85737H61.5389C61.3868 7.85737 61.3023 7.94189 61.3023 8.07712V11.7452C61.3023 11.7452 59.4598 12.2016 59.3415 12.2185C59.2062 12.2523 59.1217 12.3706 59.1217 12.5058V14.8047C59.1217 14.9906 59.257 15.1259 59.4091 15.1259H61.2854V20.6702C61.2854 24.7946 64.159 25.2172 66.1198 25.2172C67.0156 25.2172 68.0975 24.9299 68.2665 24.8454C68.3679 24.8115 68.4186 24.6932 68.4186 24.5749V22.0394C68.421 21.9675 68.3973 21.8971 68.352 21.8412C68.3066 21.7854 68.2427 21.7477 68.1718 21.7351V21.7368ZM108.226 18.0164C108.226 14.9568 106.992 14.5511 105.691 14.6864C104.677 14.754 103.865 15.2611 103.865 15.2611V21.2111C103.865 21.2111 104.693 21.7858 105.927 21.8196C107.668 21.8703 108.226 21.2449 108.226 18.0164ZM112.334 17.7459C112.334 23.5438 110.458 25.2003 107.178 25.2003C104.406 25.2003 102.919 23.7973 102.919 23.7973C102.919 23.7973 102.851 24.5749 102.766 24.6763C102.716 24.7777 102.631 24.8115 102.53 24.8115H100.028C99.8591 24.8115 99.7069 24.6763 99.7069 24.5242L99.7408 5.74444C99.7408 5.59231 99.876 5.45708 100.028 5.45708H103.629C103.781 5.45708 103.916 5.59231 103.916 5.74444V12.117C103.916 12.117 105.302 11.2212 107.33 11.2212L107.314 11.1874C109.342 11.1874 112.334 11.948 112.334 17.7459ZM97.594 11.6437H94.0443C93.8583 11.6437 93.7569 11.779 93.7569 11.9649V21.1604C93.7569 21.1604 92.8272 21.8196 91.5595 21.8196C90.2917 21.8196 89.9198 21.2449 89.9198 19.9772V11.948C89.9198 11.7959 89.7846 11.6607 89.6325 11.6607H86.0151C85.863 11.6607 85.7278 11.7959 85.7278 11.948V20.5857C85.7278 24.3044 87.8069 25.2341 90.6636 25.2341C93.0132 25.2341 94.9233 23.9326 94.9233 23.9326C94.9233 23.9326 95.0078 24.5918 95.0585 24.6932C95.0923 24.7777 95.2106 24.8454 95.3289 24.8454H97.594C97.7799 24.8454 97.8814 24.7101 97.8814 24.558L97.9152 11.9311C97.9152 11.779 97.7799 11.6437 97.594 11.6437ZM57.5328 11.6268H53.9324C53.7802 11.6268 53.645 11.779 53.645 11.9649V24.3721C53.645 24.7101 53.8647 24.8284 54.1521 24.8284H57.3976C57.7356 24.8284 57.8202 24.6763 57.8202 24.3721V11.9142C57.8202 11.7621 57.6849 11.6268 57.5328 11.6268ZM55.7579 5.91347C54.4564 5.91347 53.4253 6.94458 53.4253 8.24615C53.4253 9.54772 54.4564 10.5788 55.7579 10.5788C57.0257 10.5788 58.0568 9.54772 58.0568 8.24615C58.0568 6.94458 57.0257 5.91347 55.7579 5.91347ZM83.6318 5.49089H80.0651C79.913 5.49089 79.7778 5.62611 79.7778 5.77825V12.6918H74.1827V5.77825C74.1827 5.62611 74.0475 5.49089 73.8954 5.49089H70.2949C70.1428 5.49089 70.0076 5.62611 70.0076 5.77825V24.558C70.0076 24.7101 70.1597 24.8454 70.2949 24.8454H73.8954C74.0475 24.8454 74.1827 24.7101 74.1827 24.558V16.5288H79.7778L79.7439 24.558C79.7439 24.7101 79.8792 24.8454 80.0313 24.8454H83.6318C83.7839 24.8454 83.9191 24.7101 83.9191 24.558V5.77825C83.9191 5.62611 83.7839 5.49089 83.6318 5.49089ZM51.7349 13.8074V23.51C51.7349 23.5776 51.718 23.6959 51.6335 23.7297C51.6335 23.7297 49.5206 25.2341 46.0384 25.2341C41.8295 25.2341 36.843 23.9157 36.843 15.2273C36.843 6.5389 41.2041 4.74713 45.4637 4.76404C49.1487 4.76404 50.6362 5.59231 50.8728 5.74444C50.9404 5.82896 50.9743 5.89657 50.9743 5.98109L50.2643 8.9899C50.2643 9.14203 50.1122 9.32797 49.9262 9.27726C49.3177 9.09132 48.4049 8.71945 46.2582 8.71945C43.7734 8.71945 41.1026 9.42939 41.1026 15.0244C41.1026 20.6195 43.6382 21.2787 45.4637 21.2787C47.0188 21.2787 47.5767 21.0928 47.5767 21.0928V17.205H45.0919C44.9059 17.205 44.7707 17.0698 44.7707 16.9176V13.8074C44.7707 13.6553 44.9059 13.52 45.0919 13.52H51.4137C51.5997 13.52 51.7349 13.6553 51.7349 13.8074Z" fill="#99A0AE"/>
</svg>
