<svg width="85" height="24" viewBox="0 0 85 24" fill="none" xmlns="http://www.w3.org/2000/svg">
<path fill-rule="evenodd" clip-rule="evenodd" d="M21.4138 0C21.8231 0 22.1552 0.336 22.1552 0.75V11.558C22.1552 11.972 21.8231 12.308 21.4138 12.308H17.5083C17.099 12.308 16.7669 12.643 16.7669 13.058V17.096C16.7669 17.51 16.4348 17.846 16.0255 17.846H11.52C11.1107 17.846 10.7786 17.51 10.7786 17.096V13.058C10.7786 12.643 10.4465 12.308 10.0372 12.308H6.7297C6.31947 12.308 5.98832 12.643 5.98832 13.058V23.25C5.98832 23.664 5.65619 24 5.24695 24H0.741374C0.332136 24 0 23.664 0 23.25V12.442C0 12.028 0.332136 11.692 0.741374 11.692H4.64792C5.05716 11.692 5.38929 11.357 5.38929 10.942V6.904C5.38929 6.49 5.72143 6.154 6.13067 6.154H10.6362C11.0455 6.154 11.3776 6.49 11.3776 6.904V10.942C11.3776 11.357 11.7098 11.692 12.119 11.692H15.4265C15.8357 11.692 16.1669 11.357 16.1669 10.942V0.75C16.1669 0.336 16.499 0 16.9083 0H21.4138ZM81.0569 8.5C81.5244 8.5 81.99 8.556 82.4536 8.667C82.9172 8.778 83.3403 8.96 83.7229 9.216C84.1064 9.467 84.4138 9.811 84.6461 10.245C84.8814 10.68 85 11.223 85 11.875V18.446H82.8016V17.098H82.7255C82.5861 17.37 82.3894 17.626 82.1373 17.864C81.8882 18.099 81.5749 18.289 81.1963 18.434C80.8206 18.574 80.3807 18.645 79.8756 18.645C79.2608 18.645 78.7062 18.534 78.214 18.313C77.7256 18.087 77.3372 17.754 77.0505 17.315C76.7688 16.876 76.6284 16.335 76.6284 15.691C76.6284 15.137 76.7292 14.68 76.9309 14.317C77.1335 13.955 77.4093 13.665 77.7583 13.448C78.1082 13.231 78.5016 13.067 78.9395 12.956C79.3824 12.841 79.84 12.757 80.3116 12.706C80.8799 12.646 81.3416 12.594 81.6955 12.547C82.0493 12.496 82.3063 12.419 82.4665 12.316C82.6306 12.21 82.7126 12.046 82.7126 11.824V11.786C82.7126 11.305 82.5723 10.931 82.2895 10.667C82.0078 10.403 81.6006 10.271 81.0697 10.271C80.5093 10.271 80.0644 10.394 79.7362 10.642C79.412 10.889 79.1926 11.181 79.0789 11.518L76.9437 11.211C77.1118 10.614 77.3905 10.115 77.778 9.715C78.1655 9.31 78.639 9.008 79.1995 8.808C79.76 8.603 80.3788 8.5 81.0569 8.5ZM82.7195 13.768C82.6474 13.827 82.5248 13.882 82.3528 13.934C82.1838 13.985 81.994 14.029 81.7834 14.067C81.5729 14.106 81.3643 14.14 81.1587 14.17C80.9521 14.2 80.7732 14.226 80.6219 14.247C80.2799 14.294 79.9745 14.37 79.7046 14.477C79.4348 14.583 79.2222 14.733 79.066 14.925C78.9109 15.112 78.8328 15.355 78.8328 15.653C78.8328 16.079 78.987 16.401 79.2944 16.618C79.6018 16.835 79.9933 16.944 80.4687 16.944C80.9284 16.944 81.3267 16.852 81.6638 16.669C82.0009 16.482 82.2599 16.234 82.4408 15.928C82.6266 15.621 82.7195 15.287 82.7195 14.925V13.768ZM44.9945 8.5C45.5925 8.5 46.157 8.598 46.6868 8.794C47.2226 8.986 47.6951 9.285 48.1033 9.689C48.5165 10.094 48.8407 10.61 49.076 11.236C49.3122 11.858 49.4299 12.6 49.4299 13.461V14.17H42.6695C42.6764 14.717 42.7793 15.188 42.9789 15.583C43.1845 15.988 43.4742 16.298 43.8439 16.516C44.2146 16.729 44.6485 16.836 45.1457 16.836C45.4779 16.836 45.7793 16.789 46.0492 16.695C46.3191 16.597 46.5533 16.454 46.751 16.267C46.9487 16.079 47.099 15.847 47.1998 15.57L49.335 15.813C49.2005 16.383 48.9425 16.882 48.5639 17.309C48.1893 17.73 47.7089 18.059 47.1237 18.293C46.5385 18.523 45.8683 18.638 45.1151 18.638C44.1414 18.638 43.3012 18.434 42.5934 18.024C41.8896 17.611 41.3489 17.028 40.9693 16.273C40.5907 15.515 40.4009 14.622 40.4009 13.595C40.4009 12.585 40.5907 11.698 40.9693 10.936C41.3528 10.169 41.8876 9.572 42.5736 9.146C43.2607 8.715 44.0673 8.5 44.9945 8.5ZM45.0261 10.303C44.5585 10.303 44.1483 10.418 43.7944 10.648C43.4406 10.874 43.1638 11.172 42.9661 11.543C42.7931 11.87 42.6962 12.226 42.6745 12.61H47.2374C47.2334 12.167 47.1385 11.773 46.9527 11.428C46.7678 11.078 46.5079 10.804 46.1757 10.604C45.8476 10.403 45.464 10.303 45.0261 10.303ZM64.3216 8.5C65.2696 8.5 66.091 8.711 66.7859 9.133C67.4818 9.555 68.0186 10.147 68.3972 10.91C68.7807 11.673 68.9715 12.561 68.9715 13.575C68.9715 14.589 68.7807 15.476 68.3972 16.234C68.0186 16.993 67.4808 17.583 66.7859 18.005C66.091 18.427 65.2696 18.638 64.3216 18.638C63.3746 18.638 62.5522 18.427 61.8573 18.005C61.1624 17.583 60.6226 16.993 60.2391 16.234C59.8605 15.476 59.6707 14.589 59.6707 13.575C59.6707 12.561 59.8605 11.673 60.2391 10.91C60.6226 10.147 61.1624 9.555 61.8573 9.133C62.5522 8.711 63.3746 8.5 64.3216 8.5ZM64.3345 10.335C63.8076 10.335 63.3697 10.48 63.0197 10.769C62.6748 11.059 62.4148 11.45 62.2428 11.939C62.0738 12.425 61.9907 12.969 61.9907 13.569C61.9907 14.166 62.0747 14.707 62.2428 15.192C62.4148 15.678 62.6748 16.067 63.0197 16.356C63.3697 16.642 63.8076 16.784 64.3345 16.784C64.8485 16.784 65.2775 16.642 65.6235 16.356C65.9684 16.067 66.2254 15.678 66.3945 15.192C66.5675 14.707 66.6535 14.166 66.6535 13.569C66.6535 12.969 66.5675 12.425 66.3945 11.939C66.2254 11.449 65.9684 11.059 65.6235 10.769C65.2775 10.48 64.8485 10.335 64.3345 10.335ZM36.2749 14.278H36.3896V5.355H38.7205V18.446H36.6357L30.5387 9.529H30.4299V18.446H28.0862V5.355H30.1838L36.2749 14.278ZM54.6304 12.253L56.6192 8.628H59.0401L56.1151 13.537L59.0905 18.446H56.6835L54.6304 14.911L52.595 18.446H50.1683L53.1259 13.537L50.2444 8.628H52.6702L54.6304 12.253ZM75.2712 8.487C75.3977 8.487 75.5391 8.494 75.6943 8.507C75.8544 8.515 75.9879 8.53 76.0936 8.552V10.68C75.9968 10.646 75.8426 10.616 75.632 10.591C75.4254 10.561 75.2247 10.546 75.031 10.546C74.6138 10.546 74.2392 10.637 73.9071 10.82C73.5779 10.999 73.3189 11.249 73.1291 11.568C72.9403 11.888 72.8444 12.257 72.8444 12.675V18.446H70.558V8.628H72.7752V10.265H72.8771C73.054 9.698 73.3565 9.261 73.7865 8.954C74.2204 8.643 74.7157 8.487 75.2712 8.487Z" fill="white"/>
</svg>
