<svg width="33" height="32" viewBox="0 0 33 32" fill="none" xmlns="http://www.w3.org/2000/svg">
<path d="M16.9997 3C9.82024 3 4 8.84174 4 16.0478C4 22.1666 8.19736 27.3012 13.8595 28.7114V20.0351H11.179V16.0478H13.8595V14.3296C13.8595 9.88869 15.862 7.83028 20.206 7.83028C21.0297 7.83028 22.4508 7.99259 23.0321 8.15439V11.7686C22.7253 11.7363 22.1924 11.7201 21.5304 11.7201C19.399 11.7201 18.5753 12.5306 18.5753 14.6376V16.0478H22.8215L22.092 20.0351H18.5753V29C25.0123 28.2197 30 22.7188 30 16.0478C29.9995 8.84174 24.1792 3 16.9997 3Z" fill="white"/>
</svg>
