<svg width="21" height="14" viewBox="0 0 21 14" fill="none" xmlns="http://www.w3.org/2000/svg">
<path d="M13.2967 0.963228C13.6262 0.633692 14.1483 0.613266 14.5017 0.901705L14.5701 0.963228L19.9695 6.36362C20.321 6.71509 20.321 7.28461 19.9695 7.63608L14.5701 13.0365C14.2186 13.3879 13.6481 13.3879 13.2967 13.0365C12.9454 12.6851 12.9456 12.1155 13.2967 11.764L18.0603 6.99936L13.2967 2.23667L13.2351 2.16831C12.9467 1.81481 12.9671 1.29278 13.2967 0.963228Z" fill="currentColor"/>
<path d="M6.16581 0.901705C6.5192 0.613761 7.0405 0.634108 7.36991 0.963228C7.72112 1.31464 7.7211 1.88524 7.36991 2.23667L2.60624 6.99936L7.36991 11.764L7.43241 11.8324C7.72008 12.1858 7.699 12.7072 7.36991 13.0365C7.04046 13.3657 6.51923 13.3861 6.16581 13.098L6.09745 13.0365L0.69706 7.63608C0.345947 7.28465 0.345881 6.71501 0.69706 6.36362L6.09745 0.963228L6.16581 0.901705Z" fill="currentColor"/>
</svg>
