<svg width="16" height="18" viewBox="0 0 16 18" fill="none" xmlns="http://www.w3.org/2000/svg">
<path fill-rule="evenodd" clip-rule="evenodd" d="M8 0.75C9.19347 0.75 10.3377 1.22445 11.1816 2.06836C12.0256 2.91227 12.5 4.05653 12.5 5.25V7.5H13.25C14.4926 7.5 15.5 8.50736 15.5 9.75V15C15.5 16.2426 14.4926 17.25 13.25 17.25H2.75C1.50736 17.25 0.5 16.2426 0.5 15V9.75C0.5 8.50736 1.50736 7.5 2.75 7.5H3.5V5.25C3.5 4.05653 3.97445 2.91227 4.81836 2.06836C5.66227 1.22445 6.80653 0.75 8 0.75ZM2.75 9C2.33579 9 2 9.33579 2 9.75V15C2 15.4142 2.33579 15.75 2.75 15.75H13.25C13.6642 15.75 14 15.4142 14 15V9.75C14 9.33579 13.6642 9 13.25 9H2.75ZM8 2.25C7.20435 2.25 6.44152 2.5663 5.87891 3.12891C5.3163 3.69152 5 4.45435 5 5.25V7.5H11V5.25C11 4.45435 10.6837 3.69152 10.1211 3.12891C9.55848 2.5663 8.79565 2.25 8 2.25Z" fill="currentColor"/>
</svg>
