<svg width="23" height="22" viewBox="0 0 23 22" fill="none" xmlns="http://www.w3.org/2000/svg">
<path d="M11.6667 0.0996094C17.6866 0.0996094 22.567 4.9801 22.567 11C22.567 13.9543 21.3887 16.6315 19.4801 18.5947C19.4507 18.6365 19.4189 18.6775 19.3815 18.7148C19.3441 18.7522 19.3032 18.7841 19.2614 18.8135C17.2982 20.722 14.621 21.9004 11.6667 21.9004C8.71211 21.9004 6.03419 20.7223 4.07095 18.8135C4.02942 18.7842 3.98898 18.752 3.95181 18.7148C3.9143 18.6773 3.88171 18.6367 3.8522 18.5947C1.94391 16.6316 0.766266 13.9541 0.766266 11C0.766266 4.9801 5.64675 0.0996094 11.6667 0.0996094ZM8.6647 16.9023C8.20766 16.9068 7.94605 16.92 7.7272 16.959L7.60025 16.9854C7.36305 17.0423 7.13351 17.1278 6.91666 17.2383L6.70377 17.3564C6.48693 17.4893 6.28601 17.6629 5.90103 18.04C7.47076 19.3271 9.47832 20.0996 11.6667 20.0996C13.8547 20.0996 15.8617 19.3268 17.4313 18.04C17.1114 17.7267 16.9192 17.5535 16.7389 17.4277L16.6295 17.3564C16.4217 17.2291 16.1997 17.127 15.9684 17.0518L15.7331 16.9854C15.4838 16.9256 15.2167 16.9077 14.6686 16.9023L14.0153 16.9004H9.31802L8.6647 16.9023ZM12.7663 11C12.7663 10.3925 12.2742 9.90039 11.6667 9.90039C11.0591 9.90039 10.567 10.3925 10.567 11C10.567 11.6075 11.0591 12.0996 11.6667 12.0996C12.2742 12.0996 12.7663 11.6075 12.7663 11ZM10.7663 3.5V1.94434C8.90949 2.12671 7.2163 2.86659 5.85709 3.99512L6.96158 5.09961L7.0231 5.16797C7.31153 5.52142 7.29102 6.04348 6.96158 6.37305C6.63203 6.7026 6.11 6.72301 5.7565 6.43457L5.68814 6.37305L4.59244 5.27734C3.50361 6.62166 2.79054 8.28182 2.61197 10.0996H4.16666L4.25845 10.1045C4.7124 10.1505 5.06705 10.5339 5.06705 11C5.06705 11.4661 4.7124 11.8495 4.25845 11.8955L4.16666 11.9004H2.61197C2.79252 13.7384 3.51923 15.4155 4.62857 16.7676C5.04586 16.3579 5.38121 16.0564 5.76334 15.8223L5.92935 15.7246C6.32132 15.5051 6.74193 15.3404 7.17935 15.2354L7.40201 15.1895C7.92633 15.096 8.49944 15.0996 9.31802 15.0996H14.0153L14.6618 15.1016C15.2568 15.1066 15.713 15.1295 16.154 15.2354L16.3405 15.2842C16.7728 15.4062 17.1865 15.5873 17.57 15.8223L17.7604 15.9463C18.0678 16.1607 18.3571 16.4273 18.7038 16.7676C19.8133 15.4154 20.5408 13.7386 20.7213 11.9004H19.1667C18.6696 11.9004 18.2663 11.4971 18.2663 11C18.2663 10.5029 18.6696 10.0996 19.1667 10.0996H20.7213C20.5425 8.27915 19.8275 6.61684 18.736 5.27148L14.2516 9.69238C14.451 10.0857 14.567 10.5289 14.567 11C14.567 12.6016 13.2683 13.9004 11.6667 13.9004C10.065 13.9004 8.76627 12.6016 8.76627 11C8.76627 9.39837 10.065 8.09961 11.6667 8.09961C12.1407 8.09961 12.587 8.21626 12.9821 8.41797L17.4713 3.99121C16.1129 2.86493 14.4216 2.1265 12.567 1.94434V3.5C12.567 3.99706 12.1637 4.40039 11.6667 4.40039C11.1696 4.40039 10.7663 3.99706 10.7663 3.5Z" fill="currentColor"/>
</svg>
