<svg width="12" height="18" viewBox="0 0 12 18" fill="none" xmlns="http://www.w3.org/2000/svg">
<path fill-rule="evenodd" clip-rule="evenodd" d="M6 0C6.41421 0 6.75 0.335786 6.75 0.75V3H9.75C10.1642 3 10.5 3.33579 10.5 3.75C10.5 4.16421 10.1642 4.5 9.75 4.5H6.75V8.25H7.875L8.04199 8.25391C8.8763 8.2952 9.66825 8.64482 10.2617 9.23828C10.8947 9.87122 11.25 10.7299 11.25 11.625C11.25 12.5201 10.8947 13.3788 10.2617 14.0117C9.66825 14.6052 8.8763 14.9548 8.04199 14.9961L7.875 15H6.75V17.25C6.75 17.6642 6.41421 18 6 18C5.58579 18 5.25 17.6642 5.25 17.25V15H1.5C1.08579 15 0.75 14.6642 0.75 14.25C0.75 13.8358 1.08579 13.5 1.5 13.5H5.25V9.75H4.125C3.22989 9.75 2.37122 9.39465 1.73828 8.76172C1.14482 8.16825 0.795203 7.3763 0.753906 6.54199L0.75 6.375C0.75 5.47989 1.10535 4.62122 1.73828 3.98828C2.37122 3.35535 3.22989 3 4.125 3H5.25V0.75C5.25 0.335786 5.58579 0 6 0ZM6.75 13.5H7.875L8.06055 13.4912C8.48971 13.4486 8.89354 13.2588 9.20117 12.9512C9.5528 12.5995 9.75 12.1223 9.75 11.625C9.75 11.1277 9.5528 10.6505 9.20117 10.2988C8.89354 9.9912 8.48971 9.80144 8.06055 9.75879L7.875 9.75H6.75V13.5ZM4.125 4.5C3.62772 4.5 3.15046 4.6972 2.79883 5.04883C2.4472 5.40046 2.25 5.87772 2.25 6.375L2.25879 6.56055C2.30144 6.98971 2.4912 7.39354 2.79883 7.70117C3.15046 8.0528 3.62772 8.25 4.125 8.25H5.25V4.5H4.125Z" fill="currentColor"/>
</svg>
