<svg width="15" height="16" viewBox="0 0 15 16" fill="none" xmlns="http://www.w3.org/2000/svg">
<path d="M4.5 3.5C4.5 2.67157 3.82843 2 3 2C2.17157 2 1.5 2.67157 1.5 3.5C1.5 4.32843 2.17157 5 3 5C3.82843 5 4.5 4.32843 4.5 3.5ZM13.5 12.5C13.5 11.6716 12.8284 11 12 11C11.1716 11 10.5 11.6716 10.5 12.5C10.5 13.3284 11.1716 14 12 14C12.8284 14 13.5 13.3284 13.5 12.5ZM15 12.5C15 14.1569 13.6569 15.5 12 15.5C10.3431 15.5 9 14.1569 9 12.5C9 11.1024 9.95646 9.93095 11.25 9.59766V5C11.25 4.80109 11.1709 4.61038 11.0303 4.46973C10.9249 4.36435 10.7914 4.29352 10.6475 4.26465L10.5 4.25H8.25C7.83579 4.25 7.5 3.91421 7.5 3.5C7.5 3.08579 7.83579 2.75 8.25 2.75H10.5L10.7227 2.76074C11.2376 2.81193 11.7217 3.04003 12.0908 3.40918C12.5128 3.83114 12.75 4.40326 12.75 5V9.59766C14.0435 9.93095 15 11.1024 15 12.5ZM6 3.5C6 4.89752 5.04342 6.06799 3.75 6.40137V14.75C3.75 15.1642 3.41421 15.5 3 15.5C2.58579 15.5 2.25 15.1642 2.25 14.75V6.40137C0.956585 6.06799 0 4.89752 0 3.5C0 1.84315 1.34315 0.5 3 0.5C4.65685 0.5 6 1.84315 6 3.5Z" fill="currentColor"/>
</svg>
