<svg width="18" height="18" viewBox="0 0 18 18" fill="none" xmlns="http://www.w3.org/2000/svg">
<path fill-rule="evenodd" clip-rule="evenodd" d="M0.219707 0.21967C0.5126 -0.0732233 0.987361 -0.0732233 1.28025 0.21967L17.7803 16.7197L17.832 16.7763C18.0722 17.0709 18.0548 17.5057 17.7803 17.7802C17.5057 18.0547 17.0709 18.0721 16.7763 17.832L16.7197 17.7802L13.3691 14.4296C12.0719 15.2645 10.5638 15.7245 9.01268 15.7499H8.99998C6.07541 15.7499 3.82862 14.0798 2.35936 12.5126C1.61805 11.7219 1.05167 10.9342 0.670879 10.3447C0.480159 10.0494 0.334193 9.80166 0.235332 9.62592C0.185909 9.53806 0.148139 9.46721 0.122051 9.41791C0.109138 9.39351 0.0989054 9.37416 0.0917772 9.3603C0.0882663 9.35347 0.085079 9.34781 0.0829881 9.34369C0.0819702 9.34169 0.081035 9.33783 0.081035 9.33783L0.0790819 9.33588C-0.0296407 9.11811 -0.0261391 8.85999 0.0888475 8.64545C0.937488 7.06393 2.07005 5.65497 3.42674 4.48725L0.219707 1.28022C-0.0731581 0.987352 -0.0731015 0.51257 0.219707 0.21967ZM4.49021 5.55072C3.33801 6.52545 2.36238 7.6927 1.6074 9.00092C1.68922 9.14225 1.79664 9.32271 1.93064 9.53022C2.27641 10.0656 2.78837 10.7782 3.45311 11.4872C4.79464 12.9182 6.66993 14.2456 8.99119 14.249C10.1511 14.2294 11.2809 13.9132 12.2773 13.3378L10.5361 11.5966C10.4171 11.6712 10.2938 11.7394 10.165 11.7968C9.79713 11.9607 9.39974 12.0485 8.99705 12.0556C8.59427 12.0627 8.19382 11.9887 7.82029 11.8378C7.44677 11.687 7.10711 11.4625 6.82225 11.1777C6.53741 10.8928 6.31297 10.5531 6.16209 10.1796C6.01124 9.80614 5.93723 9.40562 5.94432 9.00287C5.95146 8.60021 6.03922 8.20277 6.20311 7.8349C6.26055 7.70599 6.32771 7.58187 6.40232 7.46283L4.49021 5.55072ZM7.52049 8.581C7.47235 8.72527 7.44705 8.87662 7.44432 9.02924C7.44078 9.2306 7.47729 9.43138 7.55271 9.61811C7.62815 9.80479 7.74042 9.97475 7.88279 10.1171C8.02518 10.2595 8.19512 10.3718 8.38182 10.4472C8.56857 10.5226 8.7693 10.5592 8.97068 10.5556C9.12313 10.5529 9.27383 10.5265 9.41795 10.4785L7.52049 8.581Z" fill="currentColor"/>
<path d="M8.99998 2.25092C11.9246 2.25092 14.1713 3.92004 15.6406 5.48725C16.3819 6.27798 16.9483 7.06565 17.3291 7.65522C17.5198 7.95053 17.6658 8.19825 17.7646 8.37397C17.8141 8.46185 17.8518 8.53269 17.8779 8.58197C17.8908 8.60639 17.9011 8.62574 17.9082 8.63959C17.9117 8.64642 17.9149 8.6521 17.917 8.65619C17.918 8.65824 17.9189 8.66205 17.9189 8.66205L17.9209 8.66401C18.0294 8.88149 18.0257 9.13908 17.9111 9.35346C17.4313 10.251 16.8593 11.0962 16.2041 11.8749L16.1513 11.9316C15.8786 12.1959 15.4445 12.2163 15.1474 11.9667C14.8305 11.7001 14.789 11.2261 15.0556 10.9091C15.5573 10.313 16.0036 9.67301 16.3916 8.99799C16.3098 8.85684 16.203 8.67662 16.0693 8.46967C15.7236 7.93431 15.2116 7.22171 14.5469 6.51264C13.2036 5.07986 11.3253 3.74995 8.99998 3.74994H8.99803C8.52603 3.74885 8.05526 3.80253 7.59568 3.9101C7.1925 4.00434 6.78876 3.75368 6.69432 3.35053C6.60022 2.94746 6.85089 2.54464 7.25389 2.45014C7.82617 2.31618 8.41224 2.24968 8.99998 2.25092Z" fill="currentColor"/>
</svg>
