<svg width="17" height="20" viewBox="0 0 17 20" fill="none" xmlns="http://www.w3.org/2000/svg">
<path d="M9.07129 19.8048C8.81797 19.9315 8.51994 19.9314 8.2666 19.8048L8.66895 19.0001L9.07129 19.8048ZM14.9688 4.32337L8.66797 1.96107L2.36914 4.32337V10.0001L2.37305 10.215C2.46548 12.4243 3.96959 14.3677 5.66113 15.8478C6.51525 16.5951 7.37384 17.1858 8.02051 17.59C8.27479 17.7489 8.4957 17.8771 8.66797 17.9747C8.84036 17.877 9.06163 17.7492 9.31641 17.59C9.96305 17.1858 10.8216 16.5951 11.6758 15.8478C13.422 14.3198 14.9687 12.2983 14.9688 10.0001V4.32337ZM16.7686 10.0001C16.7686 13.1019 14.7151 15.5802 12.8613 17.2023C11.9155 18.0299 10.9738 18.6768 10.2705 19.1163C9.91801 19.3366 9.62306 19.5065 9.41406 19.6222C9.30955 19.6801 9.22624 19.7244 9.16797 19.755C9.13883 19.7703 9.11587 19.7828 9.09961 19.7911L9.07227 19.8048L8.66895 19.0001L8.26562 19.8048H8.26465L8.25684 19.8009C8.2522 19.7986 8.24608 19.7951 8.23828 19.7911C8.22206 19.7828 8.19897 19.7703 8.16992 19.755C8.11169 19.7244 8.0283 19.68 7.92383 19.6222C7.7148 19.5065 7.419 19.3367 7.06641 19.1163C6.36317 18.6768 5.42216 18.0297 4.47656 17.2023C2.68074 15.6309 0.696458 13.2561 0.574219 10.2892L0.568359 10.0001V3.70033L0.579102 3.56166C0.628399 3.24434 0.845154 2.97291 1.15234 2.85755L8.35254 0.157359L8.50879 0.11439C8.66732 0.085762 8.83167 0.100169 8.98438 0.157359L16.1846 2.85755L16.3105 2.91615C16.5905 3.07379 16.7686 3.37203 16.7686 3.70033V10.0001Z" fill="currentColor"/>
</svg>
