<svg width="18" height="18" viewBox="0 0 18 18" fill="none" xmlns="http://www.w3.org/2000/svg">
<path d="M16.683 0.225945C16.9843 -0.0753151 17.4726 -0.0753151 17.7739 0.225945C18.0751 0.527206 18.0751 1.01553 17.7739 1.31679L10.0908 8.99991L17.7739 16.683L17.8271 16.7413C18.0743 17.0443 18.0563 17.4914 17.7739 17.7739C17.4914 18.0563 17.0443 18.0743 16.7413 17.8271L16.683 17.7739L8.99991 10.0908L1.31679 17.7739C1.01553 18.0751 0.527206 18.0751 0.225945 17.7739C-0.0753151 17.4726 -0.0753151 16.9843 0.225945 16.683L7.90907 8.99991L0.225945 1.31679C-0.0753151 1.01553 -0.0753151 0.527206 0.225945 0.225945C0.527206 -0.0753151 1.01553 -0.0753151 1.31679 0.225945L8.99991 7.90907L16.683 0.225945Z" fill="currentColor"/>
</svg>
