<svg width="19" height="16" viewBox="0 0 19 16" fill="none" xmlns="http://www.w3.org/2000/svg">
<path d="M9.64454 0.427734C9.98086 0.449373 10.3087 0.546039 10.6035 0.711914C10.8984 0.877915 11.1517 1.10835 11.3447 1.38477L11.4238 1.50586L11.4258 1.50977L17.7783 12.1143L17.7842 12.125L17.8535 12.2549C18.005 12.562 18.085 12.9004 18.0859 13.2441C18.087 13.6368 17.9855 14.0231 17.791 14.3643C17.5965 14.7055 17.3161 14.9902 16.9775 15.1895C16.6389 15.3887 16.2532 15.4957 15.8604 15.5H3.13966C2.74697 15.4957 2.36194 15.3885 2.02345 15.1895C1.68484 14.9902 1.40354 14.7056 1.20899 14.3643C1.01455 14.0231 0.913048 13.6368 0.91407 13.2441C0.91517 12.8513 1.01937 12.4652 1.21583 12.125L1.22169 12.1143L7.57423 1.50977L8.21778 1.89453L7.57618 1.50586C7.77673 1.17523 8.05952 0.901629 8.39649 0.711914C8.73336 0.522331 9.11346 0.422865 9.50001 0.422852L9.64454 0.427734ZM9.4043 1.92871C9.3089 1.94099 9.21618 1.97205 9.13184 2.01953C9.02103 2.08199 8.92699 2.17099 8.86036 2.2793L8.86134 2.28027L2.51173 12.8799C2.44807 12.9921 2.41443 13.119 2.41407 13.248C2.41373 13.3789 2.44793 13.5074 2.5127 13.6211C2.57755 13.7349 2.67132 13.8301 2.78419 13.8965C2.89696 13.9628 3.02546 13.9986 3.15626 14H15.8447C15.9755 13.9985 16.104 13.9628 16.2168 13.8965C16.3296 13.8301 16.4225 13.7348 16.4873 13.6211C16.5521 13.5074 16.5863 13.3789 16.5859 13.248C16.5856 13.1188 16.5511 12.9922 16.4873 12.8799L10.1416 2.28418L10.0859 2.20508C10.0261 2.13007 9.95231 2.06694 9.86817 2.01953C9.75585 1.95629 9.62891 1.92285 9.50001 1.92285L9.4043 1.92871Z" fill="currentColor"/>
</svg>
