<svg width="20" height="20" viewBox="0 0 20 20" fill="none" xmlns="http://www.w3.org/2000/svg">
<path d="M10 0.0996094C15.4676 0.0996095 19.9004 4.53238 19.9004 10C19.9004 15.4676 15.4676 19.9004 10 19.9004C4.53238 19.9004 0.0996095 15.4676 0.0996094 10C0.0996094 4.53238 4.53238 0.0996094 10 0.0996094ZM10 1.90039C5.52649 1.90039 1.90039 5.52649 1.90039 10C1.90039 14.4735 5.52649 18.0996 10 18.0996C14.4735 18.0996 18.0996 14.4735 18.0996 10C18.0996 5.52649 14.4735 1.90039 10 1.90039ZM10 3.69922C10.4971 3.69922 10.9004 4.10255 10.9004 4.59961V9.44238L14.0029 10.9941C14.4474 11.2165 14.6275 11.7576 14.4053 12.2021C14.183 12.6467 13.6418 12.8268 13.1973 12.6045L9.59766 10.8047C9.29287 10.6523 9.09976 10.3407 9.09961 10V4.59961C9.09961 4.10255 9.50294 3.69922 10 3.69922Z" fill="currentColor"/>
</svg>
