<svg width="20" height="20" viewBox="0 0 20 20" fill="none" xmlns="http://www.w3.org/2000/svg">
<path d="M10.0996 13.6045C10.5536 13.6504 10.9082 14.0339 10.9082 14.5C10.9082 14.9661 10.5536 15.3496 10.0996 15.3955L10.0078 15.4004H10C9.50294 15.4004 9.09961 14.9971 9.09961 14.5C9.09961 14.0029 9.50294 13.5996 10 13.5996H10.0078L10.0996 13.6045Z" fill="currentColor"/>
<path d="M8.10352 5.09375C8.8363 4.66318 9.69843 4.50485 10.5361 4.64844C11.3739 4.79225 12.1342 5.22863 12.6816 5.87891C13.2287 6.52894 13.5293 7.35157 13.5283 8.20117L13.5166 8.4541C13.4017 9.69064 12.461 10.5187 11.7773 10.9746C11.3854 11.2359 10.9989 11.4284 10.7148 11.5547C10.5719 11.6182 10.4511 11.6671 10.3643 11.7002C10.321 11.7167 10.2854 11.7292 10.2598 11.7383C10.2472 11.7427 10.2364 11.7463 10.2285 11.749C10.2248 11.7503 10.2213 11.752 10.2188 11.7529L10.2148 11.7539L10.2139 11.7549L10.124 11.7793C9.67887 11.8793 9.2217 11.6276 9.07422 11.1855C8.92691 10.7435 9.14164 10.2683 9.55762 10.0811L9.64355 10.0469C9.64606 10.0461 9.65067 10.045 9.65625 10.043C9.67014 10.038 9.69363 10.029 9.72363 10.0176C9.78432 9.99445 9.87494 9.9588 9.98438 9.91016C10.2064 9.81147 10.4957 9.66594 10.7783 9.47754C11.3987 9.06389 11.7274 8.62328 11.7275 8.20117L11.7207 8.04102C11.6887 7.6732 11.544 7.32255 11.3047 7.03809C11.0311 6.71306 10.6511 6.49484 10.2324 6.42285C9.81356 6.35101 9.38204 6.43025 9.01562 6.64551C8.6493 6.86089 8.37053 7.19874 8.22949 7.59961C8.0646 8.06835 7.5508 8.31502 7.08203 8.15039C6.61318 7.98542 6.36729 7.47082 6.53223 7.00195C6.81437 6.20035 7.37092 5.52442 8.10352 5.09375Z" fill="currentColor"/>
<path fill-rule="evenodd" clip-rule="evenodd" d="M10 0.0996094C15.4676 0.0996095 19.9004 4.53238 19.9004 10C19.9004 15.4676 15.4676 19.9004 10 19.9004C4.53238 19.9004 0.0996095 15.4676 0.0996094 10C0.0996094 4.53238 4.53238 0.0996094 10 0.0996094ZM10 1.90039C5.52649 1.90039 1.90039 5.52649 1.90039 10C1.90039 14.4735 5.52649 18.0996 10 18.0996C14.4735 18.0996 18.0996 14.4735 18.0996 10C18.0996 5.52649 14.4735 1.90039 10 1.90039Z" fill="currentColor"/>
</svg>
