<svg width="20" height="20" viewBox="0 0 20 20" fill="none" xmlns="http://www.w3.org/2000/svg">
<path d="M10 0.0996094C15.4676 0.0996095 19.9004 4.53238 19.9004 10C19.9004 15.4676 15.4676 19.9004 10 19.9004C4.53238 19.9004 0.0996095 15.4676 0.0996094 10C0.0996094 4.53238 4.53238 0.0996094 10 0.0996094ZM12.4805 13.7529C11.7691 14.224 10.9171 14.5 10 14.5C9.08314 14.4999 8.23081 14.2249 7.51953 13.7539L4.94629 16.3271C6.33182 17.4352 8.08777 18.0996 10 18.0996C11.9127 18.0996 13.669 17.4348 15.0547 16.3262L12.4805 13.7529ZM3.67188 4.94531C2.56373 6.33086 1.90039 8.08771 1.90039 10C1.90039 11.9125 2.56447 13.6691 3.67285 15.0547L6.24609 12.4814C5.77484 11.77 5.5 10.9172 5.5 10C5.50008 9.08287 5.77483 8.22996 6.24609 7.51855L3.67188 4.94531ZM13.7549 7.51953C14.2256 8.23072 14.4999 9.08333 14.5 10C14.5 10.9166 14.2246 11.7684 13.7539 12.4795L16.3271 15.0537C17.4352 13.6682 18.0996 11.9122 18.0996 10C18.0996 8.08799 17.436 6.33174 16.3281 4.94629L13.7549 7.51953ZM10 7.30078C8.50914 7.30099 7.30099 8.50914 7.30078 10C7.30078 11.491 8.50901 12.7 10 12.7002C11.4912 12.7002 12.7002 11.4912 12.7002 10C12.7 8.50901 11.491 7.30078 10 7.30078ZM10 1.90039C8.08771 1.90039 6.33086 2.56373 4.94531 3.67188L7.51855 6.24609C8.22996 5.77483 9.08287 5.50008 10 5.5C10.9169 5.5 11.7692 5.77511 12.4805 6.24609L15.0537 3.67285C13.6682 2.56476 11.9122 1.90039 10 1.90039Z" fill="currentColor"/>
</svg>
