<svg width="16" height="18" viewBox="0 0 16 18" fill="none" xmlns="http://www.w3.org/2000/svg">
<path d="M8.25976 0.931712C8.47492 0.745987 8.7816 0.69657 9.04883 0.812571C9.35397 0.945201 9.5353 1.26267 9.49414 1.59284L8.84961 6.75007H14.75C15.0409 6.75007 15.3052 6.91839 15.4287 7.18171C15.5521 7.44525 15.5125 7.75698 15.3262 7.98054L7.82617 16.9805C7.61301 17.2362 7.25651 17.3201 6.95117 17.1876C6.64603 17.0549 6.46469 16.7375 6.50586 16.4073L7.15039 11.2501H1.25C0.959127 11.2501 0.6948 11.0817 0.571287 10.8184C0.447853 10.5549 0.487524 10.2432 0.673827 10.0196L8.17383 1.0196L8.25976 0.931712ZM2.85156 9.75007H8C8.21512 9.75007 8.42013 9.8427 8.5625 10.004C8.70465 10.1652 8.77073 10.3796 8.74414 10.5928L8.31055 14.0538L13.1484 8.25007H8C7.78488 8.25007 7.57987 8.15744 7.4375 7.99616C7.29534 7.83498 7.22927 7.62056 7.25586 7.4073L7.68848 3.94538L2.85156 9.75007Z" fill="currentColor"/>
</svg>
