<svg width="18" height="14" viewBox="0 0 18 14" fill="none" xmlns="http://www.w3.org/2000/svg">
<path d="M8.99988 0.25C11.9245 0.25 14.1712 1.92009 15.6405 3.4873C16.3819 4.27807 16.9482 5.06568 17.329 5.65527C17.5197 5.95064 17.6657 6.19828 17.7645 6.37402C17.814 6.46195 17.8517 6.53273 17.8778 6.58203C17.8908 6.6065 17.901 6.62578 17.9081 6.63965C17.9116 6.64653 17.9148 6.65213 17.9169 6.65625C17.9179 6.65832 17.9182 6.66076 17.9188 6.66211L17.9208 6.66406C17.9208 6.6644 17.9115 6.66918 17.2499 7C17.9115 7.33082 17.9208 7.3356 17.9208 7.33594L17.9188 7.33789C17.9182 7.33924 17.9179 7.34168 17.9169 7.34375C17.9148 7.34787 17.9116 7.35347 17.9081 7.36035C17.901 7.37422 17.8908 7.3935 17.8778 7.41797C17.8517 7.46727 17.814 7.53805 17.7645 7.62598C17.6657 7.80172 17.5197 8.04936 17.329 8.34473C16.9482 8.93432 16.3819 9.72193 15.6405 10.5127C14.1712 12.0799 11.9245 13.75 8.99988 13.75C6.07525 13.75 3.82852 12.0799 2.35926 10.5127C1.61791 9.72193 1.05158 8.93432 0.670781 8.34473C0.480026 8.04936 0.334097 7.80172 0.235234 7.62598C0.185773 7.53805 0.148043 7.46727 0.121953 7.41797C0.109005 7.3935 0.0988116 7.37422 0.0916797 7.36035C0.0881397 7.35347 0.0849805 7.34787 0.0828906 7.34375C0.0818424 7.34168 0.0816147 7.33924 0.0809375 7.33789L0.0789844 7.33594C0.0789729 7.3356 0.0882508 7.33082 0.749883 7C0.0882508 6.66918 0.0789729 6.6644 0.0789844 6.66406L0.0809375 6.66211C0.0816147 6.66076 0.0818424 6.65832 0.0828906 6.65625C0.0849805 6.65213 0.0881397 6.64653 0.0916797 6.63965C0.0988116 6.62578 0.109005 6.6065 0.121953 6.58203C0.148043 6.53273 0.185773 6.46195 0.235234 6.37402C0.334097 6.19828 0.480026 5.95064 0.670781 5.65527C1.05158 5.06568 1.61791 4.27807 2.35926 3.4873C3.82852 1.92009 6.07525 0.25 8.99988 0.25ZM8.99988 1.75C6.67451 1.75 4.79624 3.07991 3.45301 4.5127C2.78823 5.22179 2.27631 5.93435 1.93055 6.46973C1.79614 6.67785 1.68823 6.85848 1.60633 7C1.68823 7.14152 1.79614 7.32215 1.93055 7.53027C2.27631 8.06565 2.78823 8.77821 3.45301 9.4873C4.79624 10.9201 6.67451 12.25 8.99988 12.25C11.3253 12.25 13.2035 10.9201 14.5468 9.4873C15.2115 8.77821 15.7235 8.06565 16.0692 7.53027C16.2035 7.32236 16.3106 7.14146 16.3925 7C16.3106 6.85854 16.2035 6.67764 16.0692 6.46973C15.7235 5.93435 15.2115 5.22179 14.5468 4.5127C13.2035 3.07991 11.3253 1.75 8.99988 1.75ZM10.4999 7C10.4999 6.17157 9.82831 5.5 8.99988 5.5C8.17146 5.5 7.49988 6.17157 7.49988 7C7.49988 7.82843 8.17146 8.5 8.99988 8.5C9.82831 8.5 10.4999 7.82843 10.4999 7ZM0.749883 7L0.0789844 7.33496C-0.0263281 7.12403 -0.0263281 6.87597 0.0789844 6.66504L0.749883 7ZM17.9208 6.66504C18.0261 6.87597 18.0261 7.12403 17.9208 7.33496L17.2499 7L17.9208 6.66504ZM11.9999 7C11.9999 8.65685 10.6567 10 8.99988 10C7.34303 10 5.99988 8.65685 5.99988 7C5.99988 5.34315 7.34303 4 8.99988 4C10.6567 4 11.9999 5.34315 11.9999 7Z" fill="currentColor"/>
</svg>
