<svg width="20" height="20" viewBox="0 0 20 20" fill="none" xmlns="http://www.w3.org/2000/svg">
<path d="M18.0996 16.5996C18.0996 16.3051 18.0998 16.1381 18.0898 16.0166C18.0868 15.9797 18.0815 15.9561 18.0791 15.9424C18.0727 15.9336 18.0655 15.9262 18.0566 15.9199C18.0427 15.9176 18.0193 15.9141 17.9834 15.9111C17.9226 15.9062 17.8506 15.9028 17.7568 15.9014L17.4004 15.9004H2.59961C2.30504 15.9004 2.13815 15.9012 2.01661 15.9111C1.97988 15.9141 1.95617 15.9176 1.94239 15.9199C1.93362 15.9262 1.92624 15.9336 1.91993 15.9424C1.91756 15.9562 1.91316 15.9799 1.91016 16.0166C1.90024 16.1381 1.9004 16.3051 1.90039 16.5996V17.4004L1.90137 17.7568C1.90279 17.8505 1.9052 17.9226 1.91016 17.9834C1.91316 18.0201 1.91757 18.0438 1.91993 18.0576C1.92612 18.0662 1.93381 18.0729 1.94239 18.0791C1.95614 18.0815 1.97973 18.0868 2.01661 18.0898C2.13814 18.0998 2.3051 18.0996 2.59961 18.0996H17.4004L17.7568 18.0986C17.8505 18.0972 17.9227 18.0948 17.9834 18.0898C18.0194 18.0869 18.0428 18.0815 18.0566 18.0791C18.0653 18.0729 18.0728 18.0663 18.0791 18.0576C18.0815 18.0439 18.0868 18.0203 18.0898 17.9834C18.0998 17.8619 18.0996 17.6949 18.0996 17.4004V16.5996ZM13.4004 14.0996H16.0996V7.90039H13.4004V14.0996ZM8.40039 14.0996H11.5996V7.90039H8.40039V14.0996ZM3.90039 14.0996H6.59961V7.90039H3.90039V14.0996ZM18.0918 3.81055C18.0898 3.78285 18.0866 3.7648 18.085 3.75391C18.0792 3.74376 18.0724 3.73511 18.0635 3.72754C18.053 3.72359 18.0363 3.71734 18.0117 3.70996L17.5518 3.60059L10.1514 1.95605C10.0826 1.94077 10.0469 1.93289 10.0205 1.92773L10.0088 1.9248H9.99121C10.0002 1.92402 10.0009 1.92356 9.9795 1.92773L9.84864 1.95605L2.44825 3.60059C2.2121 3.65306 2.08194 3.68182 1.98829 3.70996C1.96306 3.71754 1.94601 3.72359 1.93555 3.72754C1.92678 3.73511 1.91974 3.74381 1.91407 3.75391C1.91245 3.76481 1.91023 3.78297 1.90821 3.81055C1.90105 3.90806 1.90039 4.04132 1.90039 4.2832V5.40039L1.90137 5.75684C1.90279 5.85053 1.9052 5.92265 1.91016 5.9834C1.91316 6.02011 1.91757 6.04383 1.91993 6.05762C1.92612 6.06623 1.93381 6.07286 1.94239 6.0791C1.95614 6.08146 1.97973 6.08683 2.01661 6.08984C2.13814 6.09976 2.3051 6.09961 2.59961 6.09961H17.4004L17.7568 6.09863C17.8505 6.09722 17.9227 6.0948 17.9834 6.08984C18.0194 6.0869 18.0428 6.08145 18.0566 6.0791C18.0653 6.07288 18.0728 6.06625 18.0791 6.05762C18.0815 6.04386 18.0868 6.02026 18.0898 5.9834C18.0998 5.86186 18.0996 5.6949 18.0996 5.40039V4.2832C18.0996 4.04133 18.099 3.90806 18.0918 3.81055ZM19.9004 5.40039C19.9004 5.66532 19.9011 5.91813 19.8838 6.12988C19.8702 6.29665 19.8429 6.48218 19.7754 6.67188L19.6934 6.8623C19.534 7.17512 19.2908 7.43659 18.9932 7.61914L18.8623 7.69336C18.6075 7.82312 18.3522 7.86563 18.1299 7.88379C18.0578 7.88967 17.9808 7.89012 17.9004 7.89258V14.1064C17.9809 14.1089 18.0578 14.1103 18.1299 14.1162C18.2967 14.1298 18.4822 14.1571 18.6719 14.2246L18.8623 14.3066L18.9932 14.3809C19.2908 14.5634 19.534 14.8249 19.6934 15.1377L19.7754 15.3281C19.843 15.5178 19.8702 15.7033 19.8838 15.8701C19.9011 16.0819 19.9004 16.3347 19.9004 16.5996V17.4004C19.9004 17.6653 19.9011 17.9181 19.8838 18.1299C19.8702 18.2967 19.8429 18.4822 19.7754 18.6719L19.6934 18.8623C19.534 19.1751 19.2908 19.4366 18.9932 19.6191L18.8623 19.6934C18.6075 19.8231 18.3522 19.8656 18.1299 19.8838C18.024 19.8924 17.9079 19.8964 17.7852 19.8984L17.4004 19.9004H2.59961C2.33468 19.9004 2.08187 19.9011 1.87012 19.8838C1.70335 19.8702 1.51783 19.8429 1.32813 19.7754L1.1377 19.6934C0.824878 19.534 0.563419 19.2908 0.380863 18.9932L0.306644 18.8623C0.176893 18.6075 0.134376 18.3522 0.116215 18.1299C0.107575 18.024 0.103555 17.9079 0.101566 17.7852L0.0996132 17.4004V16.5996C0.0996125 16.3347 0.0989287 16.0819 0.116215 15.8701C0.134377 15.6478 0.176881 15.3925 0.306644 15.1377L0.380863 15.0068C0.563418 14.7092 0.824888 14.466 1.1377 14.3066L1.32813 14.2246C1.51783 14.1571 1.70335 14.1298 1.87012 14.1162C1.94221 14.1103 2.01915 14.1089 2.09961 14.1064V7.89258C2.01916 7.89012 1.9422 7.88967 1.87012 7.88379C1.70335 7.87016 1.51783 7.84294 1.32813 7.77539L1.1377 7.69336C0.824878 7.53397 0.563418 7.29079 0.380863 6.99316L0.306644 6.8623C0.176893 6.60747 0.134376 6.35217 0.116215 6.12988C0.107575 6.02403 0.103555 5.9079 0.101566 5.78516L0.0996132 5.40039V4.2832C0.0996127 4.0674 0.0991917 3.8573 0.112309 3.67871C0.126256 3.48882 0.158746 3.27447 0.25391 3.05273L0.308598 2.93555C0.445556 2.66825 0.644969 2.43702 0.889652 2.26074L1.03711 2.16602C1.18514 2.08197 1.33296 2.02745 1.46973 1.98633C1.6413 1.93476 1.84686 1.88961 2.05762 1.84277L9.45801 0.198242L9.63477 0.161133C9.69812 0.148921 9.76518 0.137872 9.83399 0.131836L10 0.124023C10.0554 0.124023 10.1108 0.126994 10.166 0.131836L10.3652 0.161133C10.4286 0.173343 10.4883 0.186308 10.542 0.198242L17.9424 1.84277L18.251 1.91309C18.35 1.93664 18.4445 1.96056 18.5303 1.98633C18.6671 2.02745 18.8149 2.08197 18.9629 2.16602L19.1104 2.26074L19.2129 2.33984C19.444 2.53148 19.6272 2.77578 19.7461 3.05273L19.8066 3.2168C19.8567 3.37969 19.8772 3.53615 19.8877 3.67871C19.9008 3.8573 19.9004 4.0674 19.9004 4.2832V5.40039Z" fill="currentColor"/>
</svg>
