<svg width="19" height="20" viewBox="0 0 19 20" fill="none" xmlns="http://www.w3.org/2000/svg">
<path fill-rule="evenodd" clip-rule="evenodd" d="M12.9326 0.0996094C13.4297 0.0996094 13.833 0.502944 13.833 1V1.89941H15.6338C17.1247 1.89962 18.3329 3.10866 18.333 4.59961V17.2002C18.3328 18.6911 17.1246 19.8992 15.6338 19.8994H3.0332C1.54225 19.8993 0.333219 18.6911 0.333008 17.2002V4.59961C0.333113 3.1086 1.54219 1.89952 3.0332 1.89941H4.83301V1C4.83301 0.502944 5.23634 0.0996094 5.7334 0.0996094C6.23045 0.0996094 6.63379 0.502944 6.63379 1V1.89941H12.0322V1C12.0322 0.502944 12.4356 0.0996094 12.9326 0.0996094ZM2.13379 17.2002C2.134 17.697 2.53637 18.0995 3.0332 18.0996H15.6338C16.1305 18.0994 16.533 17.6969 16.5332 17.2002V9.10059H2.13379V17.2002ZM3.0332 3.7002C2.5363 3.7003 2.13389 4.10271 2.13379 4.59961V7.2998H16.5332V4.59961C16.5331 4.10277 16.1306 3.70041 15.6338 3.7002H13.833V4.59961C13.833 5.09667 13.4297 5.5 12.9326 5.5C12.4356 5.5 12.0322 5.09667 12.0322 4.59961V3.7002H6.63379V4.59961C6.63379 5.09667 6.23045 5.5 5.7334 5.5C5.23634 5.5 4.83301 5.09667 4.83301 4.59961V3.7002H3.0332Z" fill="currentColor"/>
</svg>
