<svg width="19" height="18" viewBox="0 0 19 18" fill="none" xmlns="http://www.w3.org/2000/svg">
<path d="M16.25 10.833C16.25 10.3542 16.2501 10.04 16.2305 9.7998C16.2116 9.56827 16.1784 9.4719 16.1504 9.41699C16.0625 9.24463 15.9224 9.10446 15.75 9.0166C15.6951 8.98862 15.5987 8.95544 15.3672 8.93652C15.127 8.9169 14.8128 8.91699 14.334 8.91699H11.084V15.75H16.25V10.833ZM7.41699 10.75C7.83121 10.75 8.16699 11.0858 8.16699 11.5C8.16699 11.9142 7.83121 12.25 7.41699 12.25H4.91699C4.50278 12.25 4.16699 11.9142 4.16699 11.5C4.16699 11.0858 4.50278 10.75 4.91699 10.75H7.41699ZM7.41699 7.41699L7.49414 7.4209C7.87209 7.45954 8.16699 7.77884 8.16699 8.16699C8.16683 8.55502 7.87202 8.87449 7.49414 8.91309L7.41699 8.91699H4.91699C4.50289 8.91699 4.16717 8.58106 4.16699 8.16699C4.16699 7.75278 4.50278 7.41699 4.91699 7.41699H7.41699ZM7.41699 4.08301L7.49414 4.08691C7.87202 4.12551 8.16683 4.44498 8.16699 4.83301C8.16699 5.22116 7.87209 5.54047 7.49414 5.5791L7.41699 5.58301H4.91699C4.50278 5.58301 4.16699 5.24722 4.16699 4.83301C4.16717 4.41894 4.50289 4.08301 4.91699 4.08301H7.41699ZM9.58398 4.16699C9.58398 3.68791 9.58311 3.37311 9.56348 3.13281C9.54458 2.90178 9.51134 2.8059 9.4834 2.75098C9.39551 2.57849 9.25549 2.43749 9.08301 2.34961C9.02806 2.32166 8.93141 2.2894 8.7002 2.27051C8.45995 2.2509 8.14584 2.25 7.66699 2.25H4.66699C4.18815 2.25 3.87404 2.2509 3.63379 2.27051C3.40258 2.2894 3.30592 2.32166 3.25098 2.34961C3.07849 2.43749 2.93847 2.5785 2.85059 2.75098C2.82264 2.8059 2.7894 2.90178 2.77051 3.13281C2.75087 3.37311 2.75 3.68791 2.75 4.16699V15.75H9.58398V4.16699ZM11.084 7.41699H14.334C14.7881 7.41699 15.1738 7.41565 15.4893 7.44141C15.8135 7.4679 16.1291 7.52611 16.4307 7.67969C16.8854 7.91138 17.2556 8.2816 17.4873 8.73633C17.6409 9.03786 17.6991 9.35353 17.7256 9.67773C17.7513 9.99317 17.75 10.3789 17.75 10.833V15.75H17.834L17.9102 15.7539C18.2884 15.7922 18.584 16.1116 18.584 16.5C18.584 16.8884 18.2884 17.2078 17.9102 17.2461L17.834 17.25H1.16699C0.752779 17.25 0.416992 16.9142 0.416992 16.5C0.416992 16.0858 0.752779 15.75 1.16699 15.75H1.25V4.16699C1.25 3.71266 1.24961 3.32629 1.27539 3.01074C1.30189 2.6865 1.36002 2.37089 1.51367 2.06934C1.74537 1.61467 2.11563 1.24534 2.57031 1.01367C2.87184 0.860092 3.18751 0.80188 3.51172 0.775391C3.82718 0.749647 4.21287 0.75 4.66699 0.75H7.66699C8.12111 0.75 8.5068 0.749647 8.82227 0.775391C9.14647 0.80188 9.46214 0.860092 9.76367 1.01367C10.2184 1.24534 10.5886 1.61467 10.8203 2.06934C10.974 2.37089 11.0321 2.6865 11.0586 3.01074C11.0844 3.32629 11.084 3.71266 11.084 4.16699V7.41699Z" fill="currentColor"/>
</svg>
