<svg width="13" height="18" viewBox="0 0 13 18" fill="none" xmlns="http://www.w3.org/2000/svg">
<path fill-rule="evenodd" clip-rule="evenodd" d="M6.5 0C9.81371 0 12.5 2.68629 12.5 6C12.5 7.94177 11.576 9.66607 10.1455 10.7627L10.9932 17.1514C11.0309 17.4366 10.9025 17.7189 10.6621 17.877C10.4215 18.0349 10.1111 18.0415 9.86426 17.8936L6.5 15.875L3.13574 17.8936C2.88888 18.0415 2.57847 18.0349 2.33789 17.877C2.09742 17.7188 1.96904 17.4367 2.00684 17.1514L2.85449 10.7637C1.42369 9.66706 0.5 7.94198 0.5 6C0.5 2.68629 3.18629 0 6.5 0ZM8.73828 11.5664C8.04643 11.8449 7.29149 12 6.5 12C5.70819 12 4.95282 11.8451 4.26074 11.5664L3.69727 15.8066L6.11426 14.3574L6.20605 14.3105C6.42517 14.2171 6.67797 14.2328 6.88574 14.3574L9.30176 15.8066L8.73828 11.5664ZM6.5 1.5C4.01472 1.5 2 3.51472 2 6C2 8.48528 4.01472 10.5 6.5 10.5C7.40042 10.5 8.23795 10.2338 8.94141 9.77832C8.95154 9.77189 8.96121 9.76475 8.97168 9.75879C10.193 8.95408 11 7.57195 11 6C11 3.51472 8.98528 1.5 6.5 1.5Z" fill="currentColor"/>
</svg>
