<svg width="20" height="18" viewBox="0 0 20 18" fill="none" xmlns="http://www.w3.org/2000/svg">
<path fill-rule="evenodd" clip-rule="evenodd" d="M17.2002 0.899414C18.687 0.89952 19.9002 2.11282 19.9004 3.59961V14.3994C19.9004 15.8864 18.6872 17.0995 17.2002 17.0996H2.7998C1.31284 17.0995 0.0996094 15.8864 0.0996094 14.3994V3.59961C0.0996111 3.58885 0.100458 3.57811 0.100586 3.56738C0.100952 3.55695 0.10181 3.54656 0.102539 3.53613C0.136734 2.07847 1.33422 0.899519 2.7998 0.899414H17.2002ZM10.5166 10.6377C10.2069 10.8545 9.79324 10.8543 9.4834 10.6377L1.90039 5.3291V14.3994C1.90039 14.8923 2.30695 15.2997 2.7998 15.2998H17.2002C17.6931 15.2997 18.0996 14.8923 18.0996 14.3994V5.3291L10.5166 10.6377ZM2.7998 2.7002C2.45053 2.70027 2.1447 2.90481 1.99609 3.19922L10 8.80078L18.0029 3.19922C17.8542 2.90502 17.5493 2.70027 17.2002 2.7002H2.7998Z" fill="currentColor"/>
</svg>
