<svg width="16" height="16" viewBox="0 0 16 16" fill="none" xmlns="http://www.w3.org/2000/svg">
<path d="M12.5 7.25C12.5 4.3505 10.1495 2 7.25 2C4.3505 2 2 4.3505 2 7.25C2 10.1495 4.3505 12.5 7.25 12.5C8.66893 12.5 9.95456 11.9352 10.8994 11.0205C10.917 10.9984 10.9366 10.9775 10.957 10.957C10.9775 10.9366 10.9984 10.917 11.0205 10.8994C11.9352 9.95456 12.5 8.66893 12.5 7.25ZM14 7.25C14 8.84371 13.4461 10.3072 12.5225 11.4619L15.2803 14.2197L15.332 14.2764C15.5723 14.5709 15.5548 15.0057 15.2803 15.2803C15.0057 15.5549 14.5709 15.5723 14.2764 15.332L14.2197 15.2803L11.4619 12.5225C10.3072 13.4461 8.84371 14 7.25 14C3.52208 14 0.5 10.9779 0.5 7.25C0.5 3.52208 3.52208 0.5 7.25 0.5C10.9779 0.5 14 3.52208 14 7.25Z" fill="currentColor"/>
</svg>
