<svg width="17" height="18" viewBox="0 0 17 18" fill="none" xmlns="http://www.w3.org/2000/svg">
<path d="M9.24219 3.60156C9.20805 3.25826 9.05663 2.93554 8.81055 2.68945C8.63951 2.51841 8.43136 2.39337 8.20508 2.32129L5.5 8.40918V15.75H13.2188L13.3525 15.7393C13.4847 15.7168 13.6095 15.6592 13.7129 15.5713C13.8506 15.4542 13.9416 15.291 13.9688 15.1123V15.1113L15.0039 8.36133C15.02 8.25429 15.0126 8.14498 14.9824 8.04102C14.9521 7.93665 14.8994 7.83983 14.8281 7.75781C14.7568 7.6758 14.6685 7.60995 14.5693 7.56543C14.4703 7.52097 14.3625 7.49883 14.2539 7.5H10C9.58579 7.5 9.25 7.16421 9.25 6.75V3.75L9.24219 3.60156ZM1.75 15C1.75 15.1989 1.82907 15.3896 1.96973 15.5303C2.11038 15.6709 2.30109 15.75 2.5 15.75H4V9H2.5C2.30109 9 2.11038 9.07907 1.96973 9.21973C1.82907 9.36038 1.75 9.55109 1.75 9.75V15ZM10.75 6H14.2451C14.5683 5.99758 14.8886 6.06489 15.1836 6.19727C15.481 6.33082 15.746 6.52739 15.96 6.77344C16.174 7.01956 16.3319 7.30982 16.4229 7.62305C16.5137 7.93615 16.5353 8.26557 16.4863 8.58789V8.58887L15.4512 15.3389C15.3695 15.8748 15.0976 16.3637 14.6846 16.7148C14.2732 17.0645 13.7496 17.2531 13.21 17.249V17.25H2.5C1.90326 17.25 1.33114 17.0128 0.90918 16.5908C0.487223 16.1689 0.25 15.5967 0.25 15V9.75C0.25 9.15326 0.487223 8.58114 0.90918 8.15918C1.33114 7.73722 1.90326 7.5 2.5 7.5H4.2627L7.06445 1.19531L7.11621 1.09863C7.25229 0.883645 7.49057 0.75 7.75 0.75C8.54565 0.75 9.30848 1.0663 9.87109 1.62891C10.4337 2.19152 10.75 2.95435 10.75 3.75V6Z" fill="currentColor"/>
</svg>
