<svg width="17" height="16" viewBox="0 0 17 16" fill="none" xmlns="http://www.w3.org/2000/svg">
<path d="M16 0.5L16.1084 0.507812C16.3563 0.543974 16.5732 0.70292 16.6807 0.93457C16.788 1.16615 16.7692 1.4339 16.6367 1.64648L16.5723 1.73438L10.75 8.61816V14.75C10.75 15.0098 10.6155 15.251 10.3945 15.3877C10.1735 15.5243 9.89745 15.5369 9.66504 15.4209L6.66504 13.9209C6.41095 13.7939 6.25 13.5341 6.25 13.25V8.61816L0.427734 1.73438C0.23926 1.5115 0.196619 1.19938 0.319335 0.93457C0.442229 0.669697 0.708005 0.5 0.999999 0.5H16ZM7.57227 7.86035C7.6867 7.99568 7.74993 8.16751 7.75 8.34473V12.7861L9.25 13.5361V8.34473C9.25006 8.16751 9.31329 7.99568 9.42773 7.86035L14.3838 2H2.61621L7.57227 7.86035Z" fill="currentColor"/>
</svg>
