<svg width="18" height="18" viewBox="0 0 18 18" fill="none" xmlns="http://www.w3.org/2000/svg">
<path d="M7.18137 0.948448C8.80807 0.580917 10.5058 0.71554 12.0505 1.33028L12.3572 1.45919L12.4255 1.49435C12.7554 1.68319 12.8948 2.09472 12.737 2.44942C12.5791 2.80397 12.18 2.97615 11.8191 2.85763L11.7468 2.82931L11.4958 2.72384C10.2321 2.22093 8.84325 2.11071 7.51242 2.41134C6.09283 2.73212 4.81453 3.5033 3.86887 4.60958C2.92327 5.71593 2.36026 7.09877 2.26438 8.55099C2.16862 10.0032 2.54469 11.4482 3.33664 12.6692C4.12882 13.8901 5.29563 14.8229 6.66086 15.3274C8.02608 15.8316 9.51813 15.8806 10.9138 15.468C12.3094 15.0553 13.5345 14.2029 14.406 13.0373C15.223 11.9444 15.6882 10.6308 15.7439 9.27169L15.7497 8.99923V8.30978C15.7499 7.89583 16.0858 7.55993 16.4997 7.55978C16.9138 7.55978 17.2495 7.89574 17.2497 8.30978V9.00021C17.2487 10.7791 16.6723 12.51 15.6072 13.9348C14.5419 15.3597 13.0446 16.402 11.3386 16.9065C9.63265 17.4108 7.80904 17.3501 6.14035 16.7336C4.47189 16.117 3.04697 14.9778 2.07883 13.4856C1.11071 11.9932 0.650261 10.2274 0.767306 8.45235C0.884456 6.67734 1.57246 4.98723 2.72824 3.63497C3.88402 2.28278 5.4463 1.34056 7.18137 0.948448Z" fill="currentColor"/>
<path d="M15.9695 2.46993C16.2622 2.17717 16.737 2.17732 17.03 2.46993C17.3228 2.7627 17.3227 3.23753 17.03 3.53048L9.53 11.0373C9.3894 11.1779 9.1986 11.258 8.99973 11.258C8.85073 11.258 8.70591 11.2135 8.58371 11.132L8.46945 11.0383L6.21945 8.78829L6.1677 8.73068C5.92786 8.43624 5.94535 8.00224 6.21945 7.72775C6.49408 7.45312 6.92878 7.43561 7.22336 7.67599L7.28 7.72775L8.99875 9.4465L15.9695 2.46993Z" fill="currentColor"/>
</svg>
