<svg width="19" height="22" viewBox="0 0 19 22" fill="none" xmlns="http://www.w3.org/2000/svg">
<path d="M16.8672 9.19922C16.8671 7.28985 16.1089 5.45856 14.7588 4.1084C13.4085 2.75814 11.5766 2 9.66699 2C7.75757 2.0001 5.92634 2.75823 4.57617 4.1084C3.226 5.45857 2.46788 7.2898 2.46777 9.19922C2.46777 11.9874 4.28139 14.6933 6.27051 16.793C7.24648 17.8232 8.22576 18.6667 8.96191 19.2529C9.23534 19.4707 9.47551 19.6515 9.66699 19.793C9.85856 19.6514 10.0984 19.4708 10.3721 19.2529C11.1083 18.6667 12.0883 17.8234 13.0645 16.793C15.0535 14.6933 16.8672 11.9873 16.8672 9.19922ZM11.4678 9.19922C11.4676 8.20529 10.661 7.39941 9.66699 7.39941C8.67319 7.39963 7.8674 8.20542 7.86719 9.19922C7.86719 10.1932 8.67306 10.9998 9.66699 11C10.6611 11 11.4678 10.1933 11.4678 9.19922ZM13.2676 9.19922C13.2676 11.1874 11.6552 12.7998 9.66699 12.7998C7.67895 12.7996 6.06738 11.1873 6.06738 9.19922C6.06759 7.2113 7.67908 5.59982 9.66699 5.59961C11.6551 5.59961 13.2674 7.21117 13.2676 9.19922ZM18.667 9.19922C18.667 12.7109 16.4319 15.856 14.3711 18.0312C13.3223 19.1383 12.2757 20.038 11.4932 20.6611C11.1012 20.9732 10.7735 21.2176 10.542 21.3848C10.4263 21.4683 10.3344 21.5329 10.2705 21.5771C10.2386 21.5993 10.2138 21.617 10.1963 21.6289L10.1699 21.6465L10.168 21.6475L10.167 21.6484C9.90243 21.8248 9.56723 21.8472 9.28516 21.7148L9.16797 21.6484L9.13867 21.6289C9.12119 21.617 9.0963 21.5992 9.06445 21.5771C9.00053 21.5329 8.9078 21.4684 8.79199 21.3848C8.56049 21.2176 8.23262 20.9731 7.84082 20.6611C7.05832 20.038 6.01251 19.1382 4.96387 18.0312C2.90306 15.856 0.666992 12.711 0.666992 9.19922C0.667096 6.81241 1.61598 4.52367 3.30371 2.83594C4.99145 1.1482 7.28018 0.199322 9.66699 0.199219C12.0539 0.199219 14.3434 1.14811 16.0312 2.83594C17.7189 4.52366 18.6669 6.81246 18.667 9.19922Z" fill="currentColor"/>
</svg>
