<svg width="23" height="20" viewBox="0 0 23 20" fill="none" xmlns="http://www.w3.org/2000/svg">
<path d="M15.9569 0.099382C16.0238 0.0993754 16.1586 0.0956039 16.3085 0.11696L16.4608 0.14821L16.578 0.185319C16.6548 0.21339 16.729 0.24783 16.7997 0.288835L16.9032 0.355241L17.0243 0.452898C17.1366 0.554407 17.2198 0.660386 17.2626 0.711687L21.5956 5.91188L21.8114 6.18239C21.8657 6.2584 21.9292 6.35843 21.9804 6.48317L22.0272 6.61598L22.0673 6.80641C22.0852 6.93469 22.0852 7.06486 22.0673 7.19313L22.0272 7.38356C21.9735 7.57206 21.8837 7.71587 21.8114 7.81716L21.5956 8.08766L12.6376 18.8386C12.5424 18.9529 12.4345 19.0839 12.3319 19.1873C12.2507 19.2692 12.1354 19.3733 11.9804 19.4578L11.8124 19.534C11.5409 19.6332 11.2459 19.6455 10.9686 19.5711L10.8505 19.534C10.6078 19.4452 10.4392 19.2964 10.331 19.1873C10.2796 19.1355 10.2275 19.0764 10.1757 19.0164L10.0253 18.8386L1.06728 8.08766C0.999979 8.0069 0.917144 7.90916 0.85146 7.81716C0.797202 7.74114 0.73369 7.64112 0.682515 7.51637L0.63564 7.38356C0.564161 7.13275 0.564162 6.86679 0.63564 6.61598L0.682515 6.48317C0.73369 6.35843 0.797202 6.25841 0.85146 6.18239C0.917144 6.09038 0.999979 5.99264 1.06728 5.91188L5.40029 0.711687L5.53603 0.553484C5.59701 0.488269 5.67273 0.416469 5.75966 0.355241L5.86318 0.288835C5.96928 0.227285 6.08326 0.18017 6.20205 0.14821L6.35537 0.11696C6.50489 0.0957547 6.63918 0.0993734 6.70595 0.099382H15.9569ZM11.331 15.7595L14.0653 7.90016H8.59755L11.331 15.7595ZM9.15419 14.9812L6.6913 7.90016H3.2538L9.15419 14.9812ZM13.5077 14.9812L19.4091 7.90016H15.9716L13.5077 14.9812ZM15.9804 6.09938H19.4091L15.9101 1.90016H14.58L15.9804 6.09938ZM8.57998 6.09938H14.0829L12.6825 1.90016H9.98037L8.57998 6.09938ZM3.2538 6.09938H6.68252L8.08291 1.90016H6.75283L3.2538 6.09938Z" fill="currentColor"/>
</svg>
