<svg width="18" height="17" viewBox="0 0 18 17" fill="none" xmlns="http://www.w3.org/2000/svg">
<path d="M9.00003 0.75C9.2855 0.75 9.54653 0.911991 9.67288 1.16797L11.8155 5.50977L16.6084 6.20996C16.8907 6.25123 17.1258 6.44935 17.2139 6.7207C17.3019 6.99221 17.2279 7.29109 17.0235 7.49023L13.5557 10.8672L14.3741 15.6387C14.4221 15.9199 14.307 16.2043 14.0762 16.3721C13.8453 16.5398 13.5388 16.5615 13.2862 16.4287L9.00003 14.1738L4.7139 16.4287C4.46124 16.5615 4.1548 16.5398 3.92386 16.3721C3.69306 16.2043 3.57794 15.9199 3.62601 15.6387L4.44339 10.8672L0.976595 7.49023C0.772131 7.29109 0.698132 6.99221 0.786165 6.7207C0.874274 6.44935 1.10932 6.25123 1.39163 6.20996L6.18363 5.50977L8.32718 1.16797L8.38089 1.07617C8.51936 0.87381 8.75035 0.75 9.00003 0.75ZM7.3555 6.52734C7.24633 6.74841 7.03502 6.90184 6.79105 6.9375L3.11136 7.47461L5.77347 10.0674C5.95029 10.2396 6.0309 10.4882 5.98929 10.7314L5.36038 14.3936L8.6514 12.6641L8.73441 12.626C8.93377 12.5505 9.1574 12.5636 9.34867 12.6641L12.6387 14.3936L12.0108 10.7314C11.9692 10.4882 12.0498 10.2396 12.2266 10.0674L14.8877 7.47461L11.209 6.9375C10.965 6.90184 10.7537 6.74841 10.6446 6.52734L9.00003 3.19531L7.3555 6.52734Z" fill="currentColor"/>
</svg>
