<svg width="19" height="16" viewBox="0 0 19 16" fill="none" xmlns="http://www.w3.org/2000/svg">
<path d="M10.4355 9.50488C11.3626 9.55077 12.242 9.93923 12.9014 10.5986C13.6046 11.3019 14 12.2554 14 13.25V14.75C14 15.1642 13.6642 15.5 13.25 15.5C12.8358 15.5 12.5 15.1642 12.5 14.75V13.25C12.5 12.6533 12.2628 12.0811 11.8408 11.6592C11.4717 11.29 10.9876 11.0619 10.4727 11.0107L10.25 11H4.25C3.65326 11 3.08114 11.2372 2.65918 11.6592C2.23722 12.0811 2 12.6533 2 13.25V14.75C2 15.1642 1.66421 15.5 1.25 15.5C0.835786 15.5 0.5 15.1642 0.5 14.75V13.25C0.5 12.2554 0.895372 11.3019 1.59863 10.5986C2.30189 9.89537 3.25544 9.5 4.25 9.5H10.25L10.4355 9.50488Z" fill="currentColor"/>
<path d="M15.6123 9.60645L15.6875 9.62109L15.9844 9.71191C16.6667 9.94982 17.2684 10.3805 17.7139 10.9551C18.2228 11.6117 18.4994 12.4192 18.5 13.25V14.75C18.4999 15.1641 18.1642 15.5 17.75 15.5C17.3358 15.5 17.0001 15.1641 17 14.75V13.251L16.9922 13.0645C16.956 12.6325 16.7955 12.2187 16.5283 11.874C16.2612 11.5294 15.9004 11.2707 15.4912 11.1279L15.3125 11.0742L15.2393 11.0508C14.8828 10.9191 14.6765 10.5361 14.7734 10.1602C14.8705 9.78414 15.2365 9.54904 15.6123 9.60645Z" fill="currentColor"/>
<path fill-rule="evenodd" clip-rule="evenodd" d="M7.25 0.5C9.32107 0.5 11 2.17893 11 4.25C11 6.32107 9.32107 8 7.25 8C5.17893 8 3.5 6.32107 3.5 4.25C3.5 2.17893 5.17893 0.5 7.25 0.5ZM7.25 2C6.00736 2 5 3.00736 5 4.25C5 5.49264 6.00736 6.5 7.25 6.5C8.49264 6.5 9.5 5.49264 9.5 4.25C9.5 3.00736 8.49264 2 7.25 2Z" fill="currentColor"/>
<path d="M12.6104 0.605469L12.6855 0.621094L12.9844 0.710938C13.6682 0.948055 14.2712 1.37892 14.7178 1.9541C15.2283 2.61184 15.5059 3.42129 15.5059 4.25391L15.4932 4.56445C15.4332 5.28618 15.1646 5.97812 14.7178 6.55371C14.2072 7.21118 13.492 7.68024 12.6855 7.88672C12.2845 7.98913 11.8762 7.74672 11.7734 7.3457C11.671 6.94459 11.9134 6.53631 12.3145 6.43359C12.7981 6.30964 13.227 6.02818 13.5332 5.63379C13.8012 5.2885 13.962 4.87337 13.998 4.44043L14.0059 4.25391C14.0059 3.75435 13.8395 3.26866 13.5332 2.87402C13.2653 2.5289 12.9035 2.27022 12.4932 2.12793L12.3145 2.07422L12.2402 2.05176C11.8837 1.92072 11.6775 1.53802 11.7734 1.16211C11.8697 0.786077 12.2346 0.549139 12.6104 0.605469Z" fill="currentColor"/>
</svg>
