<svg width="22" height="21" viewBox="0 0 22 21" fill="none" xmlns="http://www.w3.org/2000/svg">
<path d="M16.3487 17.3616C16.7507 17.0697 17.3133 17.1591 17.6056 17.5608C17.8977 17.9629 17.8093 18.5264 17.4073 18.8186C15.5451 20.1716 13.3019 20.8997 11.0001 20.8997C8.84202 20.8997 6.73568 20.2597 4.94637 19.0647L4.59285 18.8186L4.52157 18.76C4.18162 18.456 4.11977 17.9377 4.39364 17.5608C4.66761 17.1838 5.18004 17.0821 5.5743 17.3118L5.65145 17.3616L5.94637 17.5676C7.44016 18.5652 9.19846 19.0999 11.0001 19.0999C12.9218 19.0998 14.794 18.4911 16.3487 17.3616ZM10.6739 3.34596C10.8884 3.29458 11.1118 3.29456 11.3263 3.34596L11.4327 3.37526L11.5831 3.4358C11.723 3.50225 11.8315 3.58489 11.9112 3.6526C12.0094 3.73599 12.1138 3.84056 12.2022 3.92897L17.0704 8.79811L17.211 8.93971C17.2588 8.98913 17.306 9.03994 17.3477 9.08912C17.4155 9.16895 17.4981 9.27722 17.5645 9.41725L17.6241 9.56764L17.6544 9.67408C17.7057 9.88849 17.7058 10.112 17.6544 10.3264L17.6241 10.4329C17.5542 10.6478 17.438 10.8051 17.3477 10.9114C17.2643 11.0096 17.1588 11.114 17.0704 11.2024L12.2022 16.0706C12.1137 16.1591 12.0095 16.2645 11.9112 16.3479C11.8314 16.4157 11.7231 16.4982 11.5831 16.5647L11.4327 16.6243C11.1867 16.7042 10.924 16.7145 10.6739 16.6546L10.5675 16.6243C10.3524 16.5544 10.1953 16.4382 10.0889 16.3479C10.0398 16.3062 9.98895 16.259 9.93953 16.2112L9.79793 16.0706L4.92977 11.2024C4.84135 11.114 4.73585 11.0096 4.65243 10.9114C4.58473 10.8316 4.50207 10.7231 4.43563 10.5833L4.37606 10.4329C4.28471 10.1517 4.28473 9.84879 4.37606 9.56764L4.43563 9.41725C4.5021 9.2772 4.58466 9.16894 4.65243 9.08912C4.73588 8.99082 4.84127 8.88661 4.92977 8.79811L9.79793 3.92897L9.93953 3.78932C9.98897 3.74148 10.0397 3.69439 10.0889 3.6526C10.1953 3.56232 10.3524 3.44514 10.5675 3.37526L10.6739 3.34596ZM6.27254 9.99928L11.0001 14.7268L15.7266 9.99928L11.0001 5.27272L6.27254 9.99928ZM6.22176 0.203381C6.66846 -0.0144882 7.20694 0.170808 7.42489 0.617443C7.64277 1.06418 7.45754 1.60266 7.01082 1.82057C5.28358 2.663 3.86712 4.03101 2.96493 5.7278C2.11916 7.31854 1.76585 9.12218 1.94539 10.9094L1.98836 11.2669L1.99715 11.3577C2.01492 11.8137 1.68429 12.2176 1.22274 12.2825C0.76139 12.3473 0.33264 12.0505 0.223714 11.6077L0.206136 11.5169L0.154378 11.0891C-0.0606338 8.94842 0.363045 6.7884 1.37606 4.88307C2.45668 2.85072 4.15296 1.21246 6.22176 0.203381ZM14.5753 0.617443C14.7796 0.19879 15.2654 0.00973905 15.6934 0.167248L15.7784 0.203381L16.1622 0.39967C18.0571 1.41853 19.6111 2.9778 20.6241 4.88307L20.8184 5.26686C21.7528 7.20507 22.0943 9.37977 21.794 11.5169L21.7764 11.6077C21.6676 12.0505 21.2388 12.3483 20.7774 12.2835C20.2853 12.2143 19.9428 11.759 20.0118 11.2669L20.0548 10.9094C20.2223 9.24138 19.9252 7.55926 19.1973 6.04908L19.0352 5.7278C18.1894 4.13708 16.8917 2.83524 15.3097 1.98463L14.9893 1.82057L14.9083 1.77662C14.5207 1.53623 14.371 1.03624 14.5753 0.617443Z" fill="currentColor"/>
</svg>
