<svg width="20" height="18" viewBox="0 0 20 18" fill="none" xmlns="http://www.w3.org/2000/svg">
<path fill-rule="evenodd" clip-rule="evenodd" d="M11.8008 0C12.5167 0.000103358 13.2037 0.284759 13.71 0.791016C14.2162 1.29731 14.4999 1.98423 14.5 2.7002V3.59961H17.2002C18.6912 3.59972 19.9003 4.80879 19.9004 6.2998V15.2998C19.9004 16.7909 18.6913 17.9999 17.2002 18H2.7998C1.30873 17.9999 0.0996094 16.7909 0.0996094 15.2998V6.2998C0.0997149 4.80879 1.30879 3.59971 2.7998 3.59961H5.5V2.7002C5.50005 1.98418 5.78471 1.29732 6.29102 0.791016C6.79732 0.284714 7.48418 5.17315e-05 8.2002 0H11.8008ZM14.5 16.2002H17.2002C17.6972 16.2001 18.0996 15.7968 18.0996 15.2998V6.2998C18.0995 5.8029 17.6971 5.4005 17.2002 5.40039H14.5V16.2002ZM7.30078 16.2002H12.7002V5.40039H7.30078V16.2002ZM2.7998 5.40039C2.3029 5.4005 1.9005 5.8029 1.90039 6.2998V15.2998C1.90039 15.7968 2.30284 16.2001 2.7998 16.2002H5.5V5.40039H2.7998ZM8.2002 1.80078C7.96157 1.80083 7.73319 1.89572 7.56445 2.06445C7.39572 2.23319 7.30083 2.46157 7.30078 2.7002V3.59961H12.7002V2.7002C12.7001 2.46162 12.6052 2.23318 12.4365 2.06445C12.2678 1.89576 12.0393 1.80088 11.8008 1.80078H8.2002Z" fill="currentColor"/>
</svg>
