<svg width="22" height="18" viewBox="0 0 22 18" fill="none" xmlns="http://www.w3.org/2000/svg">
<path d="M12.8926 8.10449C13.3462 8.15082 13.7002 8.53419 13.7002 9C13.7002 9.46581 13.3462 9.84918 12.8926 9.89551L12.7998 9.90039H9.2002C8.70314 9.90039 8.2998 9.49706 8.2998 9C8.2998 8.50294 8.70314 8.09961 9.2002 8.09961H12.7998L12.8926 8.10449Z" fill="currentColor"/>
<path fill-rule="evenodd" clip-rule="evenodd" d="M20.9912 0.00488281C21.4452 0.0507732 21.7998 0.434253 21.7998 0.900391V5.40039C21.7996 5.89728 21.3963 6.30078 20.8994 6.30078H20V17.1006C19.9997 17.5972 19.5972 17.9997 19.1006 18H2.90039C2.40352 18 2.0003 17.5974 2 17.1006V6.30078H1.09961C0.602843 6.30058 0.199417 5.89716 0.199219 5.40039V0.900391L0.204102 0.808594C0.25007 0.354769 0.633704 0.000185792 1.09961 0H20.8994L20.9912 0.00488281ZM3.80078 6.30078V16.2002H18.2002V6.30078H3.80078ZM2 4.5H20V1.80078H2V4.5Z" fill="currentColor"/>
</svg>
