<svg width="32" height="32" viewBox="0 0 32 32" fill="none" xmlns="http://www.w3.org/2000/svg">
<path d="M16.0076 5.34147C19.4831 5.34147 19.8947 5.35671 21.2615 5.41766C22.5318 5.47353 23.2177 5.68685 23.675 5.86462C24.2797 6.09826 24.7166 6.38269 25.1688 6.83473C25.6261 7.29185 25.9056 7.72358 26.1393 8.32799C26.3172 8.78511 26.5306 9.47587 26.5865 10.7406C26.6474 12.1119 26.6627 12.5233 26.6627 15.9924C26.6627 19.4665 26.6474 19.8779 26.5865 21.2442C26.5306 22.514 26.3172 23.1996 26.1393 23.6568C25.9056 24.2612 25.6211 24.698 25.1688 25.15C24.7115 25.6072 24.2797 25.8865 23.675 26.1201C23.2177 26.2979 22.5267 26.5112 21.2615 26.5671C19.8896 26.6281 19.478 26.6433 16.0076 26.6433C12.5321 26.6433 12.1206 26.6281 10.7538 26.5671C9.48349 26.5112 8.79754 26.2979 8.34024 26.1201C7.73559 25.8865 7.29861 25.6021 6.84639 25.15C6.3891 24.6929 6.10963 24.2612 5.8759 23.6568C5.69807 23.1996 5.48466 22.5089 5.42877 21.2442C5.36779 19.8728 5.35255 19.4614 5.35255 15.9924C5.35255 12.5183 5.36779 12.1069 5.42877 10.7406C5.48466 9.47079 5.69807 8.78511 5.8759 8.32799C6.10963 7.72358 6.39418 7.28677 6.84639 6.83473C7.30369 6.37761 7.73559 6.09826 8.34024 5.86462C8.79754 5.68685 9.48857 5.47353 10.7538 5.41766C12.1206 5.35671 12.5321 5.34147 16.0076 5.34147ZM16.0076 3C12.4763 3 12.0342 3.01524 10.6471 3.07619C9.265 3.13714 8.31483 3.36062 7.49169 3.6806C6.63299 4.01582 5.90639 4.45771 5.18487 5.18402C4.45828 5.90525 4.01622 6.63157 3.68087 7.48486C3.36076 8.31276 3.13719 9.25747 3.07622 10.639C3.01524 12.0307 3 12.4726 3 16.0025C3 19.5325 3.01524 19.9744 3.07622 21.361C3.13719 22.7425 3.36076 23.6923 3.68087 24.5151C4.01622 25.3735 4.45828 26.0998 5.18487 26.8211C5.90639 27.5423 6.63299 27.9893 7.48661 28.3194C8.31483 28.6394 9.25992 28.8629 10.642 28.9238C12.0291 28.9848 12.4712 29 16.0025 29C19.5339 29 19.976 28.9848 21.3631 28.9238C22.7452 28.8629 23.6953 28.6394 24.5185 28.3194C25.3721 27.9893 26.0987 27.5423 26.8202 26.8211C27.5417 26.0998 27.9889 25.3735 28.3191 24.5202C28.6392 23.6923 28.8628 22.7476 28.9238 21.3661C28.9848 19.9795 29 19.5376 29 16.0076C29 12.4776 28.9848 12.0357 28.9238 10.6492C28.8628 9.26763 28.6392 8.31784 28.3191 7.49502C27.999 6.63157 27.557 5.90525 26.8304 5.18402C26.1089 4.46279 25.3823 4.01582 24.5286 3.68568C23.7004 3.3657 22.7553 3.14222 21.3733 3.08127C19.981 3.01524 19.539 3 16.0076 3Z" fill="white"/>
<path d="M16.5 10C12.9114 10 10 12.9114 10 16.5C10 20.0886 12.9114 23 16.5 23C20.0886 23 23 20.0886 23 16.5C23 12.9114 20.0886 10 16.5 10ZM16.5 20.7163C14.1719 20.7163 12.2837 18.8281 12.2837 16.5C12.2837 14.1719 14.1719 12.2837 16.5 12.2837C18.8281 12.2837 20.7163 14.1719 20.7163 16.5C20.7163 18.8281 18.8281 20.7163 16.5 20.7163Z" fill="white"/>
<path d="M24 9C24 9.55375 23.5505 10 23 10C22.4463 10 22 9.55049 22 9C22 8.44625 22.4495 8 23 8C23.5505 8 24 8.44951 24 9Z" fill="white"/>
</svg>
