<svg width="32" height="32" viewBox="0 0 32 32" fill="none" xmlns="http://www.w3.org/2000/svg">
<path d="M27.0754 3H4.91953C3.8582 3 3 3.83789 3 4.87383V27.1211C3 28.157 3.8582 29 4.91953 29H27.0754C28.1367 29 29 28.157 29 27.1262V4.87383C29 3.83789 28.1367 3 27.0754 3ZM10.7137 25.1559H6.8543V12.7449H10.7137V25.1559ZM8.78398 11.0539C7.54492 11.0539 6.54453 10.0535 6.54453 8.81953C6.54453 7.58555 7.54492 6.58516 8.78398 6.58516C10.018 6.58516 11.0184 7.58555 11.0184 8.81953C11.0184 10.0484 10.018 11.0539 8.78398 11.0539ZM25.1559 25.1559H21.3016V19.123C21.3016 17.6859 21.2762 15.8324 19.2957 15.8324C17.2898 15.8324 16.9852 17.4016 16.9852 19.0215V25.1559H13.1359V12.7449H16.8328V14.441H16.8836C17.3965 13.466 18.6559 12.4352 20.5297 12.4352C24.4348 12.4352 25.1559 15.0047 25.1559 18.3461V25.1559Z" fill="white"/>
</svg>
